<?xml version="1.0" encoding="utf-8"?>
<!-- Generator: Adobe Illustrator 15.0.0, SVG Export Plug-In . SVG Version: 6.00 Build 0)  -->
<!DOCTYPE svg PUBLIC "-//W3C//DTD SVG 1.1//EN" "http://www.w3.org/Graphics/SVG/1.1/DTD/svg11.dtd">
<svg version="1.1" id="图层_1" xmlns="http://www.w3.org/2000/svg" xmlns:xlink="http://www.w3.org/1999/xlink" x="0px" y="0px"
	 width="48px" height="48px" viewBox="0 0 48 48" enable-background="new 0 0 48 48" xml:space="preserve">
<path fill="#FFFFFF" d="M24,2.5c-11.875,0-21.5,8.383-21.5,18.725C2.5,31.567,12.125,39.95,24,39.95v5.55
	c0,0,13.083-9.146,15.367-11.179c3.793-3.375,6.133-8,6.133-13.097C45.5,10.883,35.876,2.5,24,2.5 M34.627,24.105
	c-1.583,0-2.867-1.242-2.867-2.774c0-1.53,1.284-2.771,2.867-2.771c1.585,0,2.866,1.242,2.866,2.771
	C37.493,22.863,36.212,24.105,34.627,24.105 M23.916,24.105c-1.583,0-2.867-1.242-2.867-2.774c0-1.53,1.284-2.771,2.867-2.771
	c1.584,0,2.869,1.242,2.869,2.771C26.784,22.863,25.5,24.105,23.916,24.105 M13.122,24.105c-1.581,0-2.865-1.242-2.865-2.774
	c0-1.53,1.284-2.771,2.865-2.771c1.583,0,2.867,1.242,2.867,2.771C15.988,22.863,14.705,24.105,13.122,24.105"/>
</svg>
