<?xml version="1.0" standalone="no"?><!DOCTYPE svg PUBLIC "-//W3C//DTD SVG 1.1//EN" "http://www.w3.org/Graphics/SVG/1.1/DTD/svg11.dtd"><svg t="1511404011787" class="icon" style="" viewBox="0 0 1024 1024" version="1.1" xmlns="http://www.w3.org/2000/svg" p-id="1956" xmlns:xlink="http://www.w3.org/1999/xlink" width="48" height="48"><defs><style type="text/css"></style></defs><path d="M661.578513 773.228732c-59.706683 40.118926-131.293941 64.055965-208.573641 65.415116-213.434603 3.725671-389.484572-166.280075-393.210244-379.714678-3.725671-213.434603 166.280075-389.484572 379.714678-393.210244 213.434603-3.725671 389.484572 166.280075 393.210244 379.714678 1.343161 77.2797-20.083448 149.650468-58.091693 210.732292l193.926796 187.274953-113.049344 117.062836L661.578513 773.228732zM710.236102 447.576265c-2.542411-146.036727-122.995128-262.348032-269.031855-259.805621-146.036727 2.542411-262.348032 122.995128-259.805621 269.031855 2.542411 146.036727 122.995128 262.348032 269.031855 259.805621C596.467208 714.065709 712.794503 593.612992 710.236102 447.576265z" p-id="1957" fill="#e6e6e6"></path></svg>