<?xml version="1.0" encoding="utf-8"?>
<!-- Generator: Adobe Illustrator 15.0.0, SVG Export Plug-In . SVG Version: 6.00 Build 0)  -->
<!DOCTYPE svg PUBLIC "-//W3C//DTD SVG 1.1//EN" "http://www.w3.org/Graphics/SVG/1.1/DTD/svg11.dtd">
<svg version="1.1" id="图层_1" xmlns="http://www.w3.org/2000/svg" xmlns:xlink="http://www.w3.org/1999/xlink" x="0px" y="0px"
	 width="256px" height="256px" viewBox="0 0 256 256" enable-background="new 0 0 256 256" xml:space="preserve">
<path fill="#FFFFFF" d="M234.02,155.003c0.304,1.813,0.228,4.005-0.227,6.574c-0.452,2.57-1.209,5.179-2.268,7.822
	c-1.057,2.646-2.342,5.026-3.854,7.143c-1.511,2.116-3.174,3.628-4.987,4.535s-3.401,1.36-4.762,1.36s-2.872-0.304-4.535-0.907
	c-1.511-0.453-3.4-0.869-5.667-1.247s-4.572-0.453-6.916-0.227c-2.342,0.227-4.685,0.719-7.027,1.474
	c-2.344,0.756-4.347,2.041-6.01,3.854c-3.627,3.779-5.743,8.088-6.348,12.925c-0.605,4.838,0.075,9.447,2.041,13.831
	c1.511,3.023,1.284,6.046-0.681,9.069c-0.907,1.209-2.344,2.456-4.309,3.742c-1.965,1.284-4.119,2.455-6.461,3.514
	c-2.344,1.058-4.8,1.889-7.37,2.493c-2.567,0.604-4.837,0.907-6.802,0.907c-1.359,0-2.646-0.529-3.854-1.588
	c-1.21-1.058-2.041-2.19-2.495-3.399h-0.226c-1.663-4.687-4.497-8.73-8.503-12.131c-4.007-3.4-8.653-5.101-13.944-5.101
	c-5.139,0-9.787,1.7-13.944,5.101c-4.157,3.4-7.066,7.369-8.729,11.902c-0.755,1.815-1.89,3.137-3.401,3.969
	c-1.511,0.831-3.174,1.247-4.988,1.247c-2.116,0-4.497-0.379-7.142-1.133c-2.645-0.757-5.29-1.701-7.936-2.834
	c-2.645-1.135-5.025-2.457-7.142-3.968c-2.116-1.512-3.703-3.023-4.761-4.535c-0.755-1.059-1.17-2.306-1.247-3.742
	c-0.076-1.435,0.491-3.438,1.701-6.007c1.663-3.478,2.305-7.444,1.927-11.904c-0.377-4.46-2.305-8.579-5.782-12.357
	c-2.116-2.267-4.686-3.741-7.708-4.421c-3.023-0.681-5.895-0.945-8.615-0.793c-3.174,0.151-6.424,0.755-9.75,1.813
	c-2.116,0.605-4.231,0.454-6.348-0.453c-1.663-0.605-3.212-2.003-4.648-4.196c-1.436-2.19-2.721-4.609-3.854-7.255
	c-1.134-2.645-2.003-5.366-2.608-8.161c-0.604-2.798-0.756-5.103-0.453-6.916c0.453-3.324,1.965-5.441,4.535-6.349
	c4.534-1.814,8.615-4.8,12.244-8.955c3.627-4.157,5.441-8.806,5.441-13.945c0-5.29-1.814-9.899-5.441-13.83
	c-3.628-3.931-7.709-6.802-12.244-8.617c-1.36-0.453-2.495-1.549-3.401-3.288c-0.907-1.737-1.36-3.513-1.36-5.327
	c0-1.965,0.303-4.157,0.907-6.576c0.604-2.418,1.398-4.761,2.381-7.028c0.983-2.267,2.116-4.345,3.401-6.234
	c1.284-1.89,2.682-3.288,4.193-4.196c1.209-0.755,2.381-1.057,3.515-0.907c1.133,0.151,2.381,0.454,3.74,0.907
	c4.536,1.815,9.259,2.381,14.171,1.701c4.913-0.68,9.259-2.833,13.038-6.462c1.814-1.813,3.137-4.043,3.968-6.688
	c0.831-2.646,1.359-5.253,1.587-7.822c0.227-2.57,0.227-4.913,0-7.029c-0.228-2.116-0.416-3.627-0.567-4.534
	c-0.302-0.907-0.567-1.965-0.793-3.174c-0.227-1.208-0.114-2.267,0.339-3.174c0.907-2.116,2.532-3.968,4.875-5.555
	c2.343-1.587,4.875-2.91,7.596-3.968c2.721-1.059,5.366-1.853,7.936-2.381c2.568-0.529,4.61-0.793,6.121-0.793
	c1.966,0,3.515,0.642,4.648,1.928c1.134,1.284,1.927,2.606,2.381,3.968c1.662,4.08,4.384,7.67,8.163,10.769
	c3.778,3.099,8.238,4.648,13.377,4.648c5.289,0,9.977-1.474,14.056-4.421c4.082-2.948,6.954-6.689,8.617-11.223
	c0.604-1.21,1.55-2.457,2.833-3.741c1.285-1.286,2.607-1.928,3.969-1.928c2.116,0,4.423,0.303,6.915,0.907
	c2.494,0.604,4.95,1.436,7.369,2.494c2.418,1.058,4.647,2.418,6.688,4.082c2.04,1.663,3.665,3.476,4.875,5.441
	c0.756,1.208,0.981,2.532,0.68,3.968c-0.303,1.436-0.604,2.457-0.907,3.061c-1.965,4.383-2.569,8.994-1.813,13.831
	c0.755,4.836,2.948,9.069,6.575,12.697c3.628,3.628,8.087,5.631,13.377,6.008c5.291,0.379,10.203-0.49,14.738-2.607
	c1.209-0.755,2.682-1.058,4.421-0.907c1.739,0.151,3.212,0.832,4.423,2.041c2.267,2.116,4.27,5.328,6.007,9.637
	c1.739,4.307,2.91,8.653,3.516,13.036c0.301,2.57-0.113,4.574-1.248,6.01c-1.133,1.436-2.306,2.38-3.514,2.833
	c-4.688,1.663-8.692,4.573-12.018,8.729c-3.325,4.157-4.987,8.88-4.987,14.172c0,5.137,1.397,9.634,4.194,13.491
	c2.797,3.854,6.463,6.611,10.996,8.274c1.058,0.604,1.964,1.21,2.721,1.814C232.282,151.147,233.416,152.886,234.02,155.003
	L234.02,155.003z M128.591,175.408c6.801,0,13.226-1.284,19.271-3.854c6.047-2.569,11.299-6.122,15.76-10.656
	c4.458-4.534,7.972-9.787,10.542-15.759c2.569-5.97,3.854-12.356,3.854-19.159c0-6.802-1.284-13.188-3.854-19.158
	c-2.57-5.972-6.084-11.186-10.542-15.645c-4.461-4.46-9.713-7.973-15.76-10.543c-6.045-2.57-12.47-3.854-19.271-3.854
	c-6.803,0-13.19,1.284-19.16,3.854c-5.971,2.57-11.186,6.083-15.645,10.543c-4.459,4.458-7.974,9.673-10.542,15.645
	c-2.569,5.97-3.855,12.356-3.855,19.158s1.286,13.188,3.855,19.159c2.569,5.971,6.083,11.225,10.542,15.759
	c4.459,4.534,9.674,8.087,15.645,10.656C115.401,174.124,121.788,175.408,128.591,175.408L128.591,175.408z"/>
</svg>
