<?xml version="1.0" encoding="utf-8"?>
<!-- Generator: Adobe Illustrator 15.0.0, SVG Export Plug-In . SVG Version: 6.00 Build 0)  -->
<!DOCTYPE svg PUBLIC "-//W3C//DTD SVG 1.1//EN" "http://www.w3.org/Graphics/SVG/1.1/DTD/svg11.dtd">
<svg version="1.1" id="图层_1" xmlns="http://www.w3.org/2000/svg" xmlns:xlink="http://www.w3.org/1999/xlink" x="0px" y="0px"
	 width="256px" height="256px" viewBox="0 0 256 256" enable-background="new 0 0 256 256" xml:space="preserve">
<path fill="#E6E6E6" d="M126.689,183.426c-12.376,0-22.38,9.831-22.38,21.927c-0.001,12.097,10.04,21.927,22.38,21.927
	c12.375,0,22.379-9.83,22.379-21.927C149.068,193.257,139.026,183.426,126.689,183.426z M175.456,44.511
	c-11.922-10.525-27.921-15.791-48.072-15.791c-19.136,0-34.612,5.195-46.397,15.583C69.206,54.691,62.336,69.017,61.953,82.229
	c-0.382,13.212,31.025,10.457,32.176,3.938c1.22-6.902,6.379-18.057,12.375-23.111c5.995-5.055,13.457-7.6,22.381-7.6
	c9.236,0,16.628,2.44,22.065,7.286c5.44,4.88,8.191,10.702,8.191,17.498c0,4.882-1.567,9.38-4.635,13.458
	c-1.988,2.578-8.124,8.018-18.339,16.348c-10.213,8.296-17.046,15.791-20.461,22.45c-3.417,6.658-5.123,15.129-5.123,25.447
	c0,1.01,0.069,3.8,0.139,8.368h31.86c-0.172-9.656,0.665-16.352,2.442-20.081c1.777-3.766,6.379-8.714,13.769-14.85
	c14.292-11.887,23.6-21.263,27.991-28.166c4.357-6.903,6.553-14.224,6.52-21.963C193.305,67.275,187.378,55.039,175.456,44.511z"/>
</svg>
