<?xml version="1.0" standalone="no"?><!DOCTYPE svg PUBLIC "-//W3C//DTD SVG 1.1//EN" "http://www.w3.org/Graphics/SVG/1.1/DTD/svg11.dtd"><svg t="1508381603413" class="icon" style="" viewBox="0 0 1024 1024" version="1.1" xmlns="http://www.w3.org/2000/svg" p-id="3165" xmlns:xlink="http://www.w3.org/1999/xlink" width="128" height="128"><defs><style type="text/css"></style></defs><path d="M179.2 460.8h646.4v230.4H179.2V460.8z" fill="#BAD4FF" p-id="3166"></path><path d="M710.4 403.2l-153.6 128-160-115.2c-12.8-6.4-19.2-6.4-32 0l-128 121.6c-6.4 6.4-6.4 19.2 0 32 12.8 6.4 25.6 6.4 32 0L384 460.8 544 576H576l166.4-134.4c6.4-6.4 6.4-19.2 6.4-32-19.2-12.8-25.6-12.8-38.4-6.4z" fill="#4E8CEE" p-id="3167"></path><path d="M812.8 224H524.8V192c0-12.8-12.8-19.2-19.2-19.2-19.2 0-25.6 6.4-25.6 19.2v32H192c-25.6 0-51.2 19.2-51.2 51.2v396.8c0 25.6 19.2 51.2 51.2 51.2h294.4v19.2l-128 102.4c-6.4 6.4-12.8 19.2-6.4 32 6.4 6.4 19.2 12.8 25.6 6.4l102.4-83.2s6.4-6.4 12.8-6.4c6.4-6.4 12.8-6.4 19.2 0l12.8 6.4 102.4 83.2c6.4 6.4 6.4 6.4 12.8 6.4 12.8 0 19.2-6.4 19.2-19.2 0-6.4-6.4-12.8-6.4-19.2l-128-102.4v-19.2h294.4c25.6 0 51.2-19.2 51.2-51.2V275.2c-6.4-25.6-32-51.2-57.6-51.2z m6.4 448c0 6.4-6.4 6.4 0 0l-627.2 6.4V275.2v-6.4h620.8c6.4 0 6.4 6.4 6.4 6.4v396.8z" fill="#4E8CEE" p-id="3168"></path></svg>