<?xml version="1.0" standalone="no"?><!DOCTYPE svg PUBLIC "-//W3C//DTD SVG 1.1//EN" "http://www.w3.org/Graphics/SVG/1.1/DTD/svg11.dtd"><svg t="1508381291920" class="icon" style="" viewBox="0 0 1024 1024" version="1.1" xmlns="http://www.w3.org/2000/svg" p-id="1867" xmlns:xlink="http://www.w3.org/1999/xlink" width="128" height="128"><defs><style type="text/css"></style></defs><path d="M486.4 806.4H224c-38.4 0-51.2-19.2-51.2-51.2V198.4c0-38.4 19.2-51.2 51.2-51.2h531.2c38.4 0 51.2 19.2 51.2 51.2v243.2l-44.8-25.6V198.4v-12.8H211.2V768h275.2v38.4z" fill="#4E8CEE" p-id="1868"></path><path d="M704 332.8c0-6.4-6.4-19.2-19.2-19.2H288c-6.4 0-19.2 6.4-19.2 19.2 0 6.4 6.4 19.2 19.2 19.2h396.8c12.8 0 19.2-6.4 19.2-19.2zM288 435.2c-6.4 0-12.8 12.8-12.8 19.2 0 6.4 6.4 19.2 19.2 19.2h262.4c6.4 0 19.2-6.4 19.2-19.2 0-6.4-6.4-19.2-19.2-19.2H288zM499.2 556.8H288c-6.4 0-12.8 6.4-12.8 19.2 0 6.4 6.4 19.2 19.2 19.2h204.8c6.4 0 12.8-12.8 12.8-19.2 0-12.8-6.4-19.2-12.8-19.2z" fill="#4E8CEE" p-id="1869"></path><path d="M870.4 729.6H832l-83.2-115.2c32-12.8 57.6-44.8 57.6-83.2 0-51.2-38.4-89.6-89.6-89.6s-89.6 38.4-89.6 89.6c0 38.4 25.6 70.4 57.6 83.2l-83.2 115.2h-38.4c-19.2 0-38.4 19.2-38.4 38.4v64c0 19.2 19.2 38.4 38.4 38.4h313.6c19.2 0 38.4-19.2 38.4-38.4v-64c0-19.2-19.2-38.4-44.8-38.4z" fill="#BAD4FF" p-id="1870"></path><path d="M870.4 729.6H832l-83.2-115.2c32-12.8 57.6-44.8 57.6-83.2 0-51.2-38.4-89.6-89.6-89.6s-89.6 38.4-89.6 89.6c0 38.4 25.6 70.4 57.6 83.2l-83.2 115.2h-38.4c-19.2 0-38.4 19.2-38.4 38.4v64c0 19.2 19.2 38.4 38.4 38.4h313.6c19.2 0 38.4-19.2 38.4-38.4v-64c0-19.2-19.2-38.4-44.8-38.4z m-211.2-198.4c0-32 25.6-57.6 57.6-57.6s57.6 25.6 57.6 57.6-25.6 57.6-57.6 57.6c-32-6.4-57.6-32-57.6-57.6z m51.2 108.8h12.8l64 96H640l70.4-96z m166.4 192c0 6.4 0 6.4 0 0l-320 6.4c-6.4 0-6.4 0-6.4-6.4v-64c0-6.4 0-6.4 6.4-6.4h313.6c6.4 0 6.4 0 6.4 6.4v64z" fill="#4E8CEE" p-id="1871"></path></svg>