<?xml version="1.0" standalone="no"?><!DOCTYPE svg PUBLIC "-//W3C//DTD SVG 1.1//EN" "http://www.w3.org/Graphics/SVG/1.1/DTD/svg11.dtd"><svg t="1508381340257" class="icon" style="" viewBox="0 0 1024 1024" version="1.1" xmlns="http://www.w3.org/2000/svg" p-id="2255" xmlns:xlink="http://www.w3.org/1999/xlink" width="128" height="128"><defs><style type="text/css"></style></defs><path d="M326.4 211.2H236.8c-19.2 0-44.8 19.2-44.8 38.4v556.8c0 25.6 19.2 44.8 44.8 44.8H320c25.6 0 44.8-19.2 44.8-44.8V249.6c6.4-19.2-19.2-38.4-38.4-38.4m-44.8 582.4c-19.2 0-38.4-19.2-38.4-38.4s19.2-38.4 38.4-38.4 38.4 19.2 38.4 38.4-19.2 38.4-38.4 38.4m57.6-160c0 19.2-19.2 32-44.8 32h-32c-25.6 0-44.8-19.2-44.8-32V262.4c0-19.2 19.2-32 44.8-32h32c25.6 0 44.8 19.2 44.8 32v371.2z" fill="#4E8CEE" p-id="2256"></path><path d="M307.2 320H256c-6.4 0-19.2-12.8-19.2-19.2 0-6.4 6.4-19.2 19.2-19.2h51.2c12.8-6.4 19.2 6.4 19.2 12.8-6.4 12.8-12.8 19.2-19.2 25.6m0 83.2h-44.8c-6.4 0-19.2-6.4-19.2-19.2 0-6.4 6.4-19.2 19.2-19.2h51.2c6.4 0 19.2 6.4 19.2 19.2-6.4 12.8-19.2 19.2-25.6 19.2m249.6-192H473.6c-25.6 0-44.8 19.2-44.8 38.4v556.8c0 25.6 19.2 44.8 44.8 44.8h83.2c25.6 0 44.8-19.2 44.8-44.8V249.6c0-19.2-19.2-38.4-44.8-38.4M512 793.6c-19.2 0-38.4-19.2-38.4-38.4s19.2-38.4 38.4-38.4 38.4 19.2 38.4 38.4c6.4 19.2-12.8 38.4-38.4 38.4 6.4 0 0 0 0 0m64-160c0 19.2-19.2 32-44.8 32h-32c-25.6 0-44.8-19.2-44.8-32V262.4c0-19.2 19.2-32 44.8-32h32c25.6 0 44.8 19.2 44.8 32v371.2z" fill="#4E8CEE" p-id="2257"></path><path d="M544 320h-51.2c-12.8 0-19.2-12.8-19.2-19.2 0-6.4 6.4-19.2 19.2-19.2h51.2c12.8-6.4 19.2 6.4 19.2 12.8-6.4 12.8-12.8 25.6-19.2 25.6m0 83.2h-51.2c-6.4 0-19.2-6.4-19.2-19.2 0-6.4 6.4-19.2 19.2-19.2h51.2c6.4 0 19.2 6.4 19.2 19.2-6.4 12.8-12.8 19.2-19.2 19.2m256-192h-83.2c-25.6 0-44.8 19.2-44.8 44.8v556.8c0 25.6 19.2 44.8 44.8 44.8h83.2c25.6 0 44.8-19.2 44.8-44.8V249.6c-6.4-19.2-25.6-38.4-44.8-38.4m-44.8 582.4c-19.2 0-38.4-19.2-38.4-38.4s19.2-38.4 38.4-38.4 38.4 19.2 38.4 38.4-19.2 38.4-38.4 38.4m64-160c0 19.2-19.2 32-44.8 32h-32c-25.6 0-44.8-19.2-44.8-32V262.4c0-19.2 19.2-32 44.8-32h32c25.6 0 44.8 19.2 44.8 32v371.2z" fill="#BAD4FF" p-id="2258"></path><path d="M780.8 320h-51.2c-6.4 0-19.2-6.4-19.2-19.2 0-6.4 6.4-19.2 19.2-19.2h51.2c6.4 0 19.2 6.4 19.2 19.2 0 6.4-12.8 19.2-19.2 19.2m0 83.2h-51.2c-6.4 0-19.2-6.4-19.2-19.2 0-6.4 6.4-19.2 19.2-19.2h51.2c6.4 0 19.2 6.4 19.2 19.2 0 12.8-6.4 19.2-19.2 19.2" fill="#BAD4FF" p-id="2259"></path></svg>