<?xml version="1.0" standalone="no"?><!DOCTYPE svg PUBLIC "-//W3C//DTD SVG 1.1//EN" "http://www.w3.org/Graphics/SVG/1.1/DTD/svg11.dtd"><svg t="1508381510511" class="icon" style="" viewBox="0 0 1024 1024" version="1.1" xmlns="http://www.w3.org/2000/svg" p-id="2938" xmlns:xlink="http://www.w3.org/1999/xlink" width="128" height="128"><defs><style type="text/css"></style></defs><path d="M851.2 505.6c-6.4-12.8-6.4-25.6-25.6-25.6-12.8 0-25.6 12.8-25.6 25.6v243.2c0 38.4-32 70.4-64 70.4h-448c-38.4 0-70.4-38.4-70.4-76.8V313.6c0-38.4 32-70.4 64-70.4h249.6c12.8 0 25.6-6.4 25.6-25.6 0-12.8-6.4-25.6-19.2-25.6h-256c-64 0-115.2 51.2-115.2 121.6v435.2c0 64 51.2 121.6 115.2 121.6h454.4c64 0 115.2-51.2 115.2-121.6V505.6z" fill="#4E8CEE" p-id="2939"></path><path d="M710.4 236.8L800 320 563.2 563.2H480l-6.4-83.2 236.8-243.2z" fill="#BAD4FF" p-id="2940"></path><path d="M441.6 473.6V576c0 12.8 6.4 19.2 25.6 25.6h102.4c6.4 0 12.8-6.4 19.2-6.4l249.6-256c6.4-6.4 6.4-25.6 0-32l-102.4-102.4c-6.4-6.4-25.6-6.4-32 0L454.4 448c-12.8 12.8-12.8 19.2-12.8 25.6z m275.2-236.8L800 320 556.8 563.2l-76.8-6.4-6.4-76.8 243.2-243.2z" fill="#4E8CEE" p-id="2941"></path></svg>