<?xml version="1.0" standalone="no"?><!DOCTYPE svg PUBLIC "-//W3C//DTD SVG 1.1//EN" "http://www.w3.org/Graphics/SVG/1.1/DTD/svg11.dtd"><svg t="1508380848598" class="icon" style="" viewBox="0 0 1024 1024" version="1.1" xmlns="http://www.w3.org/2000/svg" p-id="1139" xmlns:xlink="http://www.w3.org/1999/xlink" width="128" height="128"><defs><style type="text/css"></style></defs><path d="M819.2 364.8c6.4 6.4 6.4 12.8 0 19.2L512 588.8c-6.4 6.4-12.8 6.4-19.2 0L192 377.6c-6.4 0-6.4-12.8 0-12.8l307.2-192c6.4-6.4 12.8-6.4 19.2 0l300.8 192z" fill="#BAD4FF" p-id="1140"></path><path d="M505.6 608c-6.4 0-12.8 0-19.2-6.4L179.2 396.8c-12.8-12.8-12.8-38.4 0-51.2l307.2-192c6.4-6.4 12.8-6.4 19.2-6.4 6.4 0 12.8 0 19.2 6.4l307.2 192c12.8 12.8 12.8 32 0 44.8L524.8 601.6c-6.4 6.4-12.8 6.4-19.2 6.4zM211.2 371.2l294.4 198.4 294.4-198.4-294.4-185.6-294.4 185.6z" fill="#4E8CEE" p-id="1141"></path><path d="M505.6 742.4c-6.4 0-6.4 0-12.8-6.4L160 505.6c-12.8-6.4-12.8-12.8-6.4-25.6 6.4-6.4 19.2-12.8 25.6-6.4l326.4 224L832 473.6c6.4-6.4 19.2-6.4 25.6 6.4 6.4 6.4 6.4 19.2-6.4 25.6L512 736l-6.4 6.4z" fill="#4E8CEE" p-id="1142"></path><path d="M505.6 864c-6.4 0-6.4 0-12.8-6.4L160 633.6c-12.8-6.4-12.8-19.2-6.4-32 6.4-6.4 19.2-12.8 25.6-6.4l326.4 224L832 595.2c6.4-6.4 19.2-6.4 25.6 6.4 6.4 6.4 6.4 19.2-6.4 25.6L512 857.6c0 6.4-6.4 6.4-6.4 6.4z" fill="#4E8CEE" p-id="1143"></path></svg>