<?xml version="1.0" standalone="no"?><!DOCTYPE svg PUBLIC "-//W3C//DTD SVG 1.1//EN" "http://www.w3.org/Graphics/SVG/1.1/DTD/svg11.dtd"><svg t="1508381480274" class="icon" style="" viewBox="0 0 1024 1024" version="1.1" xmlns="http://www.w3.org/2000/svg" p-id="2712" xmlns:xlink="http://www.w3.org/1999/xlink" width="128" height="128"><defs><style type="text/css"></style></defs><path d="M576 652.8m-89.6 0a89.6 89.6 0 1 0 179.2 0 89.6 89.6 0 1 0-179.2 0Z" fill="#BAD4FF" p-id="2713"></path><path d="M505.6 896c-198.4 0-364.8-166.4-364.8-364.8s166.4-364.8 364.8-364.8 364.8 166.4 364.8 364.8S704 896 505.6 896z m0-684.8c-172.8 0-320 147.2-320 320s140.8 320 320 320 320-140.8 320-320c0-172.8-147.2-320-320-320zM576 761.6c-25.6 0-57.6-6.4-70.4-32-38.4-38.4-44.8-102.4-6.4-140.8L300.8 384l70.4-70.4s6.4-6.4 12.8-6.4 12.8 6.4 19.2 6.4c6.4 6.4 12.8 12.8 12.8 19.2 0 6.4-6.4 12.8-6.4 19.2l-38.4 32 38.4 38.4 32-38.4c6.4 0 6.4-6.4 19.2-6.4s12.8 6.4 19.2 6.4v19.2c0 6.4-6.4 12.8-6.4 19.2l-38.4 38.4 96 96c12.8-6.4 32-6.4 44.8-6.4 25.6 0 57.6 6.4 76.8 32 25.6 19.2 32 44.8 32 70.4 0 25.6-6.4 57.6-32 76.8-12.8 19.2-44.8 32-76.8 32z m0-172.8c-19.2 0-32 6.4-44.8 19.2-25.6 25.6-25.6 64 0 89.6 19.2 6.4 32 19.2 44.8 19.2 19.2 0 32-6.4 44.8-19.2 25.6-25.6 25.6-64 0-89.6-12.8-12.8-25.6-19.2-44.8-19.2z" fill="#4E8CEE" p-id="2714"></path></svg>