<?xml version="1.0" standalone="no"?><!DOCTYPE svg PUBLIC "-//W3C//DTD SVG 1.1//EN" "http://www.w3.org/Graphics/SVG/1.1/DTD/svg11.dtd"><svg t="1508381706647" class="icon" style="" viewBox="0 0 1024 1024" version="1.1" xmlns="http://www.w3.org/2000/svg" p-id="3625" xmlns:xlink="http://www.w3.org/1999/xlink" width="128" height="128"><defs><style type="text/css"></style></defs><path d="M556.8 198.4C422.4 198.4 320 300.8 320 435.2c0 38.4 12.8 70.4 25.6 102.4 38.4 19.2 249.6 102.4 249.6 102.4l140.8-51.2c38.4-44.8 51.2-89.6 51.2-153.6 6.4-134.4-102.4-236.8-230.4-236.8z m89.6 128l-57.6 57.6h32c6.4 0 19.2 0 19.2 12.8 0 6.4-12.8 19.2-19.2 19.2H576V448h44.8c12.8 0 19.2 0 19.2 12.8 0 6.4-12.8 19.2-19.2 19.2H576v44.8c0 12.8-6.4 19.2-12.8 19.2s-19.2-12.8-19.2-19.2v-44.8h-51.2c-12.8 0-19.2-6.4-19.2-19.2 0-6.4 6.4-12.8 19.2-12.8h51.2v-32h-51.2c-12.8 0-19.2-6.4-19.2-19.2 0-12.8 6.4-12.8 19.2-12.8h38.4l-64-57.6c-6.4-6.4-6.4-19.2 0-25.6 6.4-6.4 12.8-6.4 19.2 0l64 64 64-64c6.4-6.4 19.2-6.4 25.6 0 12.8 6.4 12.8 19.2 6.4 25.6z" fill="#BAD4FF" p-id="3626"></path><path d="M748.8 588.8c-6.4 0-19.2-6.4-19.2-19.2 0-6.4 0-6.4 6.4-12.8 32-38.4 44.8-89.6 44.8-134.4 0-128-102.4-224-224-224S326.4 300.8 326.4 428.8c0 32 6.4 64 12.8 89.6 6.4 6.4 0 19.2-6.4 19.2-12.8 6.4-19.2 0-25.6-6.4-12.8-25.6-19.2-64-19.2-102.4 0-140.8 115.2-262.4 262.4-262.4s262.4 115.2 262.4 262.4c0 57.6-19.2 108.8-51.2 153.6-6.4 6.4-12.8 6.4-12.8 6.4z" fill="#4E8CEE" p-id="3627"></path><path d="M889.6 633.6c-25.6-38.4-96-96-192-51.2-32 12.8-64 32-96 51.2L313.6 512H256c-6.4 0-12.8 6.4-12.8 12.8s6.4 19.2 19.2 19.2h44.8l262.4 108.8c-6.4 6.4-12.8 6.4-12.8 6.4s-57.6 32-115.2 12.8l-96-19.2c-6.4 0-19.2 6.4-19.2 12.8s6.4 19.2 12.8 19.2l96 19.2c76.8 19.2 140.8-12.8 140.8-12.8s83.2-44.8 140.8-76.8c64-38.4 115.2 0 134.4 19.2l-300.8 172.8H268.8c-6.4 0-19.2 6.4-19.2 19.2 0 6.4 6.4 19.2 19.2 19.2h294.4l326.4-179.2c6.4-12.8 6.4-25.6 0-32z" fill="#4E8CEE" p-id="3628"></path><path d="M147.2 531.2h121.6V832H147.2V531.2z" fill="#BAD4FF" p-id="3629"></path><path d="M275.2 838.4H153.6c-6.4 0-19.2-6.4-19.2-19.2V524.8c0-6.4 12.8-12.8 19.2-12.8h121.6c6.4 0 19.2 6.4 19.2 19.2V832s-12.8 6.4-19.2 6.4z m-102.4-32H256V544H172.8v262.4z" fill="#4E8CEE" p-id="3630"></path></svg>