<?xml version="1.0" standalone="no"?><!DOCTYPE svg PUBLIC "-//W3C//DTD SVG 1.1//EN" "http://www.w3.org/Graphics/SVG/1.1/DTD/svg11.dtd"><svg t="1508380902407" class="icon" style="" viewBox="0 0 1024 1024" version="1.1" xmlns="http://www.w3.org/2000/svg" p-id="1689" xmlns:xlink="http://www.w3.org/1999/xlink" width="128" height="128"><defs><style type="text/css"></style></defs><path d="M812.8 787.2V492.8c0-38.4-32-64-70.4-64h-19.2V288c0-76.8-76.8-134.4-147.2-134.4H448c-64 0-147.2 51.2-147.2 134.4v134.4h-12.8c-38.4 0-70.4 32-70.4 64v294.4c0 38.4 32 64 70.4 64h454.4c38.4 6.4 76.8-19.2 70.4-57.6zM448 204.8h134.4c44.8 0 89.6 38.4 89.6 83.2v134.4h-320v-128c0-51.2 57.6-89.6 96-89.6zM275.2 492.8c0-6.4 6.4-6.4 12.8-6.4h454.4c6.4 0 12.8 6.4 12.8 12.8v288c0 6.4-6.4 12.8-12.8 12.8H288c-6.4 0-12.8-6.4-12.8-12.8V492.8z" fill="#4E8CEE" p-id="1690"></path><path d="M614.4 729.6l-32-38.4c12.8-19.2 19.2-38.4 19.2-64 0-51.2-44.8-96-96-96S409.6 576 409.6 627.2s44.8 96 96 96c12.8 0 32-6.4 44.8-6.4l38.4 38.4c6.4 6.4 6.4 6.4 12.8 6.4s12.8 0 12.8-6.4c6.4-6.4 6.4-6.4 6.4-12.8s0-12.8-6.4-12.8z m-51.2-102.4c0 32-25.6 57.6-57.6 57.6s-57.6-25.6-57.6-57.6 25.6-57.6 57.6-57.6 57.6 25.6 57.6 57.6z" fill="#BAD4FF" p-id="1691"></path></svg>