<?xml version="1.0" standalone="no"?><!DOCTYPE svg PUBLIC "-//W3C//DTD SVG 1.1//EN" "http://www.w3.org/Graphics/SVG/1.1/DTD/svg11.dtd"><svg t="1508381661863" class="icon" style="" viewBox="0 0 1024 1024" version="1.1" xmlns="http://www.w3.org/2000/svg" p-id="3398" xmlns:xlink="http://www.w3.org/1999/xlink" width="128" height="128"><defs><style type="text/css"></style></defs><path d="M787.2 787.2c0 19.2-51.2 44.8-83.2 44.8H326.4c-19.2 0-83.2-25.6-83.2-51.2l-32-185.6c0-19.2 0-38.4 25.6-38.4h563.2c19.2 0 25.6 19.2 25.6 38.4l-38.4 192zM358.4 313.6h313.6s6.4-96-32-140.8c-25.6-32-236.8-6.4-236.8-6.4s-64 57.6-44.8 147.2z" fill="#BAD4FF" p-id="3399"></path><path d="M480 672L339.2 556.8l-32 32 172.8 160 243.2-294.4-38.4-25.6-204.8 243.2z" fill="#4E8CEE" p-id="3400"></path><path d="M691.2 211.2c-12.8-38.4-38.4-64-83.2-64H422.4c-44.8 0-64 32-83.2 64C256 217.6 192 281.6 192 371.2v313.6c0 96 70.4 166.4 160 166.4h320c89.6 0 160-70.4 160-166.4V371.2c6.4-89.6-57.6-153.6-140.8-160z m-275.2-32h192c38.4 0 44.8 83.2 44.8 121.6H371.2c0-38.4 12.8-121.6 44.8-121.6z m384 512c0 64-57.6 128-121.6 128h-320c-64 0-121.6-57.6-121.6-128V377.6c0-64 51.2-115.2 102.4-121.6-6.4 19.2-6.4 38.4-6.4 44.8h-25.6v38.4h422.4v-38.4H704c0-6.4 0-25.6-6.4-44.8 51.2 6.4 102.4 64 102.4 121.6v313.6z" fill="#4E8CEE" p-id="3401"></path></svg>