<?xml version="1.0" standalone="no"?><!DOCTYPE svg PUBLIC "-//W3C//DTD SVG 1.1//EN" "http://www.w3.org/Graphics/SVG/1.1/DTD/svg11.dtd"><svg t="1508381370596" class="icon" style="" viewBox="0 0 1024 1024" version="1.1" xmlns="http://www.w3.org/2000/svg" p-id="2483" xmlns:xlink="http://www.w3.org/1999/xlink" width="128" height="128"><defs><style type="text/css"></style></defs><path d="M563.2 364.8H352c-19.2 0-32-12.8-32-25.6s12.8-25.6 32-25.6h211.2c12.8 0 25.6 6.4 25.6 19.2 0 12.8-12.8 32-25.6 32z" fill="#4E8CEE" p-id="2484"></path><path d="M755.2 780.8H153.6V166.4h608l-6.4 614.4z m-550.4-51.2H704v-512H204.8v512z" fill="#4E8CEE" p-id="2485"></path><path d="M883.2 896H320c-12.8 0-25.6-6.4-25.6-25.6s12.8-25.6 25.6-25.6h505.6V281.6c0-12.8 6.4-25.6 25.6-25.6 19.2 0 25.6 6.4 25.6 25.6l6.4 614.4z" fill="#BAD4FF" p-id="2486"></path><path d="M582.4 473.6h-256c-12.8 0-25.6-6.4-25.6-25.6 0-12.8 12.8-25.6 25.6-25.6h256c12.8 0 25.6 6.4 25.6 25.6 6.4 19.2-12.8 25.6-25.6 25.6z" fill="#4E8CEE" p-id="2487"></path><path d="M601.6 537.6H313.6c-6.4 0-6.4 6.4-6.4 6.4v121.6h300.8c6.4 0 6.4-6.4 6.4-6.4V537.6h-12.8z" fill="#BAD4FF" p-id="2488"></path></svg>