<?xml version="1.0" encoding="utf-8"?>
<!-- Generator: Adobe Illustrator 15.0.0, SVG Export Plug-In . SVG Version: 6.00 Build 0)  -->
<!DOCTYPE svg PUBLIC "-//W3C//DTD SVG 1.1//EN" "http://www.w3.org/Graphics/SVG/1.1/DTD/svg11.dtd">
<svg version="1.1" id="图层_1" xmlns="http://www.w3.org/2000/svg" xmlns:xlink="http://www.w3.org/1999/xlink" x="0px" y="0px"
	 width="128px" height="128px" viewBox="0 0 128 128" enable-background="new 0 0 128 128" xml:space="preserve">
<g>
	<path fill="none" d="M33.803,51.409h61.695c2.369,0,4.363-1.994,4.363-4.361c0-2.368-1.994-4.362-4.363-4.362H33.803
		c-2.369,0-4.363,1.994-4.363,4.362C29.44,49.416,31.436,51.409,33.803,51.409z"/>
	<path fill="none" d="M95.467,75.091H33.771c-2.367,0-4.362,1.994-4.362,4.362s1.995,4.362,4.362,4.362h61.695
		c2.369,0,4.363-1.994,4.363-4.362S97.836,75.091,95.467,75.091z"/>
	<path fill="#A0D468" d="M95.467,66.366H33.771c-7.197,0-13.086,5.889-13.086,13.087s5.889,13.086,13.086,13.086h61.695
		c7.199,0,13.087-5.888,13.087-13.086S102.666,66.366,95.467,66.366z M95.467,83.815H33.771c-2.367,0-4.362-1.994-4.362-4.362
		s1.995-4.362,4.362-4.362h61.695c2.369,0,4.363,1.994,4.363,4.362S97.836,83.815,95.467,83.815z"/>
	<path fill="#933EC5" d="M101.728,98.771H87.151c-2.398,0-4.362,1.964-4.362,4.362c0,2.399,1.964,4.362,4.362,4.362h14.576
		c2.399,0,4.362-1.963,4.362-4.362C106.09,100.735,104.127,98.771,101.728,98.771z"/>
	<path fill="#A0D468" d="M26.76,27.729h27.576c2.307,0,4.176-1.87,4.176-4.176v-0.374c0-2.306-1.869-4.175-4.176-4.175H26.76
		c-2.305,0-4.174,1.87-4.174,4.175v0.374C22.586,25.859,24.455,27.729,26.76,27.729z"/>
	<path fill="#A0D468" d="M33.803,60.134h61.695c7.199,0,13.088-5.888,13.088-13.087c0-7.198-5.889-13.087-13.088-13.087H33.803
		c-7.198,0-13.087,5.89-13.087,13.087C20.717,54.246,26.605,60.134,33.803,60.134z M33.803,42.685h61.695
		c2.369,0,4.363,1.994,4.363,4.362s-1.994,4.362-4.363,4.362H33.803c-2.369,0-4.363-1.994-4.363-4.362S31.436,42.685,33.803,42.685z
		"/>
	<path fill="#A0D468" d="M70.949,98.771H56.373c-2.398,0-4.362,1.964-4.362,4.362c0,2.399,1.964,4.362,4.362,4.362h14.577
		c2.399,0,4.362-1.963,4.362-4.362C75.312,100.735,73.349,98.771,70.949,98.771z"/>
</g>
</svg>
