<?xml version="1.0" encoding="utf-8"?>
<!-- Generator: Adobe Illustrator 15.0.0, SVG Export Plug-In . SVG Version: 6.00 Build 0)  -->
<!DOCTYPE svg PUBLIC "-//W3C//DTD SVG 1.1//EN" "http://www.w3.org/Graphics/SVG/1.1/DTD/svg11.dtd">
<svg version="1.1" id="Capa_1" xmlns="http://www.w3.org/2000/svg" xmlns:xlink="http://www.w3.org/1999/xlink" x="0px" y="0px"
	 width="512px" height="512px" viewBox="0 0 512 512" enable-background="new 0 0 512 512" xml:space="preserve">
<g>
	<g>
		<path fill="none" stroke="#A0D468" stroke-width="30" stroke-miterlimit="10" d="M470.28,259.805c0,22.092-17.908,40-40,40H87.301
			c-22.091,0-40-17.908-40-40v-77.492c0-22.091,17.909-40,40-40H430.28c22.092,0,40,17.909,40,40V259.805z"/>
		<g>
			<path fill="#933EC5" d="M373.302,403.17c-5.25,0-9.932-3.129-11.927-7.971l-26.753-63.85l-17.408,16.98
				c-2.423,2.363-5.619,3.663-9.001,3.663c-2.292,0-4.55-0.614-6.528-1.774c-4.979-2.888-7.446-8.839-5.953-14.445l22.985-86.857
				c1.003-3.875,3.803-7.103,7.504-8.648c1.603-0.665,3.273-0.998,4.986-0.998c2.232,0,4.437,0.581,6.373,1.68l78.107,44.579
				c2.515,1.455,4.456,3.688,5.524,6.321c1.046,2.549,1.249,5.412,0.572,8.072c-1.422,5.616-6.469,9.616-12.27,9.717l-24.28,0.501
				l26.773,63.903c1.334,3.155,1.354,6.672,0.045,9.872c-1.301,3.179-3.76,5.665-6.924,7.001l-26.835,11.251
				C376.677,402.838,375.01,403.17,373.302,403.17C373.302,403.17,373.303,403.17,373.302,403.17z"/>
			<path fill="#FFFFFF" d="M331.207,249.271c0.499,0,0.996,0.126,1.439,0.378l78.084,44.565c0.557,0.322,0.987,0.824,1.222,1.411
				c0.235,0.563,0.3,1.207,0.141,1.833c-0.322,1.272-1.46,2.161-2.752,2.184l-39.011,0.804l32.454,77.463
				c0.626,1.48-0.076,3.176-1.545,3.796l-26.812,11.241c-0.368,0.152-0.75,0.225-1.125,0.225c-1.141,0-2.223-0.666-2.682-1.78
				l-32.457-77.464l-27.933,27.246c-0.555,0.541-1.283,0.821-2.019,0.821c-0.503,0-1.01-0.131-1.467-0.399
				c-1.137-0.659-1.688-1.982-1.352-3.248l22.999-86.906c0.22-0.874,0.852-1.598,1.679-1.943
				C330.436,249.346,330.822,249.271,331.207,249.271 M331.207,229.271c-3.035,0-5.994,0.59-8.797,1.752
				c-6.608,2.758-11.578,8.486-13.367,15.361l-22.982,86.845c-2.641,9.919,1.725,20.473,10.624,25.65
				c0.001,0,0.002,0.001,0.002,0.001l0,0c3.497,2.037,7.48,3.113,11.526,3.113c6.005,0,11.68-2.309,15.979-6.501l6.889-6.718
				l21.094,50.344c3.569,8.541,11.85,14.052,21.128,14.052c3.028,0,5.983-0.589,8.784-1.749l0.037-0.016l0.037-0.016l26.812-11.241
				l0.022-0.01l0.023-0.01c5.616-2.371,9.98-6.783,12.289-12.425c2.318-5.668,2.289-11.894-0.082-17.537l-21.087-50.332l9.571-0.196
				c10.292-0.189,19.242-7.288,21.771-17.271c1.197-4.706,0.838-9.785-1.014-14.306c-1.902-4.671-5.348-8.629-9.716-11.157
				l-0.054-0.031l-0.053-0.03l-78.084-44.565l-0.023-0.013l-0.022-0.013C339.076,230.302,335.166,229.271,331.207,229.271
				L331.207,229.271z"/>
		</g>
	</g>
</g>
</svg>
