<?xml version="1.0" encoding="utf-8"?>
<!-- Generator: Adobe Illustrator 15.0.0, SVG Export Plug-In . SVG Version: 6.00 Build 0)  -->
<!DOCTYPE svg PUBLIC "-//W3C//DTD SVG 1.1//EN" "http://www.w3.org/Graphics/SVG/1.1/DTD/svg11.dtd">
<svg version="1.1" id="Layer_1" xmlns="http://www.w3.org/2000/svg" xmlns:xlink="http://www.w3.org/1999/xlink" x="0px" y="0px"
	 width="96px" height="96px" viewBox="0 0 96 96" enable-background="new 0 0 96 96" xml:space="preserve">
<path fill="#A0D468" d="M277.142,102.022h-19.82v-13.14h19.818c0.547,0,1.096-0.547,1.096-1.095s-0.439-1.097-1.096-1.097h-19.818
	v-14.89c0-0.547-0.547-1.095-1.096-1.095c-0.547,0-1.095,0.438-1.095,1.095v14.892h-19.709V71.802c0-0.547-0.547-1.095-1.095-1.095
	s-1.095,0.438-1.095,1.095v14.892h-19.819c-0.547,0-1.095,0.548-1.095,1.097c0,0.547,0.438,1.094,1.095,1.094h19.819v13.139h-19.819
	c-0.547,0-1.095,0.549-1.095,1.097s0.438,1.095,1.095,1.095h19.819v14.893c0,0.549,0.547,1.095,1.095,1.095s1.095-0.438,1.095-1.095
	v-14.894h19.709v14.894c0,0.547,0.548,1.094,1.095,1.094c0.549,0,1.096-0.438,1.096-1.094v-14.894h19.818
	c0.547,0,1.096-0.547,1.096-1.095C278.127,102.571,277.687,102.022,277.142,102.022z M235.422,102.022v-13.14h19.709v13.14H235.422
	L235.422,102.022z"/>
<path fill="#A0D468" d="M279.222,114.616c0,3.941-3.176,7.115-7.117,7.115H218.45c-3.941,0-7.117-3.174-7.117-7.115v-37.23
	c0-3.94,3.176-7.118,7.118-7.118h53.764c3.942,0,7.118,3.176,7.118,7.118v37.23H279.222z M275.937,77.386
	c0-2.079-1.752-3.832-3.832-3.832H218.45c-2.081,0-3.833,1.751-3.833,3.832v37.23c0,2.08,1.752,3.832,3.833,3.832h53.654
	c2.08,0,3.832-1.752,3.832-3.832V77.386z"/>
<path fill="#5DCFAD" d="M272.104,70.27H218.45c-1.534,0-2.738,0.328-3.833,1.094l2.41,2.41c0.438-0.109,0.875-0.22,1.423-0.22
	h53.763c2.081,0,3.614,1.751,3.833,3.395v37.011c0,2.081-1.205,4.489-3.833,4.489h-10.729l3.723,3.283h7.008
	c3.941,0,7.229-3.174,7.118-7.772V76.948C279.222,73.007,276.046,70.27,272.104,70.27z"/>
<g>
	<rect x="22.145" y="46.805" fill="none" width="14.723" height="7.951"/>
	<rect x="59.107" y="34.5" fill="none" width="14.75" height="8.791"/>
	<rect x="22.119" y="58.283" fill="none" width="14.791" height="8.041"/>
	<rect x="40.659" y="58.33" fill="none" width="14.708" height="8.051"/>
	<rect x="40.626" y="34.5" fill="none" width="14.723" height="8.749"/>
	<path fill="none" d="M22.07,42.445c0.009,0.32,0.613,0.895,0.946,0.898c4.57,0.061,9.143,0.041,13.864,0.041V34.5H22.028
		C22.027,37.57,21.999,39.51,22.07,42.445z"/>
	<rect x="40.59" y="46.851" fill="none" width="14.794" height="7.92"/>
	<path fill="none" d="M59.076,46.86c0,3.356,0,4.573,0,8.026c4.825,0,9.482,0.012,14.14-0.031c0.25-0.002,0.711-0.441,0.716-0.684
		c0.048-3.107,0.031-4.217,0.031-7.312H59.076z"/>
	<rect x="59.088" y="58.303" fill="none" width="14.801" height="8"/>
	<path fill="#A0D468" d="M73.857,34.5v8.791h-14.75V34.5h-3.759v8.749H40.626V34.5h-3.745v8.884c-4.722,0-9.294,0.02-13.864-0.041
		c-0.333-0.004-0.938-0.578-0.946-0.898c-0.071-2.935-0.043-4.875-0.042-7.945h-3.794c-0.007,12.305-0.011,19.609-0.001,31.914
		c0.002,2.738,1.073,3.781,3.807,3.781c17.27,0.006,34.54,0.008,51.811,0c2.931,0,3.913-0.996,3.915-3.967
		c0.008-12.243,0.008-19.486,0.008-31.729H73.857z M22.145,46.805h14.723v7.951H22.145V46.805z M36.91,66.324H22.119v-8.041H36.91
		V66.324z M55.367,66.381H40.659V58.33h14.708V66.381z M55.384,54.771H40.59v-7.92h14.794V54.771z M73.889,66.303H59.088v-8h14.801
		V66.303z M73.932,54.172c-0.005,0.242-0.466,0.682-0.716,0.684c-4.657,0.043-9.314,0.031-14.14,0.031c0-3.453,0-4.67,0-8.026
		h14.887C73.963,49.955,73.979,51.064,73.932,54.172z"/>
	<g>
		<path fill="#5DCFAD" d="M77.784,29.06c0-2.933-1.013-3.931-3.966-3.933c-8.561-0.003-17.12-0.001-25.682-0.001
			c-8.71,0-17.419-0.006-26.129,0.003c-2.686,0.003-3.762,1.031-3.765,3.668c-0.002,2.018,0,4.036,0,6.054h59.539
			C77.783,32.921,77.784,30.991,77.784,29.06z"/>
	</g>
</g>
</svg>
