<?xml version="1.0" encoding="utf-8"?>
<!-- Generator: Adobe Illustrator 15.0.0, SVG Export Plug-In . SVG Version: 6.00 Build 0)  -->
<!DOCTYPE svg PUBLIC "-//W3C//DTD SVG 1.1//EN" "http://www.w3.org/Graphics/SVG/1.1/DTD/svg11.dtd">
<svg version="1.1" id="Layer_1" xmlns="http://www.w3.org/2000/svg" xmlns:xlink="http://www.w3.org/1999/xlink" x="0px" y="0px"
	 width="96px" height="96px" viewBox="0 0 96 96" enable-background="new 0 0 96 96" xml:space="preserve">
<path fill="#A0D468" d="M81.271,28.597c-2.525-3.003-7.193-4.229-16.102-4.229H32.83c-9.113,0-13.858,1.305-16.375,4.502
	C14,31.989,14,36.582,14,42.941V55.06c0,12.318,2.912,18.573,18.83,18.573h32.341c7.727,0,12.008-1.082,14.777-3.733
	c2.841-2.717,4.053-7.156,4.053-14.84V42.941C84,36.235,83.811,31.614,81.271,28.597z M58.94,50.675l-14.686,7.673
	c-0.329,0.173-0.688,0.258-1.046,0.258c-0.407,0-0.811-0.109-1.17-0.327c-0.676-0.409-1.087-1.142-1.087-1.931V41.046
	c0-0.789,0.411-1.52,1.085-1.93s1.513-0.438,2.213-0.075l14.687,7.626c0.748,0.389,1.215,1.159,1.217,2.001
	C60.153,49.512,59.688,50.283,58.94,50.675z"/>
</svg>
