<?xml version="1.0" encoding="utf-8"?>
<!-- Generator: Adobe Illustrator 15.0.0, SVG Export Plug-In . SVG Version: 6.00 Build 0)  -->
<!DOCTYPE svg PUBLIC "-//W3C//DTD SVG 1.1//EN" "http://www.w3.org/Graphics/SVG/1.1/DTD/svg11.dtd">
<svg version="1.1" id="图层_1" xmlns="http://www.w3.org/2000/svg" xmlns:xlink="http://www.w3.org/1999/xlink" x="0px" y="0px"
	 width="128px" height="128px" viewBox="0 0 128 128" enable-background="new 0 0 128 128" xml:space="preserve">
<g>
	<path fill="#5DCFAD" d="M113.833,24.934H38.956v11.395H27.562v11.394H16.167v55.344h74.877V91.672h11.395V80.278h11.395V24.934z
		 M87.789,99.811H19.422V50.978h8.139v40.694h60.228V99.811L87.789,99.811z M99.184,88.416H30.817V39.583h8.139v40.695h60.228
		V88.416z M110.577,77.022H42.211V28.189h68.366V77.022z"/>
	<path fill="#5DCFAD" d="M69.883,86.789c0,0.898,0.729,1.627,1.628,1.627s1.627-0.729,1.627-1.627l0,0
		c0.002-0.899-0.726-1.629-1.624-1.631c-0.899-0.001-1.629,0.727-1.631,1.627C69.883,86.786,69.883,86.788,69.883,86.789
		L69.883,86.789z"/>
	<path fill="#5DCFAD" d="M74.767,81.905c-0.001,0.899,0.727,1.629,1.625,1.63c0.899,0.001,1.629-0.727,1.631-1.625
		c0-0.002,0-0.003,0-0.005c0.001-0.898-0.726-1.628-1.626-1.63c-0.899-0.002-1.628,0.727-1.63,1.626
		C74.767,81.902,74.767,81.903,74.767,81.905z"/>
	<path fill="#5DCFAD" d="M79.649,86.789c0,0.898,0.729,1.627,1.629,1.627c0.898,0,1.627-0.729,1.627-1.627l0,0
		c0.002-0.899-0.727-1.629-1.626-1.631c-0.898-0.001-1.629,0.727-1.63,1.627C79.649,86.786,79.649,86.788,79.649,86.789z"/>
	<path fill="#5DCFAD" d="M89.416,86.789c-0.001,0.898,0.727,1.629,1.627,1.63c0.897,0.002,1.628-0.727,1.629-1.625
		c0-0.002,0-0.004,0-0.005c0.002-0.899-0.727-1.629-1.625-1.631c-0.899-0.001-1.629,0.727-1.631,1.627
		C89.416,86.786,89.416,86.788,89.416,86.789z"/>
	<path fill="#5DCFAD" d="M84.533,81.905c0,0.899,0.729,1.628,1.628,1.628s1.628-0.729,1.628-1.628c0-0.898-0.728-1.628-1.626-1.63
		s-1.629,0.727-1.63,1.626C84.533,81.902,84.533,81.903,84.533,81.905z"/>
	<path fill="#5DCFAD" d="M94.3,81.905c0,0.899,0.729,1.628,1.628,1.628c0.898,0,1.627-0.729,1.627-1.628
		c0.001-0.898-0.726-1.628-1.625-1.63c-0.898-0.002-1.628,0.727-1.63,1.626C94.3,81.902,94.3,81.903,94.3,81.905L94.3,81.905z"/>
	<path fill="#5DCFAD" d="M60.117,86.789c0,0.898,0.728,1.627,1.627,1.628s1.628-0.728,1.628-1.627c0-0.001,0-0.001,0-0.001
		c0-0.899-0.728-1.629-1.627-1.629S60.117,85.889,60.117,86.789L60.117,86.789z"/>
	<path fill="#5DCFAD" d="M65,81.905c0,0.899,0.729,1.629,1.627,1.629s1.628-0.729,1.629-1.627c0-0.001,0-0.002,0-0.002
		c0.001-0.898-0.729-1.628-1.627-1.628c-0.899,0-1.629,0.729-1.629,1.626C65,81.903,65,81.904,65,81.905z"/>
	<path fill="#5DCFAD" d="M30.817,86.789c0,0.898,0.728,1.627,1.627,1.628c0.899,0.001,1.628-0.728,1.628-1.627
		c0-0.001,0-0.001,0-0.001c0-0.899-0.728-1.629-1.627-1.629S30.817,85.889,30.817,86.789L30.817,86.789z"/>
	<path fill="#5DCFAD" d="M30.817,77.022c0,0.898,0.728,1.627,1.627,1.628c0.899,0,1.628-0.728,1.628-1.627c0,0,0,0,0-0.001
		c0-0.899-0.728-1.628-1.627-1.63c-0.899,0-1.628,0.729-1.628,1.628C30.817,77.021,30.817,77.022,30.817,77.022z"/>
	<path fill="#5DCFAD" d="M35.7,81.905c0,0.899,0.728,1.629,1.627,1.629s1.628-0.729,1.628-1.627c0-0.001,0-0.002,0-0.002
		c0-0.898-0.728-1.628-1.627-1.628s-1.628,0.729-1.628,1.626C35.7,81.903,35.7,81.904,35.7,81.905z"/>
	<path fill="#5DCFAD" d="M35.7,72.138c0,0.9,0.728,1.63,1.627,1.63c0.899,0.001,1.628-0.729,1.628-1.628c0,0,0,0,0-0.002
		c0-0.897-0.728-1.627-1.627-1.627C36.43,70.51,35.701,71.238,35.7,72.138C35.7,72.138,35.7,72.138,35.7,72.138z"/>
	<path fill="#5DCFAD" d="M40.583,86.789c0,0.898,0.728,1.627,1.627,1.628s1.628-0.728,1.628-1.627c0-0.001,0-0.001,0-0.001
		c0-0.899-0.728-1.629-1.627-1.629S40.584,85.889,40.583,86.789L40.583,86.789z"/>
	<path fill="#5DCFAD" d="M50.35,86.789c0,0.898,0.728,1.627,1.627,1.628s1.628-0.728,1.628-1.627c0-0.001,0-0.001,0-0.001
		c0-0.899-0.728-1.629-1.627-1.629S50.351,85.889,50.35,86.789L50.35,86.789z"/>
	<path fill="#5DCFAD" d="M45.467,81.905c0,0.899,0.728,1.629,1.627,1.629s1.628-0.729,1.628-1.627c0-0.001,0-0.002,0-0.002
		c0-0.898-0.728-1.628-1.627-1.628c-0.899,0-1.628,0.729-1.628,1.626C45.467,81.903,45.467,81.904,45.467,81.905z"/>
	<path fill="#5DCFAD" d="M55.233,81.905c0,0.899,0.728,1.629,1.627,1.629c0.899,0,1.628-0.729,1.628-1.627c0-0.001,0-0.002,0-0.002
		c0-0.898-0.728-1.628-1.627-1.628s-1.628,0.729-1.628,1.626C55.233,81.903,55.233,81.904,55.233,81.905z"/>
	<path fill="#5DCFAD" d="M30.817,67.256c0,0.899,0.728,1.627,1.627,1.627c0.899,0.001,1.628-0.727,1.628-1.626c0,0,0,0,0-0.001
		c0-0.9-0.728-1.629-1.627-1.629s-1.628,0.728-1.628,1.627C30.817,67.255,30.817,67.255,30.817,67.256z"/>
	<path fill="#5DCFAD" d="M30.817,57.489c0,0.899,0.728,1.628,1.627,1.629c0.899,0,1.628-0.728,1.628-1.627c0-0.001,0-0.001,0-0.002
		c0-0.899-0.728-1.628-1.627-1.628s-1.628,0.728-1.628,1.627C30.817,57.488,30.817,57.488,30.817,57.489z"/>
	<path fill="#5DCFAD" d="M35.7,62.372c0,0.899,0.728,1.628,1.627,1.629c0.899,0,1.628-0.728,1.628-1.627c0,0,0-0.001,0-0.002
		c0-0.899-0.728-1.628-1.627-1.628s-1.628,0.728-1.628,1.627C35.7,62.371,35.7,62.372,35.7,62.372z"/>
	<path fill="#5DCFAD" d="M35.7,52.605c0,0.899,0.728,1.628,1.627,1.629c0.899,0,1.628-0.728,1.628-1.627c0-0.001,0-0.001,0-0.002
		c0-0.899-0.728-1.627-1.627-1.628c-0.899,0-1.628,0.728-1.628,1.627C35.7,52.605,35.7,52.605,35.7,52.605z"/>
	<path fill="#5DCFAD" d="M30.817,47.722c0,0.899,0.728,1.628,1.627,1.628c0.899,0,1.628-0.728,1.628-1.626c0-0.001,0-0.001,0-0.002
		c0-0.899-0.728-1.628-1.627-1.628s-1.628,0.728-1.628,1.627C30.817,47.722,30.817,47.722,30.817,47.722z"/>
	<path fill="#5DCFAD" d="M35.7,42.839c0,0.899,0.728,1.628,1.627,1.629s1.628-0.728,1.628-1.627c0,0,0-0.001,0-0.002
		c0-0.899-0.728-1.628-1.627-1.628s-1.628,0.728-1.628,1.627C35.7,42.838,35.7,42.839,35.7,42.839z"/>
</g>
<path fill="#FF725C" d="M103.915,35.107l-4.06,4.06l4.06,4.06l-1.023,1.023l-4.06-4.059l-4.059,4.059l-1.023-1.023l4.06-4.06
	l-4.06-4.06l1.023-1.023l4.059,4.06l4.06-4.06L103.915,35.107z"/>
</svg>
