<?xml version="1.0" encoding="utf-8"?>
<!-- Generator: Adobe Illustrator 15.0.0, SVG Export Plug-In . SVG Version: 6.00 Build 0)  -->
<!DOCTYPE svg PUBLIC "-//W3C//DTD SVG 1.1//EN" "http://www.w3.org/Graphics/SVG/1.1/DTD/svg11.dtd">
<svg version="1.1" id="Layer_1" xmlns="http://www.w3.org/2000/svg" xmlns:xlink="http://www.w3.org/1999/xlink" x="0px" y="0px"
	 width="96px" height="96px" viewBox="0 0 96 96" enable-background="new 0 0 96 96" xml:space="preserve">
<path fill="#A0D468" d="M90.874,20.893c-3.355-3.99-9.555-5.618-21.392-5.618H26.516c-12.107,0-18.411,1.733-21.755,5.981
	C1.5,25.399,1.5,31.502,1.5,39.95v16.101c0,16.365,3.869,24.675,25.016,24.675h42.968c10.265,0,15.953-1.438,19.633-4.96
	c3.774-3.61,5.384-9.507,5.384-19.715V39.95C94.5,31.041,94.248,24.902,90.874,20.893z M61.206,50.224L41.695,60.419
	c-0.437,0.23-0.914,0.342-1.39,0.342c-0.54,0-1.077-0.145-1.554-0.435c-0.898-0.543-1.445-1.516-1.445-2.564V37.433
	c0-1.048,0.546-2.02,1.442-2.564c0.896-0.544,2.01-0.582,2.94-0.099l19.511,10.131c0.994,0.516,1.616,1.541,1.618,2.659
	C62.819,48.68,62.198,49.705,61.206,50.224z"/>
</svg>
