<?xml version="1.0" encoding="utf-8"?>
<!-- Generator: Adobe Illustrator 15.0.0, SVG Export Plug-In . SVG Version: 6.00 Build 0)  -->
<!DOCTYPE svg PUBLIC "-//W3C//DTD SVG 1.1//EN" "http://www.w3.org/Graphics/SVG/1.1/DTD/svg11.dtd">
<svg version="1.1" id="Layer_1" xmlns="http://www.w3.org/2000/svg" xmlns:xlink="http://www.w3.org/1999/xlink" x="0px" y="0px"
	 width="96px" height="96px" viewBox="0 0 96 96" enable-background="new 0 0 96 96" xml:space="preserve">
<path fill="#AC92EB" d="M76.863,32.1L69.5,24.738c-1.017-1.016-2.663-1.015-3.681,0L49,41.558l-9.459,9.459l-7.361-7.362
	c-0.488-0.487-1.15-0.761-1.84-0.761c-0.689,0-1.352,0.274-1.84,0.762l-7.361,7.361c-1.017,1.017-1.017,2.665,0,3.682l16.563,16.563
	c0.488,0.49,1.149,0.763,1.84,0.763c0.69,0,1.353-0.276,1.84-0.763L49,63.643L76.863,35.78c0.49-0.489,0.763-1.151,0.763-1.84
	C77.626,33.25,77.351,32.587,76.863,32.1z"/>
<path fill="#933EC5" d="M37.701,71.263c0.488,0.489,1.149,0.762,1.84,0.762c0.69,0,1.353-0.273,1.84-0.762L49,63.643V41.558
	l-9.459,9.459l-7.361-7.362c-0.488-0.487-1.149-0.762-1.84-0.762c-0.689,0-1.352,0.275-1.84,0.762l-7.361,7.362
	c-1.017,1.017-1.017,2.665,0,3.682L37.701,71.263z"/>
</svg>
