<?xml version="1.0" encoding="utf-8"?>
<!-- Generator: Adobe Illustrator 15.0.0, SVG Export Plug-In . SVG Version: 6.00 Build 0)  -->
<!DOCTYPE svg PUBLIC "-//W3C//DTD SVG 1.1//EN" "http://www.w3.org/Graphics/SVG/1.1/DTD/svg11.dtd">
<svg version="1.1" id="图层_1" xmlns="http://www.w3.org/2000/svg" xmlns:xlink="http://www.w3.org/1999/xlink" x="0px" y="0px"
	 width="135.5px" height="128px" viewBox="0 0 135.5 128" enable-background="new 0 0 135.5 128" xml:space="preserve">
<path fill="#5DA4FF" d="M20.503,88.779h93.61c1.521-0.002,2.756,1.229,2.757,2.752c0.001,1.521-1.231,2.754-2.751,2.755
	c-0.001,0-0.003,0-0.006,0h-93.61c-1.521,0.001-2.754-1.229-2.755-2.751s1.23-2.754,2.751-2.756
	C20.5,88.779,20.501,88.779,20.503,88.779z M20.503,105.3h93.61c1.521-0.002,2.756,1.229,2.757,2.751
	c0.001,1.52-1.231,2.754-2.751,2.756c-0.001,0-0.003,0-0.006,0h-93.61c-1.521,0.002-2.754-1.23-2.755-2.752
	c-0.001-1.521,1.23-2.754,2.751-2.755C20.5,105.3,20.501,105.3,20.503,105.3z M86.582,72.26h27.531c1.521,0,2.756,1.23,2.757,2.751
	c0.001,1.521-1.231,2.755-2.751,2.757c-0.001,0-0.003,0-0.006,0H86.582c-1.521,0-2.755-1.23-2.756-2.752
	c-0.001-1.521,1.23-2.755,2.751-2.756C86.579,72.26,86.58,72.26,86.582,72.26z M86.582,55.74h27.531
	c1.521-0.001,2.756,1.23,2.757,2.751s-1.231,2.754-2.751,2.756c-0.001,0-0.003,0-0.006,0H86.582c-1.521,0-2.755-1.231-2.756-2.751
	s1.23-2.754,2.751-2.755C86.579,55.74,86.58,55.74,86.582,55.74z M86.582,39.221h27.531c1.521-0.001,2.756,1.23,2.757,2.751
	s-1.231,2.754-2.751,2.755c-0.001,0-0.003,0-0.006,0H86.582c-1.521,0.001-2.755-1.23-2.756-2.751s1.23-2.754,2.751-2.755
	C86.579,39.221,86.58,39.221,86.582,39.221z M86.582,22.701h27.531c1.521,0,2.754,1.233,2.754,2.753
	c0,1.521-1.231,2.753-2.754,2.753l0,0H86.582c-1.521,0-2.753-1.232-2.753-2.753C83.829,23.934,85.061,22.701,86.582,22.701z
	 M47.045,17.194h2.687l21.31,54.295c0.854,2.19,2.604,3.286,5.254,3.286h1.845v3.008H54.462v-3.008h1.889
	c2.461,0,4.202-0.27,5.215-0.803c0.661-0.315,1.072-0.992,1.046-1.725c-0.007-0.495-0.103-0.986-0.281-1.448l-4.934-12.599H33.961
	l-2.775,7.23c-0.721,1.928-1.085,3.451-1.085,4.569c0,1.315,0.606,2.438,1.829,3.375c1.217,0.937,2.99,1.403,5.313,1.403h2.01v3.008
	H17.75v-3.008c2.302,0,4.119-0.5,5.457-1.502c1.338-1.008,2.566-2.912,3.689-5.721L47.045,17.194z M45.877,28.631L35.25,55.074
	h20.98L45.877,28.631z"/>
</svg>
