<?xml version="1.0" encoding="utf-8"?>
<!-- Generator: Adobe Illustrator 15.0.0, SVG Export Plug-In . SVG Version: 6.00 Build 0)  -->
<!DOCTYPE svg PUBLIC "-//W3C//DTD SVG 1.1//EN" "http://www.w3.org/Graphics/SVG/1.1/DTD/svg11.dtd">
<svg version="1.1" id="Capa_1" xmlns="http://www.w3.org/2000/svg" xmlns:xlink="http://www.w3.org/1999/xlink" x="0px" y="0px"
	 width="512px" height="512px" viewBox="0 0 512 512" enable-background="new 0 0 512 512" xml:space="preserve">
<g>
	<path fill="#AC92EB" d="M255.386,146.863l-29.718-44.559H110.329L53.55,187.468V407.5h406.927V178.604 M435.045,382.066H78.983
		V195.161l44.953-67.422h88.125l50.865,76.298h172.119V382.066L435.045,382.066z"/>
	<polygon fill="#FFDF63" points="275.536,178.893 460.875,178.747 405.274,101.666 287.854,101.666 255.23,147.019 	"/>
	<polygon fill="#AC92EB" points="110.329,102.304 53.55,187.468 53.55,407.5 460.477,407.5 460.875,178.747 275.536,178.893 
		225.668,102.304 	"/>
	<polygon fill="#C745A3" points="110.329,102.304 53.55,187.468 53.55,407.5 262.834,407.833 390.833,178.833 275.536,178.893 
		225.668,102.304 	"/>
</g>
</svg>
