<?xml version="1.0" encoding="utf-8"?>
<!-- Generator: Adobe Illustrator 15.0.0, SVG Export Plug-In . SVG Version: 6.00 Build 0)  -->
<!DOCTYPE svg PUBLIC "-//W3C//DTD SVG 1.1//EN" "http://www.w3.org/Graphics/SVG/1.1/DTD/svg11.dtd">
<svg version="1.1" id="Layer_1" xmlns="http://www.w3.org/2000/svg" xmlns:xlink="http://www.w3.org/1999/xlink" x="0px" y="0px"
	 width="96px" height="96px" viewBox="0 0 96 96" enable-background="new 0 0 96 96" xml:space="preserve">
<g>
	<path fill="#44A4EC" d="M25.391,36.133c-4.25,0-7.708-3.457-7.708-7.706c0-4.249,3.458-7.707,7.708-7.707
		c4.249,0,7.707,3.458,7.707,7.707C33.098,32.677,29.64,36.133,25.391,36.133z"/>
	<path fill="#FFAE42" d="M25.391,55.707c-4.25,0-7.708-3.458-7.708-7.707c0-4.25,3.458-7.707,7.708-7.707
		c4.249,0,7.707,3.458,7.707,7.707C33.098,52.249,29.64,55.707,25.391,55.707z"/>
	<path fill="#A0D468" d="M25.391,75.279c-4.25,0-7.708-3.457-7.708-7.707c0-4.249,3.458-7.707,7.708-7.707
		c4.249,0,7.707,3.458,7.707,7.707C33.098,71.822,29.64,75.279,25.391,75.279z"/>
</g>
<g>
	<path fill="#4DB5FF" d="M74.566,34.177H43.006c-3.17,0-5.749-2.579-5.749-5.75s2.578-5.75,5.749-5.75h31.561
		c3.171,0,5.75,2.58,5.75,5.75S77.737,34.177,74.566,34.177z"/>
	<path fill="#FFAE42" d="M74.566,53.749H43.006c-3.17,0-5.749-2.579-5.749-5.749s2.578-5.75,5.749-5.75h31.561
		c3.171,0,5.75,2.579,5.75,5.75S77.737,53.749,74.566,53.749z"/>
	<path fill="#A0D468" d="M74.566,73.322H43.006c-3.17,0-5.749-2.579-5.749-5.75c0-3.17,2.578-5.749,5.749-5.749h31.561
		c3.171,0,5.75,2.579,5.75,5.749C80.316,70.743,77.737,73.322,74.566,73.322z"/>
</g>
</svg>
