<?xml version="1.0" encoding="utf-8"?>
<!-- Generator: Adobe Illustrator 15.0.0, SVG Export Plug-In . SVG Version: 6.00 Build 0)  -->
<!DOCTYPE svg PUBLIC "-//W3C//DTD SVG 1.1//EN" "http://www.w3.org/Graphics/SVG/1.1/DTD/svg11.dtd">
<svg version="1.1" id="Capa_1" xmlns="http://www.w3.org/2000/svg" xmlns:xlink="http://www.w3.org/1999/xlink" x="0px" y="0px"
	 width="512px" height="512px" viewBox="0 0 512 512" enable-background="new 0 0 512 512" xml:space="preserve">
<g>
	<path fill="#AC92EB" d="M431.961,216.091c0.3-2.993,0.454-6.04,0.454-9.11c0-50.36-40.817-91.201-91.188-91.201
		c-37.071,0-68.979,22.155-83.231,53.929c-14.252-31.785-46.16-53.929-83.231-53.929c-50.36,0-91.178,40.84-91.178,91.201
		c0,3.07,0.155,6.117,0.443,9.11c0,0,1.784,89.792,175.085,180.13l0,0C432.394,305.883,431.961,216.091,431.961,216.091z
		 M177.356,135.874c8.279,0,14.973,6.694,14.973,14.962s-6.694,14.962-14.973,14.962c-8.278,0-14.939-6.683-14.939-14.962
		C162.405,142.579,169.088,135.874,177.356,135.874z M130.587,247.821c-1.397,0.388-2.815,0.576-4.189,0.576
		c-6.838,0-13.111-4.533-15.028-11.426c-2.35-8.368-3.458-16.059-3.746-23.063c-1.396-36.872,21.324-55.004,22.454-55.901
		c6.827-5.275,16.635-4.034,21.888,2.782c5.253,6.75,4.067,16.403-2.538,21.722c-0.809,0.676-10.662,9.531-10.596,28.483
		c0.034,5.109,0.765,10.95,2.594,17.588C143.742,236.904,138.876,245.504,130.587,247.821z"/>
</g>
</svg>
