<?xml version="1.0" encoding="utf-8"?>
<!-- Generator: Adobe Illustrator 15.0.0, SVG Export Plug-In . SVG Version: 6.00 Build 0)  -->
<!DOCTYPE svg PUBLIC "-//W3C//DTD SVG 1.1//EN" "http://www.w3.org/Graphics/SVG/1.1/DTD/svg11.dtd">
<svg version="1.1" id="Capa_1" xmlns="http://www.w3.org/2000/svg" xmlns:xlink="http://www.w3.org/1999/xlink" x="0px" y="0px"
	 width="512px" height="512px" viewBox="0 0 512 512" enable-background="new 0 0 512 512" xml:space="preserve">
<g>
	<path fill="#FF725C" d="M416.833,219.791c0.271-2.715,0.411-5.48,0.411-8.266c0-45.691-37.032-82.745-82.733-82.745
		c-33.634,0-62.584,20.101-75.514,48.929c-12.93-28.838-41.88-48.929-75.515-48.929c-45.691,0-82.725,37.054-82.725,82.745
		c0,2.786,0.141,5.55,0.401,8.266c0,0,1.619,81.467,158.853,163.43l0,0C417.226,301.258,416.833,219.791,416.833,219.791z
		 M185.832,147.011c7.512,0,13.585,6.073,13.585,13.575s-6.074,13.575-13.585,13.575c-7.51,0-13.553-6.063-13.553-13.575
		C172.267,153.095,178.331,147.011,185.832,147.011z M143.4,248.579c-1.268,0.352-2.554,0.523-3.801,0.523
		c-6.204,0-11.895-4.113-13.634-10.367c-2.132-7.592-3.137-14.57-3.399-20.925c-1.267-33.454,19.347-49.905,20.373-50.719
		c6.193-4.786,15.093-3.66,19.858,2.524c4.766,6.124,3.69,14.882-2.303,19.708c-0.733,0.613-9.673,8.647-9.613,25.842
		c0.031,4.635,0.694,9.935,2.353,15.958C155.336,238.674,150.921,246.477,143.4,248.579z"/>
</g>
</svg>
