<?xml version="1.0" encoding="utf-8"?>
<!-- Generator: Adobe Illustrator 15.0.0, SVG Export Plug-In . SVG Version: 6.00 Build 0)  -->
<!DOCTYPE svg PUBLIC "-//W3C//DTD SVG 1.1//EN" "http://www.w3.org/Graphics/SVG/1.1/DTD/svg11.dtd">
<svg version="1.1" id="Capa_1" xmlns="http://www.w3.org/2000/svg" xmlns:xlink="http://www.w3.org/1999/xlink" x="0px" y="0px"
	 width="512px" height="512px" viewBox="0 0 512 512" enable-background="new 0 0 512 512" xml:space="preserve">
<g>
	<g>
		<path fill="#A0D468" d="M148.743,387.952c15.663,17.071,38.015,26.927,61.158,26.927h190.865
			c38.896,0,70.573-31.679,70.573-70.574V167.696c0-38.895-31.679-70.574-70.573-70.574H209.901
			c-23.231,0-45.495,9.768-61.158,26.927l-98.38,107.092c-12.936,14.167-12.936,35.462,0,49.63L148.743,387.952z M66.29,245.749
			l98.38-107.18c11.616-12.671,28.159-19.887,45.318-19.887h190.866c27.018,0,49.017,22,49.017,49.015v176.521
			c0,27.015-21.999,49.017-49.017,49.017H209.901c-17.16,0-33.703-7.217-45.318-19.889L66.29,266.164
			C60.922,260.355,60.922,251.557,66.29,245.749z"/>
		<path fill="#FFAE42" d="M239.027,313.242c2.112,2.111,4.84,3.168,7.656,3.168c2.815,0,5.543-1.057,7.655-3.168L296.4,271.18
			l42.063,42.063c2.111,2.11,4.839,3.168,7.654,3.168c2.813,0,5.544-1.058,7.652-3.168c4.228-4.226,4.228-10.999,0-15.224
			l-42.147-42.063l42.063-42.063c4.228-4.224,4.228-11,0-15.224c-4.223-4.224-10.998-4.224-15.222,0L296.4,240.732l-42.063-42.063
			c-4.224-4.224-11-4.224-15.223,0c-4.224,4.224-4.224,11,0,15.224l42.062,42.063l-42.063,42.063
			C234.892,302.243,234.892,309.018,239.027,313.242z"/>
	</g>
</g>
</svg>
