<?xml version="1.0" encoding="utf-8"?>
<!-- Generator: Adobe Illustrator 15.0.0, SVG Export Plug-In . SVG Version: 6.00 Build 0)  -->
<!DOCTYPE svg PUBLIC "-//W3C//DTD SVG 1.1//EN" "http://www.w3.org/Graphics/SVG/1.1/DTD/svg11.dtd">
<svg version="1.1" id="图层_1" xmlns="http://www.w3.org/2000/svg" xmlns:xlink="http://www.w3.org/1999/xlink" x="0px" y="0px"
	 width="128px" height="128px" viewBox="0 0 128 128" enable-background="new 0 0 128 128" xml:space="preserve">
<path fill="#5DCFAD" d="M94.848,59.921c1.483,0,2.854,0.61,2.854,0.61c2.089,0.93,3.799,2.314,3.799,0.028V44.121
	c0-2.287-1.869-4.158-4.158-4.158H80.903c-2.285,0-0.345-1.807,0.251-4.015c0,0,0.387-1.44,0.387-2.638
	c0-5.97-4.84-10.81-10.81-10.81c-5.971,0-10.811,4.84-10.811,10.81c0,1.394,0.351,2.649,0.351,2.649
	c0.615,2.202,2.574,4.004,0.287,4.004H44.121c-2.287,0-4.158,1.872-4.158,4.158V61.39c0,2.287-1.719,0.094-3.821-0.809
	c0,0-1.54-0.66-2.833-0.66c-5.97,0-10.81,4.839-10.81,10.81c0,5.972,4.84,10.812,10.81,10.812c1.054,0,2.807-0.721,2.807-0.721
	c2.116-0.87,3.847-3.036,3.847-0.749v17.27c0,2.286,1.871,4.158,4.158,4.158h16.438c2.286,0,0.899-1.709-0.033-3.797
	c0,0-0.605-1.355-0.605-2.855c0-5.971,4.84-10.812,10.811-10.812c5.97,0,10.81,4.841,10.81,10.812c0,1.604-0.575,2.869-0.575,2.869
	c-0.949,2.081-2.349,3.783-0.063,3.783h16.438c2.289,0,4.159-1.872,4.159-4.158V80.903c0-2.286-1.712-0.906-3.804,0.017
	c0,0-1.408,0.622-2.849,0.622c-5.971,0-10.812-4.84-10.812-10.811C84.037,64.76,88.877,59.921,94.848,59.921z"/>
</svg>
