<?xml version="1.0" encoding="utf-8"?>
<!-- Generator: Adobe Illustrator 15.0.0, SVG Export Plug-In . SVG Version: 6.00 Build 0)  -->
<!DOCTYPE svg PUBLIC "-//W3C//DTD SVG 1.1//EN" "http://www.w3.org/Graphics/SVG/1.1/DTD/svg11.dtd">
<svg version="1.1" id="图层_1" xmlns="http://www.w3.org/2000/svg" xmlns:xlink="http://www.w3.org/1999/xlink" x="0px" y="0px"
	 width="128px" height="128px" viewBox="0 0 128 128" enable-background="new 0 0 128 128" xml:space="preserve">
<path fill="#439DFF" d="M102.797,88.65c0,6.262-5.076,11.338-11.339,11.338H38.926c-6.262,0-11.338-5.076-11.338-11.338V36.118
	c0-6.262,5.077-11.338,11.338-11.338h52.532c6.263,0,11.339,5.077,11.339,11.338V88.65z"/>
<path fill="#FFFFFF" d="M87.167,103.09c10.629,0,19.245-8.617,19.245-19.246s-8.616-19.246-19.245-19.246
	c-10.63,0-19.246,8.617-19.246,19.246S76.537,103.09,87.167,103.09L87.167,103.09z M87.167,99.24
	c-8.504,0-15.397-6.893-15.397-15.396s6.895-15.396,15.397-15.396s15.396,6.895,15.396,15.396
	C102.564,92.348,95.67,99.24,87.167,99.24L87.167,99.24z"/>
<path fill="#FFFFFF" d="M76.184,86.205l5.442,5.443c1.505,1.504,3.937,1.508,5.444-0.002l11.147-11.148
	c0.752-0.75,0.752-1.969,0-2.721c-0.751-0.752-1.97-0.752-2.722,0L84.35,88.924c-0.005,0.006,0.002,0.006,0,0.002l-5.445-5.443
	c-0.752-0.752-1.971-0.752-2.721,0C75.432,84.234,75.432,85.453,76.184,86.205L76.184,86.205z"/>
<path fill="#FFFFFF" d="M88.821,53.056c0,1.473-1.194,2.667-2.667,2.667H43.846c-1.473,0-2.667-1.194-2.667-2.667l0,0
	c0-1.473,1.194-2.667,2.667-2.667h42.309C87.627,50.39,88.821,51.583,88.821,53.056L88.821,53.056z"/>
<path fill="#FFFFFF" d="M88.821,40.89c0,1.474-1.194,2.667-2.667,2.667H43.846c-1.473,0-2.667-1.193-2.667-2.667l0,0
	c0-1.473,1.194-2.667,2.667-2.667h42.309C87.627,38.223,88.821,39.417,88.821,40.89L88.821,40.89z"/>
</svg>
