<?xml version="1.0" encoding="utf-8"?>
<!-- Generator: Adobe Illustrator 15.0.0, SVG Export Plug-In . SVG Version: 6.00 Build 0)  -->
<!DOCTYPE svg PUBLIC "-//W3C//DTD SVG 1.1//EN" "http://www.w3.org/Graphics/SVG/1.1/DTD/svg11.dtd">
<svg version="1.1" id="图层_1" xmlns="http://www.w3.org/2000/svg" xmlns:xlink="http://www.w3.org/1999/xlink" x="0px" y="0px"
	 width="128px" height="128px" viewBox="0 0 128 128" enable-background="new 0 0 128 128" xml:space="preserve">
<g>
	<g>
		<path fill="#5DA4FF" d="M373.174,103.418h-9.563l-3.801-9.889h-17.402l-3.594,9.889h-9.329l16.958-43.535h9.295L373.174,103.418z
			 M356.987,86.195l-5.998-16.158l-5.881,16.156h11.879V86.195z"/>
	</g>
	<rect x="294.255" y="47.1" fill="#5DA4FF" width="71.625" height="6.125"/>
	<rect x="294.255" y="72.197" fill="#5DA4FF" width="36.125" height="6.125"/>
	<rect x="294.255" y="97.293" fill="#5DA4FF" width="26.375" height="6.125"/>
</g>
<path fill="#5DA4FF" d="M35.053,57.796l19.313,0.014l2.944,5.887c1.018,1.998,3.462,2.793,5.459,1.775
	c1.976-1.007,2.777-3.413,1.803-5.403L48.336,27.598c-1.496-2.993-5.763-2.993-7.261,0L24.839,60.069
	c-0.986,2.013-0.154,4.444,1.859,5.431c1.99,0.977,4.396,0.174,5.402-1.803L35.053,57.796z M50.307,49.688l-11.194-0.006
	l5.597-11.187L50.307,49.688z M73.117,61.884c0-2.243,1.816-4.059,4.048-4.059h24.377c2.235,0,4.048,1.802,4.048,4.059
	c0,2.243-1.816,4.06-4.048,4.06H77.165c-2.232,0.002-4.044-1.807-4.048-4.039C73.117,61.897,73.117,61.891,73.117,61.884z
	 M24.41,78.12c0-2.243,1.811-4.06,4.054-4.06h73.072c2.239,0,4.054,1.803,4.054,4.06c0,2.242-1.811,4.058-4.054,4.058H28.464
	c-2.236,0.004-4.05-1.805-4.054-4.04C24.41,78.132,24.41,78.126,24.41,78.12z M24.41,94.354c0-2.242,1.811-4.058,4.054-4.058h73.072
	c2.239,0,4.054,1.802,4.054,4.058c0,2.243-1.811,4.06-4.054,4.06H28.464c-2.236,0.003-4.05-1.806-4.054-4.041
	C24.41,94.367,24.41,94.361,24.41,94.354z M73.117,45.648c0-2.242,1.816-4.059,4.048-4.059h24.377c2.235,0,4.048,1.802,4.048,4.059
	c0,2.243-1.816,4.059-4.048,4.059H77.165c-2.232,0.002-4.044-1.806-4.048-4.039C73.117,45.662,73.117,45.655,73.117,45.648z
	 M73.117,29.413c0-2.243,1.816-4.059,4.048-4.059h24.377c2.235,0,4.048,1.802,4.048,4.059c0,2.243-1.816,4.059-4.048,4.059H77.165
	c-2.232,0.002-4.044-1.806-4.048-4.039C73.117,29.426,73.117,29.419,73.117,29.413z"/>
</svg>
