<?xml version="1.0" encoding="utf-8"?>
<!-- Generator: Adobe Illustrator 15.0.0, SVG Export Plug-In . SVG Version: 6.00 Build 0)  -->
<!DOCTYPE svg PUBLIC "-//W3C//DTD SVG 1.1//EN" "http://www.w3.org/Graphics/SVG/1.1/DTD/svg11.dtd">
<svg version="1.1" id="Capa_1" xmlns="http://www.w3.org/2000/svg" xmlns:xlink="http://www.w3.org/1999/xlink" x="0px" y="0px"
	 width="512px" height="512px" viewBox="0 0 512 512" enable-background="new 0 0 512 512" xml:space="preserve">
<path fill="#FFAE42" d="M380.888,171.704H264.622c-0.068-0.908-0.303-1.816-0.706-2.689l-18.587-40.167
	c-1.313-2.857-4.17-4.673-7.329-4.673H131.147c-14.286,0-25.916,11.63-25.916,25.916v45.746c0,0.236,0,0.438,0.034,0.64
	c0,0.369-0.034,0.739-0.034,1.142v154.62c0,14.284,11.63,25.911,25.916,25.911h249.707c14.285,0,25.916-11.627,25.916-25.911
	v-154.62C406.804,183.333,395.173,171.704,380.888,171.704z M390.669,352.238c0,5.377-4.403,9.777-9.781,9.777H131.147
	c-5.378,0-9.781-4.4-9.781-9.777v-154.62c0-5.378,4.403-9.78,9.781-9.78h249.707c5.378,0,9.781,4.402,9.781,9.78v154.62H390.669z"/>
<path fill="#FFAE42" d="M394.5,359.831c0,3.131-2.538,5.669-5.669,5.669H123.17c-3.131,0-5.669-2.538-5.669-5.669V186.169
	c0-3.131,2.538-5.669,5.669-5.669h265.662c3.131,0,5.669,2.538,5.669,5.669V359.831z"/>
</svg>
