<?xml version="1.0" encoding="utf-8"?>
<!-- Generator: Adobe Illustrator 15.0.0, SVG Export Plug-In . SVG Version: 6.00 Build 0)  -->
<!DOCTYPE svg PUBLIC "-//W3C//DTD SVG 1.1//EN" "http://www.w3.org/Graphics/SVG/1.1/DTD/svg11.dtd">
<svg version="1.1" id="Layer_1" xmlns="http://www.w3.org/2000/svg" xmlns:xlink="http://www.w3.org/1999/xlink" x="0px" y="0px"
	 width="96px" height="96px" viewBox="0 0 96 96" enable-background="new 0 0 96 96" xml:space="preserve">
<path fill="#A0D468" d="M268.271,9.597c-2.525-3.003-7.193-4.229-16.104-4.229H219.83c-9.113,0-13.857,1.305-16.375,4.502
	C201,12.989,201,15.582,201,21.941v12.12c0,12.317,2.912,16.572,18.83,16.572h32.341c7.728,0,12.009-1.082,14.776-3.732
	c2.842-2.717,4.054-5.155,4.054-12.84v-12.12C271,15.235,270.811,12.614,268.271,9.597z M245.939,29.675l-14.688,7.673
	c-0.329,0.174-0.688,0.258-1.046,0.258c-0.407,0-0.812-0.107-1.17-0.325c-0.677-0.409-1.087-1.144-1.087-1.933V20.046
	c0-0.789,0.41-1.52,1.085-1.93c0.674-0.41,1.513-0.438,2.213-0.075l14.688,7.626c0.748,0.389,1.215,1.159,1.217,2.001
	C247.152,28.512,246.688,29.283,245.939,29.675z"/>
<path fill="#A0D468" d="M85.377,46.726c0,9.258-7.504,16.762-16.762,16.762H28.139c-9.257,0-16.762-7.504-16.762-16.762l0,0
	c0-9.258,7.505-16.762,16.762-16.762h40.476C77.873,29.964,85.377,37.468,85.377,46.726L85.377,46.726z"/>
<g>
	<path fill="#FFFFFF" d="M34.664,53.828v-14.7h5.22c1.6,0,2.835,0.304,3.701,0.911c0.866,0.607,1.3,1.449,1.3,2.525
		c0,0.797-0.27,1.497-0.807,2.097c-0.538,0.601-1.215,1.015-2.03,1.243v0.038c1.024,0.127,1.852,0.506,2.481,1.139
		c0.629,0.632,0.945,1.427,0.945,2.381c0,1.336-0.475,2.397-1.424,3.185c-0.948,0.787-2.246,1.182-3.891,1.182L34.664,53.828
		L34.664,53.828z M37.795,41.462v3.635h1.49c0.714,0,1.278-0.171,1.689-0.513c0.411-0.341,0.617-0.819,0.617-1.432
		c0-1.126-0.823-1.689-2.467-1.689H37.795z M37.795,47.46v4.033h1.86c0.791,0,1.41-0.183,1.854-0.551
		c0.446-0.365,0.669-0.875,0.669-1.526c0-0.62-0.222-1.102-0.665-1.443c-0.443-0.342-1.072-0.513-1.889-0.513H37.795z"/>
	<path fill="#FFFFFF" d="M53.823,53.704c-0.462,0.252-1.161,0.38-2.098,0.38c-2.227,0-3.34-1.171-3.34-3.511V45.62h-1.728v-2.287
		h1.728v-2.306l3.047-0.873v3.179h2.391v2.287h-2.391v4.422c0,1.118,0.443,1.679,1.329,1.679c0.341,0,0.696-0.101,1.062-0.304
		V53.704z"/>
	<path fill="#FFFFFF" d="M65.667,53.828H62.62v-5.856c0-1.696-0.61-2.543-1.831-2.543c-0.582,0-1.066,0.227-1.451,0.678
		c-0.387,0.453-0.579,1.03-0.579,1.733v5.988h-3.065V43.332h3.065v1.67h0.037c0.766-1.285,1.892-1.927,3.378-1.927
		c2.329,0,3.492,1.443,3.492,4.328L65.667,53.828L65.667,53.828z"/>
</g>
</svg>
