<?xml version="1.0" encoding="utf-8"?>
<!-- Generator: Adobe Illustrator 15.0.0, SVG Export Plug-In . SVG Version: 6.00 Build 0)  -->
<!DOCTYPE svg PUBLIC "-//W3C//DTD SVG 1.1//EN" "http://www.w3.org/Graphics/SVG/1.1/DTD/svg11.dtd">
<svg version="1.1" id="Layer_1" xmlns="http://www.w3.org/2000/svg" xmlns:xlink="http://www.w3.org/1999/xlink" x="0px" y="0px"
	 width="96px" height="96px" viewBox="0 0 96 96" enable-background="new 0 0 96 96" xml:space="preserve">
<g>
	<path fill="#44A4EC" d="M23.06,34.962c-4.669,0-8.468-3.798-8.468-8.467s3.799-8.468,8.468-8.468s8.468,3.799,8.468,8.468
		S27.729,34.962,23.06,34.962z"/>
	<path fill="#FFAE42" d="M23.06,56.468c-4.669,0-8.468-3.799-8.468-8.468s3.799-8.468,8.468-8.468s8.468,3.799,8.468,8.468
		S27.729,56.468,23.06,56.468z"/>
	<path fill="#A0D468" d="M23.06,77.973c-4.669,0-8.468-3.799-8.468-8.468s3.799-8.468,8.468-8.468s8.468,3.799,8.468,8.468
		S27.729,77.973,23.06,77.973z"/>
</g>
<g>
	<path fill="#4DB5FF" d="M77.091,32.812H42.414c-3.483,0-6.317-2.833-6.317-6.317s2.833-6.317,6.317-6.317h34.677
		c3.483,0,6.317,2.834,6.317,6.317S80.574,32.812,77.091,32.812z"/>
	<path fill="#FFAE42" d="M77.091,54.317H42.414c-3.483,0-6.317-2.834-6.317-6.317s2.833-6.317,6.317-6.317h34.677
		c3.483,0,6.317,2.833,6.317,6.317S80.574,54.317,77.091,54.317z"/>
	<path fill="#A0D468" d="M77.091,75.822H42.414c-3.483,0-6.317-2.834-6.317-6.317s2.833-6.317,6.317-6.317h34.677
		c3.483,0,6.317,2.834,6.317,6.317S80.574,75.822,77.091,75.822z"/>
</g>
</svg>
