<?xml version="1.0" encoding="utf-8"?>
<!-- Generator: Adobe Illustrator 15.0.0, SVG Export Plug-In . SVG Version: 6.00 Build 0)  -->
<!DOCTYPE svg PUBLIC "-//W3C//DTD SVG 1.1//EN" "http://www.w3.org/Graphics/SVG/1.1/DTD/svg11.dtd">
<svg version="1.1" id="Capa_1" xmlns="http://www.w3.org/2000/svg" xmlns:xlink="http://www.w3.org/1999/xlink" x="0px" y="0px"
	 width="512px" height="512px" viewBox="0 0 512 512" enable-background="new 0 0 512 512" xml:space="preserve">
<g>
	<g>
		<path fill="#A0D468" d="M336.134,158.54H185.68c-6.521,0-11.813,5.292-11.813,11.813c0,6.521,5.292,11.813,11.813,11.813h150.454
			c6.521,0,11.813-5.292,11.813-11.813C347.946,163.832,342.654,158.54,336.134,158.54z"/>
		<path fill="#A0D468" d="M336.134,247.14H185.68c-6.521,0-11.813,5.292-11.813,11.813c0,6.521,5.292,11.813,11.813,11.813h150.454
			c6.521,0,11.813-5.292,11.813-11.813C347.946,252.432,342.654,247.14,336.134,247.14z"/>
		<path fill="#A0D468" d="M336.134,335.74H185.68c-6.521,0-11.813,5.293-11.813,11.813s5.292,11.813,11.813,11.813h150.454
			c6.521,0,11.813-5.292,11.813-11.813S342.654,335.74,336.134,335.74z"/>
		<path fill="#5DCFAD" d="M413.5,117.193c0-32.623-26.449-59.066-59.066-59.066H167.567c-17.391,0-86.067-0.043-86.067-0.043
			s27,56.417,27,103.11v233.613c0,32.616,26.444,59.067,59.067,59.067h186.867c32.617,0,59.066-26.451,59.066-59.067V117.193z
			 M389.874,394.807c0,19.568-15.871,35.439-35.44,35.439H167.567c-19.569,0-35.44-15.871-35.44-35.439V161.193
			c0-32.693-14.085-79.443-14.085-79.443s39.158,0.003,49.525,0.003h186.867c19.569,0,35.44,15.871,35.44,35.44V394.807z"/>
	</g>
</g>
</svg>
