<?xml version="1.0" encoding="utf-8"?>
<!-- Generator: Adobe Illustrator 15.0.0, SVG Export Plug-In . SVG Version: 6.00 Build 0)  -->
<!DOCTYPE svg PUBLIC "-//W3C//DTD SVG 1.1//EN" "http://www.w3.org/Graphics/SVG/1.1/DTD/svg11.dtd">
<svg version="1.1" id="Capa_1" xmlns="http://www.w3.org/2000/svg" xmlns:xlink="http://www.w3.org/1999/xlink" x="0px" y="0px"
	 width="512px" height="512px" viewBox="0 0 512 512" enable-background="new 0 0 512 512" xml:space="preserve">
<g>
	<g>
		<path fill="#5DCFAD" d="M-118.407,129.632c0-25.468-20.648-46.111-46.112-46.111h-145.883c-13.577,0-70.129,0-70.129,0
			s24.017,44.009,24.017,80.462v182.376c0,25.463,20.646,46.113,46.112,46.113h145.883c25.464,0,46.112-20.65,46.112-46.113V129.632
			L-118.407,129.632z"/>
		<g>
			<path fill="#FFFFFF" d="M-177.305,159.61h-117.456c-5.09,0-9.222,4.131-9.222,9.222c0,5.092,4.131,9.223,9.222,9.223h117.456
				c5.091,0,9.222-4.131,9.222-9.223C-168.087,163.741-172.218,159.61-177.305,159.61z"/>
			<path fill="#FFFFFF" d="M-177.305,228.778h-117.456c-5.09,0-9.222,4.131-9.222,9.222c0,5.092,4.131,9.223,9.222,9.223h117.456
				c5.091,0,9.222-4.131,9.222-9.223C-168.087,232.909-172.218,228.778-177.305,228.778z"/>
			<path fill="#FFFFFF" d="M-177.305,297.945h-117.456c-5.09,0-9.222,4.133-9.222,9.223s4.131,9.223,9.222,9.223h117.456
				c5.091,0,9.222-4.131,9.222-9.223S-172.218,297.945-177.305,297.945z"/>
		</g>
	</g>
</g>
<g>
	<path fill="#5DCFAD" d="M205.444,97.521L168.5,134.616h-47.086v252.979l274.061,0.001V134.616H242.5L205.444,97.521z
		 M351.5,326.525H165.444v-18.27H351.5V326.525z M351.5,269.195H165.444v-18.27H351.5V269.195z M351.5,211.864H165.444v-18.27H351.5
		V211.864z"/>
</g>
</svg>
