<?xml version="1.0" encoding="utf-8"?>
<!-- Generator: Adobe Illustrator 15.0.0, SVG Export Plug-In . SVG Version: 6.00 Build 0)  -->
<!DOCTYPE svg PUBLIC "-//W3C//DTD SVG 1.1//EN" "http://www.w3.org/Graphics/SVG/1.1/DTD/svg11.dtd">
<svg version="1.1" id="Layer_1" xmlns="http://www.w3.org/2000/svg" xmlns:xlink="http://www.w3.org/1999/xlink" x="0px" y="0px"
	 width="96px" height="96px" viewBox="0 0 96 96" enable-background="new 0 0 96 96" xml:space="preserve">
<path fill="#FF725C" d="M109.324,104.954c0,1.775-1.305,3.215-2.914,3.215H-9.585c-1.61,0-2.915-1.439-2.915-3.215V-6.013
	c0-1.776,1.305-3.215,2.915-3.215H106.41c1.609,0,2.914,1.439,2.914,3.215V104.954z"/>
<g>
	<path fill="#FFFFFF" d="M63.266,38.605v3.908c-1.16,0.581-2.821,1.521-4.993,2.824c-2.171,1.302-4.636,2.969-7.384,4.993v1.956
		h14.767c1.443,0,3.762-0.072,6.948-0.218v4.344c-3.187-0.289-5.505-0.435-6.948-0.435H50.889v11.075
		c-0.147,2.893-1.086,4.56-2.824,4.995c-1.736,0.433-4.271,0.791-7.6,1.083c-0.146-1.448-0.652-3.186-1.52-5.211
		c3.328,0.287,5.43,0.324,6.298,0.109c0.869-0.218,1.228-1.195,1.085-2.934v-9.117H31.127c-2.318,0-4.56,0.075-6.731,0.217v-4.127
		c2.171,0.147,4.344,0.218,6.515,0.218h15.418c0-1.304-0.147-2.532-0.434-3.691c1.303-0.576,2.75-1.373,4.343-2.388
		c1.593-1.011,3.545-2.314,5.864-3.908H39.162c-2.606,0-4.776,0.074-6.514,0.216v-4.126c1.738,0.146,3.834,0.217,6.297,0.217
		L63.266,38.605L63.266,38.605z M50.889,28.615H70.65c-0.146,2.172-0.218,3.838-0.218,4.995c0,1.015,0.072,2.464,0.218,4.343h-4.344
		V32.09H30.042v6.08h-4.343c0.142-2.026,0.217-3.617,0.217-4.777c0-1.157-0.075-2.749-0.217-4.778h20.195
		c-1.015-1.591-2.246-3.039-3.69-4.343c1.156-0.722,2.388-1.59,3.69-2.606C48.643,25.288,50.308,27.605,50.889,28.615z"/>
</g>
</svg>
