<?xml version="1.0" encoding="utf-8"?>
<!-- Generator: Adobe Illustrator 15.0.0, SVG Export Plug-In . SVG Version: 6.00 Build 0)  -->
<!DOCTYPE svg PUBLIC "-//W3C//DTD SVG 1.1//EN" "http://www.w3.org/Graphics/SVG/1.1/DTD/svg11.dtd">
<svg version="1.1" id="图层_1" xmlns="http://www.w3.org/2000/svg" xmlns:xlink="http://www.w3.org/1999/xlink" x="0px" y="0px"
	 width="128px" height="128px" viewBox="0 0 128 128" enable-background="new 0 0 128 128" xml:space="preserve">
<path fill="#409BFF" d="M95.592,44.499H32.678c-5.802,0-10.548,4.747-10.548,10.548v13.478c0,5.802,4.747,10.549,10.548,10.549
	h62.914c5.802,0,10.546-4.747,10.546-10.549V55.046C106.14,49.246,101.394,44.499,95.592,44.499z M102.038,68.525
	c0,1.714-0.674,3.326-1.891,4.556c-1.23,1.229-2.841,1.89-4.556,1.89H32.678c-1.714,0-3.326-0.676-4.556-1.89
	c-1.216-1.229-1.89-2.842-1.89-4.556V55.046c0-1.714,0.674-3.326,1.89-4.556c1.23-1.216,2.842-1.89,4.556-1.89h62.914
	c1.713,0,3.325,0.674,4.556,1.89c1.228,1.23,1.887,2.841,1.887,4.556L102.038,68.525L102.038,68.525z"/>
<path fill="#409BFF" d="M47.641,65.669c0,1.173,0.951,2.124,2.124,2.124s2.124-0.951,2.124-2.124c0-1.174-0.951-2.125-2.124-2.125
	S47.641,64.495,47.641,65.669z"/>
<path fill="#409BFF" d="M55.991,65.669c0,1.173,0.951,2.124,2.124,2.124s2.124-0.951,2.124-2.124c0-1.174-0.951-2.125-2.124-2.125
	S55.991,64.495,55.991,65.669z"/>
<path fill="#409BFF" d="M64.342,65.669c0,1.173,0.951,2.124,2.125,2.124c1.173,0,2.124-0.951,2.124-2.124
	c0-1.174-0.951-2.125-2.124-2.125C65.293,63.544,64.342,64.495,64.342,65.669z"/>
<path fill="#409BFF" d="M38.41,55.779h4.102v12.013H38.41V55.779z"/>
</svg>
