<?xml version="1.0" encoding="utf-8"?>
<!-- Generator: Adobe Illustrator 15.0.0, SVG Export Plug-In . SVG Version: 6.00 Build 0)  -->
<!DOCTYPE svg PUBLIC "-//W3C//DTD SVG 1.1//EN" "http://www.w3.org/Graphics/SVG/1.1/DTD/svg11.dtd">
<svg version="1.1" id="图层_1" xmlns="http://www.w3.org/2000/svg" xmlns:xlink="http://www.w3.org/1999/xlink" x="0px" y="0px"
	 width="128px" height="128px" viewBox="0 0 128 128" enable-background="new 0 0 128 128" xml:space="preserve">
<path fill="#5DA4FF" d="M94.347,51.642h12.004c2.135,0,3.735,1.6,3.735,3.734v23.739c0,2.132-1.6,3.734-3.735,3.734H94.347v6.4
	c0,1.867,1.334,3.201,3.2,3.201h6.402v6.4H91.681H78.61v-6.4h6.401c1.865,0,3.199-1.334,3.199-3.201V45.24
	c0-1.867-1.334-3.201-3.199-3.201H78.61v-6.134h25.605v6.401h-6.4c-1.868,0-3.202,1.333-3.202,3.201v6.135 M94.347,76.713h9.337
	c0.268,0,0.268-0.265,0.268-0.265V58.043c0-0.268-0.268-0.268-0.268-0.268h-9.337V76.713z M26.136,57.776h48.473v-6.134H22.935
	c-2.134,0-4,1.867-4,4.001v23.74c0,2.134,1.601,3.999,4,3.999h51.94V76.98H26.136c-0.534,0-0.801-0.269-0.801-0.8V58.844
	C25.335,58.311,25.869,57.776,26.136,57.776z"/>
</svg>
