<?xml version="1.0" encoding="utf-8"?>
<!-- Generator: Adobe Illustrator 15.0.0, SVG Export Plug-In . SVG Version: 6.00 Build 0)  -->
<!DOCTYPE svg PUBLIC "-//W3C//DTD SVG 1.1//EN" "http://www.w3.org/Graphics/SVG/1.1/DTD/svg11.dtd">
<svg version="1.1" id="图层_1" xmlns="http://www.w3.org/2000/svg" xmlns:xlink="http://www.w3.org/1999/xlink" x="0px" y="0px"
	 width="128px" height="128px" viewBox="0 0 128 128" enable-background="new 0 0 128 128" xml:space="preserve">
<g>
	<path fill="#33ADFF" stroke="#33ADFF" stroke-miterlimit="10" d="M12.297,70.138c-0.125-0.478-0.218-0.954-0.28-1.434
		c-0.062-0.477-0.114-0.955-0.155-1.432c-0.084-0.956-0.084-1.896,0-2.82c0.083-0.924,0.217-1.854,0.404-2.788
		c0.104-0.457,0.208-0.903,0.311-1.34c0.104-0.436,0.239-0.872,0.406-1.308c0.124-0.436,0.28-0.873,0.467-1.308
		c0.146-0.394,0.322-0.81,0.53-1.247c0.187-0.415,0.384-0.825,0.592-1.23c0.208-0.405,0.425-0.805,0.654-1.199
		c0.228-0.395,0.467-0.784,0.716-1.168c0.25-0.384,0.519-0.753,0.811-1.106c0.56-0.789,1.153-1.496,1.775-2.118
		c0.312-0.312,0.644-0.618,0.997-0.919c0.353-0.301,0.716-0.586,1.09-0.857c0.374-0.27,0.758-0.519,1.153-0.747
		c0.394-0.228,0.799-0.437,1.215-0.624c0.207-0.103,0.409-0.197,0.607-0.28c0.197-0.083,0.41-0.176,0.638-0.28
		c0.208-0.083,0.416-0.156,0.624-0.218c0.207-0.063,0.425-0.125,0.654-0.187c0.436-0.125,0.873-0.233,1.309-0.327
		c0.436-0.093,0.872-0.161,1.308-0.203c0.437-0.063,0.882-0.093,1.339-0.093c0.436-0.021,0.872-0.021,1.309,0
		c0.229,0.02,0.457,0.036,0.685,0.046c0.229,0.011,0.457,0.037,0.685,0.078c0.229,0.042,0.452,0.079,0.67,0.109
		c0.217,0.031,0.44,0.078,0.669,0.141c0.477,0.125,0.935,0.291,1.37,0.498c0.229,0.104,0.447,0.218,0.654,0.343
		c0.208,0.125,0.415,0.27,0.623,0.436c0.394,0.312,0.758,0.696,1.09,1.153c0.167,0.229,0.313,0.462,0.437,0.701
		c0.125,0.239,0.239,0.482,0.343,0.732c0.166,0.499,0.27,1.049,0.312,1.651c0,0.292-0.011,0.572-0.031,0.841
		c-0.021,0.27-0.062,0.54-0.125,0.81c-0.104,0.582-0.27,1.101-0.498,1.558c-0.229,0.541-0.488,1.007-0.779,1.402
		c-0.29,0.415-0.618,0.809-0.981,1.183c-0.363,0.374-0.743,0.716-1.137,1.028c-0.768,0.603-1.609,1.111-2.523,1.526
		c-0.229,0.104-0.452,0.198-0.67,0.28c-0.218,0.083-0.441,0.177-0.669,0.28c-0.104,0.042-0.218,0.078-0.343,0.109
		c-0.125,0.031-0.239,0.068-0.342,0.109c-0.063,0.021-0.12,0.036-0.172,0.047c-0.051,0.011-0.108,0.026-0.171,0.046l-0.187,0.031
		l-0.156,0.063c-0.54,0.125-1.044,0.046-1.511-0.234c-0.467-0.28-0.764-0.69-0.888-1.23c-0.146-0.519-0.083-1.007,0.187-1.464
		c0.27-0.457,0.654-0.768,1.153-0.934h0.031l0.28-0.094l0.281-0.062c0.083-0.042,0.166-0.072,0.249-0.094
		c0.083-0.021,0.176-0.052,0.281-0.093l1.028-0.374c0.166-0.083,0.327-0.161,0.483-0.233c0.156-0.073,0.316-0.15,0.483-0.233
		c0.166-0.083,0.321-0.167,0.467-0.25c0.146-0.083,0.301-0.176,0.467-0.28c0.291-0.187,0.561-0.39,0.811-0.608
		c0.249-0.218,0.477-0.452,0.685-0.7c0.415-0.478,0.737-1.007,0.966-1.589c0.104-0.291,0.166-0.581,0.187-0.872
		c0.042-0.291,0.042-0.582,0-0.873c-0.042-0.332-0.104-0.633-0.187-0.903c-0.083-0.312-0.229-0.612-0.437-0.903
		c-0.208-0.312-0.426-0.582-0.654-0.81c-0.146-0.145-0.291-0.27-0.436-0.374c-0.146-0.104-0.301-0.208-0.467-0.312
		c-0.354-0.208-0.716-0.368-1.09-0.483c-0.374-0.114-0.769-0.191-1.184-0.234c-0.416-0.02-0.82-0.02-1.215,0
		c-0.208,0.021-0.41,0.042-0.607,0.063c-0.198,0.021-0.4,0.052-0.608,0.093c-0.81,0.167-1.568,0.416-2.274,0.748
		c-0.187,0.104-0.369,0.208-0.545,0.312c-0.177,0.104-0.348,0.208-0.514,0.312c-0.353,0.229-0.675,0.457-0.965,0.686
		c-0.312,0.27-0.607,0.54-0.888,0.809c-0.28,0.271-0.556,0.551-0.826,0.842c-0.54,0.603-1.039,1.225-1.495,1.869
		c-0.229,0.311-0.447,0.628-0.654,0.95c-0.208,0.322-0.416,0.659-0.624,1.012c-0.415,0.686-0.779,1.392-1.09,2.118
		c-0.312,0.728-0.592,1.455-0.841,2.181c-0.063,0.187-0.125,0.374-0.187,0.561c-0.063,0.188-0.115,0.384-0.156,0.592
		c-0.063,0.187-0.12,0.374-0.171,0.561c-0.052,0.187-0.099,0.374-0.14,0.561c-0.104,0.395-0.187,0.779-0.25,1.152
		c-0.062,0.374-0.125,0.759-0.187,1.152c-0.062,0.374-0.109,0.753-0.14,1.137c-0.031,0.385-0.058,0.764-0.077,1.138
		c-0.063,0.769-0.063,1.526,0,2.272c0.041,0.748,0.134,1.465,0.28,2.149c0.083,0.354,0.171,0.697,0.265,1.028
		c0.094,0.332,0.203,0.654,0.327,0.966c0.25,0.645,0.561,1.226,0.935,1.745c0.353,0.519,0.81,0.985,1.371,1.401
		c0.145,0.104,0.29,0.197,0.436,0.28c0.145,0.083,0.3,0.156,0.467,0.217c0.166,0.084,0.332,0.157,0.499,0.219
		c0.166,0.063,0.342,0.125,0.529,0.187c0.167,0.043,0.343,0.079,0.53,0.108c0.187,0.032,0.374,0.068,0.561,0.111
		c0.041,0,0.088,0.004,0.14,0.015c0.051,0.011,0.098,0.015,0.14,0.015l0.156,0.031h0.156c0.104,0.022,0.202,0.032,0.296,0.032
		c0.093,0,0.191,0,0.296,0c0.415,0.041,0.82,0.057,1.215,0.047c0.394-0.011,0.799-0.036,1.215-0.079
		c0.789-0.082,1.577-0.237,2.366-0.467c0.79-0.229,1.547-0.524,2.274-0.888c0.727-0.362,1.422-0.783,2.087-1.262
		c0.685-0.52,1.287-1.068,1.807-1.651c0.145-0.165,0.285-0.326,0.42-0.481c0.135-0.156,0.254-0.316,0.358-0.482
		c0.021-0.043,0.073-0.114,0.156-0.219s0.171-0.213,0.265-0.327c0.093-0.114,0.182-0.229,0.265-0.344
		c0.083-0.112,0.135-0.19,0.155-0.233c0.063-0.062,0.114-0.145,0.156-0.248c0.021-0.021,0.036-0.041,0.047-0.063
		c0.01-0.021,0.025-0.041,0.047-0.063l0.031-0.061c0-0.021,0.01-0.041,0.031-0.063c0.062-0.125,0.16-0.214,0.295-0.265
		s0.265-0.047,0.389,0.014c0.125,0.064,0.213,0.168,0.266,0.313c0.051,0.146,0.047,0.279-0.016,0.404
		c-0.021,0.021-0.031,0.037-0.031,0.048c0,0.01-0.011,0.025-0.032,0.046l-0.031,0.094c-0.021,0.021-0.037,0.04-0.046,0.062
		c-0.011,0.021-0.027,0.042-0.047,0.062l-0.187,0.282c-0.042,0.041-0.104,0.118-0.187,0.231c-0.083,0.115-0.172,0.235-0.265,0.359
		s-0.182,0.244-0.265,0.358s-0.135,0.192-0.156,0.233c-0.249,0.374-0.529,0.716-0.841,1.027c-0.54,0.623-1.173,1.236-1.9,1.839
		c-1.351,1.101-2.877,1.973-4.579,2.616c-0.416,0.166-0.837,0.316-1.262,0.452c-0.426,0.134-0.857,0.253-1.292,0.356
		c-0.417,0.104-0.847,0.198-1.293,0.281c-0.447,0.083-0.888,0.146-1.324,0.187c-0.104,0.021-0.218,0.036-0.343,0.047
		c-0.125,0.011-0.239,0.026-0.342,0.047h-0.156h-0.187c-0.062,0.021-0.176,0.031-0.343,0.031c-0.229,0.021-0.462,0.032-0.701,0.032
		c-0.239,0-0.483-0.022-0.732-0.063c-0.478-0.042-0.965-0.104-1.463-0.188c-0.25-0.062-0.494-0.129-0.732-0.202
		c-0.239-0.072-0.482-0.161-0.732-0.265c-0.229-0.104-0.462-0.208-0.701-0.311c-0.239-0.104-0.472-0.229-0.7-0.374
		c-0.229-0.146-0.447-0.297-0.655-0.451c-0.207-0.157-0.404-0.328-0.591-0.514c-0.208-0.167-0.4-0.344-0.577-0.531
		c-0.176-0.187-0.348-0.394-0.514-0.622c-0.167-0.208-0.322-0.415-0.467-0.623c-0.146-0.207-0.28-0.426-0.405-0.653
		c-0.249-0.458-0.462-0.926-0.639-1.403C12.572,71.093,12.421,70.615,12.297,70.138z"/>
	<path fill="#33ADFF" stroke="#33ADFF" stroke-miterlimit="10" d="M47.277,71.383c-0.146,0.354-0.301,0.696-0.467,1.027
		c-0.167,0.333-0.333,0.665-0.499,0.998c-0.187,0.332-0.385,0.658-0.592,0.98c-0.208,0.323-0.436,0.64-0.686,0.95
		c-0.104,0.167-0.223,0.322-0.358,0.467c-0.135,0.146-0.275,0.291-0.42,0.437c-0.167,0.145-0.327,0.285-0.482,0.42
		c-0.156,0.136-0.327,0.266-0.514,0.39c-0.416,0.27-0.831,0.478-1.247,0.624c-0.207,0.082-0.446,0.145-0.716,0.187
		c-0.062,0.021-0.125,0.03-0.187,0.03s-0.125,0.011-0.187,0.031h-0.187h-0.094h-0.031h-0.031h-0.063
		c-0.333,0-0.665-0.062-0.997-0.187c-0.167-0.062-0.316-0.136-0.452-0.219c-0.135-0.083-0.264-0.176-0.389-0.28
		c-0.104-0.104-0.208-0.208-0.311-0.311c-0.104-0.104-0.198-0.208-0.281-0.312c-0.083-0.104-0.156-0.214-0.218-0.327
		c-0.063-0.115-0.125-0.224-0.187-0.327c-0.063-0.104-0.12-0.208-0.171-0.312c-0.052-0.104-0.099-0.208-0.14-0.312
		c-0.042-0.104-0.083-0.202-0.125-0.296c-0.042-0.094-0.083-0.191-0.125-0.295c-0.062-0.208-0.12-0.41-0.171-0.607
		c-0.052-0.197-0.099-0.4-0.14-0.608c-0.187-0.789-0.312-1.558-0.374-2.305c-0.042-0.374-0.073-0.754-0.093-1.137
		c-0.021-0.385-0.031-0.764-0.031-1.138v-1.121c0.02-0.186,0.031-0.373,0.031-0.56c0-0.188,0.01-0.364,0.031-0.53
		c0-0.104,0.005-0.207,0.016-0.312c0.01-0.104,0.016-0.208,0.016-0.312c-0.021-0.228,0-0.478,0.063-0.748
		c0.041-0.519,0.093-1.027,0.156-1.525c0.062-0.499,0.125-1.008,0.187-1.527c0.207-1.453,0.467-2.892,0.778-4.314
		c0.312-1.421,0.695-2.85,1.152-4.283c0.104-0.353,0.218-0.701,0.343-1.043c0.125-0.343,0.259-0.69,0.405-1.043
		c0.063-0.166,0.124-0.343,0.187-0.529c0.062-0.187,0.134-0.363,0.218-0.53c0.083-0.166,0.156-0.337,0.218-0.514
		c0.063-0.176,0.135-0.347,0.218-0.514c0.332-0.727,0.706-1.402,1.121-2.025c0.395-0.643,0.893-1.266,1.496-1.869
		c0.083-0.083,0.16-0.16,0.233-0.233c0.073-0.072,0.161-0.14,0.265-0.203c0.083-0.083,0.166-0.155,0.249-0.218
		c0.083-0.063,0.176-0.125,0.28-0.187c0.104-0.063,0.207-0.125,0.312-0.187c0.104-0.062,0.218-0.114,0.343-0.156
		c0.228-0.125,0.478-0.207,0.747-0.249c0.083-0.021,0.161-0.032,0.234-0.032s0.14,0,0.203,0h0.218h0.031h0.031h0.063
		c0.042,0,0.072,0.011,0.093,0.032c0.125,0,0.291,0.042,0.498,0.124c0.146,0.062,0.301,0.155,0.467,0.28
		c0.063,0.063,0.12,0.13,0.172,0.203c0.051,0.073,0.098,0.14,0.14,0.202c0.083,0.125,0.146,0.26,0.187,0.405
		c0.083,0.229,0.125,0.467,0.125,0.716c0.021,0.229,0.021,0.441,0,0.639c-0.021,0.198-0.053,0.389-0.094,0.576
		c-0.042,0.208-0.078,0.4-0.109,0.577c-0.031,0.176-0.067,0.358-0.109,0.545c-0.042,0.187-0.093,0.369-0.156,0.544
		c-0.062,0.177-0.114,0.349-0.156,0.515c-0.042,0.104-0.067,0.197-0.078,0.28c-0.011,0.083-0.037,0.167-0.078,0.249l-0.188,0.529
		c-0.104,0.354-0.213,0.696-0.327,1.028c-0.114,0.333-0.233,0.675-0.358,1.028c-0.062,0.166-0.125,0.332-0.187,0.498
		c-0.062,0.167-0.124,0.333-0.187,0.498l-0.374,1.028c-0.499,1.35-1.028,2.689-1.589,4.018c-0.561,1.351-1.152,2.69-1.775,4.019
		c-0.167,0.333-0.327,0.665-0.483,0.997c-0.156,0.332-0.317,0.666-0.483,0.998c-0.104,0.166-0.192,0.337-0.265,0.514
		c-0.073,0.177-0.151,0.348-0.234,0.514l-0.28,0.499l-0.125,0.249c-0.021,0.082-0.031,0.167-0.031,0.249
		c0,0.083-0.011,0.177-0.032,0.28c-0.021,0.167-0.031,0.339-0.031,0.514c0,0.177-0.011,0.348-0.031,0.515
		c-0.021,0.166-0.037,0.332-0.047,0.497c-0.011,0.167-0.026,0.333-0.047,0.499c-0.021,0.353-0.036,0.69-0.047,1.013
		c-0.01,0.321-0.015,0.659-0.015,1.012v0.966c0,0.167,0.005,0.326,0.015,0.483c0.011,0.155,0.026,0.316,0.047,0.482
		c0.021,0.166,0.036,0.322,0.047,0.467c0.01,0.146,0.036,0.291,0.078,0.437c0.041,0.146,0.078,0.28,0.109,0.404
		c0.031,0.125,0.067,0.239,0.109,0.344c0.042,0.146,0.083,0.237,0.125,0.28c0.02,0.104,0.051,0.166,0.093,0.187
		c0.042,0.041,0.063,0.073,0.063,0.094l0.063,0.03h0.031h0.093h0.156c0.145,0,0.259-0.01,0.343-0.03
		c0.166-0.021,0.394-0.104,0.685-0.25c0.27-0.145,0.509-0.301,0.717-0.468c0.124-0.104,0.25-0.202,0.374-0.295
		c0.125-0.094,0.238-0.191,0.343-0.296c0.229-0.229,0.446-0.468,0.654-0.717c0.207-0.249,0.415-0.519,0.623-0.809
		c0.208-0.271,0.405-0.551,0.592-0.842c0.187-0.291,0.363-0.582,0.53-0.872c0.104-0.145,0.192-0.291,0.265-0.436
		c0.073-0.146,0.161-0.302,0.265-0.468c0.042-0.084,0.078-0.161,0.109-0.234c0.032-0.072,0.067-0.149,0.109-0.233l0.124-0.218
		l0.094-0.218l0.032-0.03c0.083-0.167,0.202-0.282,0.357-0.344c0.156-0.062,0.316-0.051,0.483,0.031
		c0.332,0.166,0.446,0.426,0.343,0.778l-0.032,0.124l-0.031,0.156c-0.021,0.042-0.052,0.125-0.093,0.249
		c-0.042,0.104-0.073,0.192-0.094,0.266c-0.021,0.072-0.052,0.16-0.093,0.265L47.277,71.383z M41.484,58.83
		c-0.042,0.146-0.083,0.322-0.125,0.53c0.166-0.229,0.322-0.468,0.467-0.717c0.145-0.249,0.291-0.487,0.437-0.716
		c0.727-1.246,1.381-2.502,1.962-3.769c0.581-1.266,1.11-2.575,1.588-3.925c0.042-0.083,0.072-0.161,0.093-0.233
		c0.021-0.072,0.042-0.161,0.063-0.265c0.041-0.083,0.072-0.161,0.093-0.233c0.021-0.073,0.042-0.161,0.063-0.266
		c0.041-0.166,0.083-0.332,0.125-0.498s0.072-0.332,0.093-0.499c0.042-0.166,0.072-0.332,0.094-0.498
		c0.02-0.166,0.031-0.332,0.031-0.499v-0.467c-0.021-0.083-0.031-0.161-0.031-0.234c0-0.072-0.021-0.14-0.063-0.202
		c-0.042-0.166-0.083-0.27-0.125-0.312c0-0.042-0.021-0.062-0.063-0.062c0-0.021-0.005-0.031-0.016-0.031
		c-0.01,0-0.015,0.011-0.015,0.031v0.031h-0.031l-0.031,0.031h-0.031l-0.031,0.031c-0.021,0-0.052,0.021-0.093,0.063
		c-0.083,0.021-0.155,0.083-0.218,0.186c-0.042,0.042-0.083,0.084-0.124,0.125c-0.042,0.042-0.083,0.083-0.125,0.124
		c-0.062,0.104-0.13,0.218-0.203,0.343s-0.151,0.25-0.234,0.374l-0.374,0.841c-0.062,0.166-0.125,0.317-0.187,0.452
		c-0.062,0.136-0.125,0.286-0.187,0.452c-0.042,0.167-0.094,0.322-0.155,0.467c-0.063,0.146-0.125,0.302-0.187,0.467l-0.343,0.934
		c-0.229,0.645-0.437,1.293-0.624,1.947s-0.373,1.313-0.56,1.978C42.064,56.162,41.753,57.501,41.484,58.83z"/>
	<path fill="#33ADFF" stroke="#33ADFF" stroke-miterlimit="10" d="M61.263,76.741c-0.207,0.249-0.416,0.436-0.622,0.561
		c-0.104,0.104-0.229,0.197-0.374,0.28c-0.146,0.082-0.301,0.155-0.468,0.217c-0.187,0.084-0.363,0.136-0.529,0.157
		c-0.021,0.02-0.042,0.03-0.063,0.03h-0.093h-0.031h-0.032v0.031h-0.062c-0.042,0-0.078,0.005-0.109,0.016
		c-0.031,0.01-0.068,0.017-0.109,0.017c-0.291,0.04-0.603,0.04-0.935,0c-0.166-0.022-0.332-0.048-0.498-0.079
		c-0.167-0.03-0.343-0.088-0.53-0.172c-0.332-0.123-0.654-0.32-0.966-0.591c-0.311-0.271-0.55-0.551-0.716-0.841
		c-0.208-0.291-0.353-0.592-0.436-0.904c-0.125-0.269-0.219-0.549-0.28-0.84c-0.042-0.146-0.068-0.285-0.079-0.421
		c-0.01-0.136-0.026-0.275-0.047-0.421c-0.02-0.124-0.036-0.249-0.046-0.373c-0.011-0.125-0.016-0.249-0.016-0.374
		c-0.042,0.104-0.083,0.198-0.125,0.28c-0.042,0.083-0.083,0.166-0.125,0.249c-0.083,0.167-0.167,0.337-0.249,0.514
		c-0.083,0.177-0.177,0.349-0.281,0.514c-0.166,0.333-0.373,0.665-0.623,0.997c-0.124,0.166-0.249,0.328-0.374,0.482
		c-0.125,0.157-0.27,0.316-0.436,0.483c-0.083,0.083-0.166,0.156-0.249,0.219c-0.083,0.062-0.177,0.135-0.28,0.218
		c-0.187,0.125-0.405,0.248-0.654,0.374c-0.104,0.041-0.219,0.082-0.343,0.124c-0.125,0.041-0.26,0.073-0.406,0.094
		c-0.02,0-0.036,0.005-0.046,0.016c-0.01,0.01-0.037,0.015-0.078,0.015h-0.031h-0.062h-0.031h-0.063h-0.093
		c-0.083,0.021-0.156,0.025-0.218,0.017c-0.063-0.011-0.136-0.017-0.219-0.017c-0.124-0.02-0.26-0.046-0.404-0.077
		c-0.146-0.031-0.292-0.078-0.437-0.14c-0.291-0.125-0.541-0.291-0.747-0.499c-0.229-0.187-0.405-0.395-0.53-0.624
		c-0.083-0.103-0.156-0.217-0.218-0.342c-0.063-0.125-0.114-0.238-0.156-0.343c-0.104-0.229-0.181-0.445-0.234-0.653
		c-0.051-0.208-0.098-0.426-0.14-0.654c-0.041-0.208-0.066-0.416-0.077-0.623c-0.011-0.208-0.026-0.415-0.047-0.623
		c0-0.208,0-0.41,0-0.607s0.011-0.399,0.031-0.607c0.021-0.395,0.058-0.783,0.109-1.168c0.052-0.384,0.12-0.774,0.202-1.168
		c0.063-0.375,0.146-0.749,0.249-1.123c0.104-0.372,0.208-0.746,0.312-1.12c0.27-0.789,0.55-1.526,0.841-2.212
		c0.166-0.353,0.343-0.705,0.529-1.059c0.187-0.353,0.395-0.706,0.623-1.059c0.208-0.333,0.457-0.675,0.747-1.028
		c0.146-0.166,0.291-0.327,0.437-0.483s0.301-0.316,0.467-0.482c0.291-0.291,0.664-0.582,1.121-0.873
		c0.395-0.27,0.873-0.488,1.433-0.654c0.27-0.104,0.55-0.171,0.841-0.203c0.291-0.031,0.581-0.046,0.872-0.046
		c0.561,0.042,1.121,0.156,1.682,0.342c0.457,0.167,0.924,0.405,1.402,0.717c0.103,0.083,0.202,0.161,0.296,0.234
		c0.093,0.073,0.181,0.151,0.265,0.233c0.125,0.083,0.218,0.156,0.28,0.218c0.062,0.021,0.104,0.063,0.125,0.125l0.125,0.094
		c0.437,0.416,0.664,0.914,0.686,1.495c0.021,0.582-0.167,1.09-0.561,1.526c-0.416,0.416-0.915,0.64-1.496,0.67
		c-0.581,0.031-1.08-0.16-1.495-0.577c-0.042-0.02-0.067-0.041-0.078-0.061c-0.011-0.021-0.036-0.042-0.078-0.063l-0.031-0.063
		l-0.031-0.031l-0.062-0.063c-0.021-0.042-0.042-0.067-0.063-0.079c-0.021-0.01-0.042-0.025-0.062-0.046l-0.249-0.25
		c-0.104-0.083-0.192-0.15-0.266-0.202c-0.072-0.052-0.15-0.099-0.232-0.14c-0.083-0.042-0.156-0.073-0.219-0.093
		c-0.063-0.021-0.124-0.032-0.187-0.032c-0.146-0.02-0.291-0.02-0.436,0c-0.187,0-0.374,0.063-0.561,0.187
		c-0.104,0.042-0.208,0.093-0.311,0.156c-0.104,0.063-0.208,0.135-0.312,0.219c-0.229,0.166-0.441,0.358-0.638,0.577
		c-0.198,0.217-0.4,0.44-0.607,0.669c-0.187,0.249-0.369,0.504-0.545,0.763c-0.176,0.261-0.348,0.534-0.514,0.826
		c-0.167,0.291-0.317,0.587-0.452,0.888c-0.135,0.301-0.276,0.598-0.42,0.888c-0.271,0.644-0.488,1.277-0.654,1.899
		c-0.104,0.312-0.192,0.629-0.265,0.951c-0.073,0.32-0.13,0.648-0.171,0.98c-0.042,0.167-0.068,0.321-0.078,0.468
		c-0.011,0.145-0.027,0.301-0.047,0.467c0,0.166,0,0.321,0,0.467s0.01,0.302,0.032,0.468c0,0.146,0.01,0.285,0.03,0.42
		c0.021,0.136,0.052,0.255,0.094,0.359c0.021,0.061,0.042,0.118,0.063,0.171c0.02,0.052,0.041,0.099,0.062,0.14
		c0.021,0.042,0.041,0.078,0.062,0.109c0.021,0.03,0.042,0.067,0.062,0.108c0.042,0.021,0.094,0.063,0.156,0.126l0.187,0.061
		c0.021,0,0.037,0.006,0.047,0.016c0.01,0.012,0.037,0.017,0.078,0.017h0.031h0.031h0.031H49.8c0.063,0,0.156-0.021,0.28-0.063
		c0.208-0.04,0.426-0.155,0.655-0.342c0.104-0.104,0.212-0.202,0.327-0.296s0.223-0.203,0.328-0.327
		c0.103-0.124,0.207-0.25,0.312-0.374c0.103-0.124,0.207-0.259,0.311-0.404l0.561-0.842c0.166-0.29,0.333-0.592,0.499-0.903
		c0.166-0.311,0.332-0.633,0.499-0.965c0.29-0.581,0.57-1.225,0.841-1.932c0.042-0.104,0.083-0.213,0.125-0.326
		c0.041-0.115,0.083-0.224,0.124-0.328c0.042-0.207,0.083-0.362,0.125-0.467c0.02-0.104,0.042-0.213,0.062-0.327
		c0.021-0.114,0.051-0.234,0.093-0.358c0.021-0.063,0.052-0.176,0.094-0.342l0.063-0.188c0.021-0.041,0.031-0.072,0.031-0.093
		c0-0.021,0.011-0.054,0.031-0.094v-0.063c0.208-0.56,0.577-0.976,1.106-1.246c0.53-0.27,1.085-0.312,1.667-0.125
		c0.581,0.188,1.007,0.546,1.277,1.074c0.27,0.529,0.312,1.086,0.125,1.667c-0.042,0.083-0.062,0.146-0.062,0.187l-0.063,0.125
		l-0.062,0.125l-0.094,0.279c-0.042,0.104-0.077,0.198-0.108,0.282c-0.032,0.082-0.068,0.177-0.109,0.278
		c-0.063,0.188-0.125,0.375-0.187,0.563c-0.063,0.187-0.125,0.383-0.187,0.591c-0.042,0.187-0.094,0.374-0.156,0.561
		c-0.063,0.188-0.114,0.385-0.156,0.592c-0.021,0.104-0.042,0.197-0.063,0.281c-0.021,0.083-0.042,0.176-0.063,0.279l-0.093,0.561
		c-0.042,0.188-0.073,0.369-0.094,0.546c-0.021,0.177-0.031,0.348-0.031,0.514c-0.042,0.166-0.042,0.323,0,0.468
		c0,0.207,0.01,0.353,0.031,0.435c0,0.083,0.021,0.188,0.063,0.312c0.041,0.083,0.062,0.146,0.062,0.188
		c0.021,0.042,0.062,0.094,0.125,0.155c0.02,0.021,0.093,0.063,0.218,0.125c0.125,0.042,0.249,0.063,0.374,0.063
		c0.041,0,0.073,0.01,0.093,0.031h0.032h0.031h-0.031h0.031h0.094c0.041-0.021,0.093-0.036,0.156-0.047
		c0.062-0.01,0.124-0.035,0.187-0.078c0.062-0.04,0.124-0.083,0.187-0.124c0.062-0.042,0.135-0.083,0.218-0.125
		c0.145-0.104,0.285-0.219,0.42-0.342c0.135-0.125,0.265-0.271,0.39-0.438c0.29-0.29,0.56-0.591,0.81-0.902
		c0.125-0.165,0.254-0.337,0.389-0.514s0.254-0.348,0.358-0.514c0.063-0.083,0.125-0.166,0.187-0.25
		c0.063-0.083,0.125-0.176,0.187-0.281c0.145-0.165,0.259-0.342,0.343-0.528c0.062-0.104,0.125-0.197,0.187-0.28
		c0.062-0.083,0.113-0.177,0.155-0.28c0.146-0.167,0.261-0.342,0.343-0.529c0.063-0.104,0.119-0.197,0.172-0.28
		c0.052-0.084,0.109-0.178,0.171-0.281l0.156-0.28l0.157-0.279v-0.031c0.082-0.104,0.186-0.176,0.31-0.219
		c0.126-0.042,0.25-0.032,0.375,0.031c0.249,0.146,0.332,0.342,0.249,0.591l-0.063,0.157l-0.062,0.186l-0.094,0.313
		c-0.043,0.104-0.078,0.207-0.108,0.312c-0.032,0.104-0.068,0.207-0.11,0.312c-0.041,0.104-0.082,0.207-0.124,0.312
		c-0.042,0.104-0.083,0.208-0.125,0.311c-0.063,0.187-0.146,0.396-0.249,0.624c-0.043,0.104-0.084,0.208-0.125,0.311
		c-0.042,0.104-0.083,0.208-0.125,0.312c-0.041,0.104-0.088,0.208-0.14,0.312c-0.051,0.104-0.099,0.209-0.14,0.313
		c-0.104,0.207-0.207,0.41-0.312,0.607c-0.103,0.197-0.208,0.399-0.311,0.607c-0.229,0.415-0.478,0.82-0.748,1.214
		C61.969,75.962,61.657,76.346,61.263,76.741z"/>
	<path fill="#33ADFF" stroke="#33ADFF" stroke-miterlimit="10" d="M77.087,68.548c0.104,0.085,0.172,0.187,0.202,0.313
		c0.031,0.125,0.005,0.239-0.078,0.344l-4.734,5.917c-0.207,0.415-0.498,0.81-0.872,1.184c-0.208,0.208-0.42,0.384-0.64,0.529
		c-0.217,0.145-0.439,0.281-0.669,0.404c-0.229,0.104-0.463,0.192-0.701,0.266c-0.238,0.072-0.473,0.129-0.7,0.172
		c-0.52,0.062-0.986,0.082-1.401,0.062c-0.478-0.021-0.945-0.114-1.403-0.28c-0.27-0.083-0.497-0.176-0.685-0.28
		c-0.207-0.125-0.415-0.27-0.623-0.436c-0.103-0.084-0.197-0.162-0.28-0.233c-0.083-0.074-0.166-0.162-0.25-0.266
		c-0.144-0.166-0.29-0.362-0.435-0.592c-0.125-0.228-0.229-0.445-0.313-0.654c-0.082-0.207-0.155-0.425-0.218-0.653
		c-0.062-0.229-0.103-0.447-0.124-0.654c-0.02-0.208-0.042-0.416-0.063-0.623c0-0.229,0-0.447,0-0.655
		c0-0.206,0.022-0.414,0.063-0.622c0.042-0.207,0.083-0.409,0.124-0.607c0.042-0.197,0.084-0.399,0.125-0.607
		c0.041-0.104,0.073-0.202,0.093-0.296c0.021-0.093,0.053-0.192,0.094-0.296c0.041-0.104,0.079-0.197,0.109-0.28
		c0.031-0.083,0.068-0.176,0.109-0.281c0.041-0.104,0.088-0.196,0.14-0.28c0.052-0.082,0.098-0.165,0.14-0.248
		c0.021-0.042,0.042-0.089,0.063-0.14c0.021-0.052,0.042-0.1,0.062-0.141l0.031-0.063l0.063-0.062l0.063-0.126l0.561-0.996
		l1.12-1.962c0.188-0.332,0.368-0.659,0.546-0.98c0.176-0.323,0.347-0.649,0.514-0.982c0.188-0.352,0.362-0.69,0.529-1.012
		c0.166-0.322,0.331-0.659,0.498-1.013c0.042-0.104,0.083-0.166,0.125-0.187l0.094-0.28c0.041-0.063,0.066-0.124,0.078-0.187
		c0.009-0.063,0.035-0.125,0.077-0.187l0.094-0.187c0-0.021,0.005-0.036,0.015-0.047c0.011-0.01,0.017-0.036,0.017-0.078
		l0.031-0.062l0.03-0.032l0.032-0.03c0.332-0.582,0.814-0.955,1.448-1.122c0.633-0.166,1.24-0.073,1.822,0.281
		c0.561,0.332,0.923,0.815,1.09,1.448c0.166,0.634,0.083,1.241-0.249,1.823v-0.032h-0.032c0,0.042-0.01,0.063-0.03,0.063
		c-0.021,0.042-0.037,0.068-0.046,0.078c-0.012,0.011-0.027,0.037-0.047,0.078c-0.021,0.063-0.043,0.12-0.063,0.171
		s-0.051,0.109-0.094,0.171c-0.124,0.25-0.218,0.509-0.279,0.779c-0.104,0.292-0.166,0.561-0.187,0.81
		c-0.022,0.146-0.037,0.286-0.048,0.421c-0.01,0.136-0.015,0.275-0.015,0.421c-0.021,0.146-0.027,0.291-0.017,0.437
		c0.011,0.145,0.026,0.291,0.047,0.435c0.021,0.146,0.042,0.292,0.063,0.438c0.021,0.145,0.052,0.291,0.094,0.437
		c0,0.062,0.021,0.135,0.063,0.218l0.031,0.124v0.032v0.03l0.03,0.03l0.094,0.312c0.041,0.125,0.084,0.22,0.124,0.281
		c0.063,0.207,0.126,0.415,0.188,0.622c0.063,0.208,0.114,0.416,0.156,0.624c0.103,0.414,0.182,0.845,0.233,1.293
		c0.052,0.446,0.077,0.907,0.077,1.385c0,0.043-0.005,0.136-0.015,0.28c-0.011,0.146-0.016,0.239-0.016,0.281l3.271-4.111
		C76.599,68.445,76.816,68.404,77.087,68.548z M70.017,73.096c0.04-0.249,0.04-0.518,0-0.809c-0.022-0.166-0.043-0.316-0.063-0.452
		c-0.021-0.135-0.053-0.285-0.094-0.452c-0.063-0.312-0.156-0.602-0.28-0.872c-0.104-0.332-0.229-0.634-0.375-0.903
		c-0.02-0.062-0.051-0.135-0.094-0.219l-0.062-0.123l-0.062-0.126v-0.031l-0.031-0.03l-0.032-0.062l-0.062-0.156
		c-0.063-0.104-0.115-0.208-0.156-0.313c-0.104-0.206-0.192-0.415-0.264-0.622c-0.074-0.208-0.151-0.425-0.234-0.653
		c-0.063-0.229-0.119-0.457-0.172-0.687c-0.051-0.228-0.099-0.456-0.14-0.684c-0.042-0.229-0.067-0.463-0.077-0.702
		c-0.011-0.238-0.026-0.472-0.047-0.701v-0.311l-0.841,1.682c-0.167,0.353-0.334,0.691-0.499,1.012
		c-0.166,0.322-0.333,0.659-0.498,1.013l-0.468,1.027l-0.094,0.25c-0.021,0.042-0.035,0.083-0.046,0.124
		c-0.012,0.042-0.026,0.084-0.047,0.124c-0.104,0.166-0.167,0.334-0.188,0.499c-0.124,0.313-0.218,0.644-0.28,0.997
		c-0.062,0.354-0.094,0.695-0.094,1.027c-0.021,0.167-0.025,0.326-0.015,0.483c0.01,0.155,0.025,0.316,0.047,0.482
		c0.041,0.166,0.076,0.327,0.108,0.483c0.031,0.156,0.079,0.306,0.14,0.451c0.042,0.146,0.099,0.279,0.172,0.405
		c0.073,0.125,0.15,0.238,0.233,0.342c0.083,0.104,0.177,0.198,0.28,0.28c0.104,0.083,0.208,0.167,0.312,0.25
		c0.104,0.062,0.213,0.109,0.328,0.141c0.113,0.029,0.233,0.067,0.357,0.108c0.229,0.062,0.51,0.072,0.841,0.032
		c0.291,0,0.571-0.054,0.842-0.157c0.145-0.04,0.274-0.088,0.39-0.14c0.114-0.052,0.223-0.109,0.326-0.171
		c0.374-0.271,0.633-0.635,0.779-1.091c0.041-0.104,0.073-0.218,0.094-0.343C69.974,73.377,69.994,73.242,70.017,73.096z"/>
	<path fill="#33ADFF" stroke="#33ADFF" stroke-miterlimit="10" d="M89.173,68.548c0.104,0.085,0.172,0.187,0.202,0.313
		c0.031,0.125,0.006,0.239-0.077,0.344l-4.734,5.917c-0.209,0.415-0.5,0.81-0.873,1.184c-0.209,0.208-0.421,0.384-0.639,0.529
		c-0.218,0.145-0.442,0.281-0.67,0.404c-0.229,0.104-0.463,0.192-0.7,0.266c-0.24,0.072-0.474,0.129-0.701,0.172
		c-0.521,0.062-0.986,0.082-1.401,0.062c-0.479-0.021-0.945-0.114-1.403-0.28c-0.27-0.083-0.497-0.176-0.685-0.28
		c-0.207-0.125-0.415-0.27-0.623-0.436c-0.104-0.084-0.198-0.162-0.28-0.233c-0.083-0.074-0.166-0.162-0.249-0.266
		c-0.146-0.166-0.291-0.362-0.436-0.592c-0.124-0.228-0.229-0.445-0.312-0.654c-0.083-0.207-0.156-0.425-0.218-0.653
		c-0.063-0.229-0.104-0.447-0.126-0.654c-0.019-0.208-0.04-0.416-0.062-0.623c0-0.229,0-0.447,0-0.655
		c0-0.206,0.021-0.414,0.062-0.622c0.043-0.207,0.084-0.409,0.126-0.607c0.041-0.197,0.083-0.399,0.124-0.607
		c0.042-0.104,0.073-0.202,0.094-0.296c0.021-0.093,0.052-0.192,0.094-0.296c0.04-0.104,0.076-0.197,0.108-0.28
		c0.031-0.083,0.068-0.176,0.109-0.281c0.042-0.104,0.088-0.196,0.139-0.28c0.053-0.082,0.1-0.165,0.142-0.248
		c0.021-0.042,0.041-0.089,0.062-0.14c0.021-0.052,0.042-0.1,0.063-0.141l0.031-0.063l0.063-0.062l0.063-0.126l0.56-0.996
		l1.122-1.962c0.187-0.332,0.367-0.659,0.543-0.98c0.178-0.323,0.349-0.649,0.516-0.982c0.188-0.352,0.363-0.69,0.529-1.012
		c0.166-0.322,0.331-0.659,0.498-1.013c0.041-0.104,0.083-0.166,0.124-0.187l0.094-0.28c0.042-0.063,0.067-0.124,0.078-0.187
		c0.011-0.063,0.036-0.125,0.078-0.187l0.094-0.187c0-0.021,0.005-0.036,0.015-0.047c0.011-0.01,0.016-0.036,0.016-0.078
		l0.032-0.062l0.031-0.032l0.03-0.03c0.332-0.582,0.814-0.955,1.448-1.122c0.634-0.166,1.241-0.073,1.823,0.281
		c0.561,0.332,0.924,0.815,1.09,1.448c0.166,0.634,0.083,1.241-0.25,1.823v-0.032h-0.03c0,0.042-0.011,0.063-0.031,0.063
		c-0.021,0.042-0.037,0.068-0.048,0.078c-0.009,0.011-0.025,0.037-0.046,0.078c-0.021,0.063-0.042,0.12-0.063,0.171
		s-0.052,0.109-0.094,0.171c-0.124,0.25-0.218,0.509-0.28,0.779c-0.104,0.292-0.166,0.561-0.187,0.81
		c-0.021,0.146-0.036,0.286-0.047,0.421c-0.01,0.136-0.015,0.275-0.015,0.421c-0.021,0.146-0.027,0.291-0.017,0.437
		c0.011,0.145,0.027,0.291,0.047,0.435c0.021,0.146,0.041,0.292,0.063,0.438c0.02,0.145,0.051,0.291,0.093,0.437
		c0,0.062,0.021,0.135,0.062,0.218l0.032,0.124v0.032v0.03l0.03,0.03l0.094,0.312c0.041,0.125,0.082,0.22,0.124,0.281
		c0.063,0.207,0.126,0.415,0.188,0.622c0.063,0.208,0.114,0.416,0.155,0.624c0.104,0.414,0.182,0.845,0.233,1.293
		c0.052,0.446,0.078,0.907,0.078,1.385c0,0.043-0.004,0.136-0.015,0.28c-0.012,0.146-0.016,0.239-0.016,0.281l3.271-4.111
		C88.685,68.445,88.902,68.404,89.173,68.548z M82.102,73.096c0.041-0.249,0.041-0.518,0-0.809
		c-0.021-0.166-0.042-0.316-0.062-0.452c-0.021-0.135-0.053-0.285-0.095-0.452c-0.063-0.312-0.155-0.602-0.28-0.872
		c-0.103-0.332-0.229-0.634-0.374-0.903c-0.02-0.062-0.052-0.135-0.093-0.219l-0.063-0.123l-0.062-0.126v-0.031l-0.031-0.03
		l-0.032-0.062l-0.062-0.156c-0.063-0.104-0.115-0.208-0.155-0.313c-0.104-0.206-0.193-0.415-0.266-0.622
		c-0.072-0.208-0.151-0.425-0.233-0.653c-0.063-0.229-0.12-0.457-0.172-0.687c-0.052-0.228-0.098-0.456-0.14-0.684
		c-0.041-0.229-0.067-0.463-0.077-0.702c-0.012-0.238-0.027-0.472-0.048-0.701v-0.311l-0.84,1.682
		c-0.167,0.353-0.333,0.691-0.499,1.012c-0.166,0.322-0.333,0.659-0.498,1.013l-0.468,1.027l-0.093,0.25
		c-0.022,0.042-0.037,0.083-0.048,0.124c-0.01,0.042-0.025,0.084-0.046,0.124c-0.104,0.166-0.166,0.334-0.188,0.499
		c-0.124,0.313-0.218,0.644-0.28,0.997s-0.093,0.695-0.093,1.027c-0.021,0.167-0.026,0.326-0.016,0.483
		c0.011,0.155,0.025,0.316,0.046,0.482c0.042,0.166,0.078,0.327,0.11,0.483c0.031,0.156,0.077,0.306,0.14,0.451
		c0.041,0.146,0.098,0.279,0.172,0.405c0.071,0.125,0.149,0.238,0.232,0.342c0.084,0.104,0.177,0.198,0.281,0.28
		c0.104,0.083,0.207,0.167,0.311,0.25c0.104,0.062,0.213,0.109,0.327,0.141c0.113,0.029,0.233,0.067,0.358,0.108
		c0.229,0.062,0.509,0.072,0.841,0.032c0.291,0,0.571-0.054,0.841-0.157c0.146-0.04,0.275-0.088,0.39-0.14
		c0.113-0.052,0.223-0.109,0.328-0.171c0.373-0.271,0.632-0.635,0.777-1.091c0.042-0.104,0.073-0.218,0.095-0.343
		C82.06,73.377,82.081,73.242,82.102,73.096z"/>
	<path fill="#33ADFF" stroke="#33ADFF" stroke-miterlimit="10" d="M105.743,71.041c-0.188,0.229-0.374,0.456-0.561,0.685
		c-0.188,0.229-0.374,0.457-0.562,0.685c-0.395,0.437-0.799,0.868-1.214,1.293c-0.417,0.427-0.862,0.837-1.34,1.231
		c-0.229,0.208-0.463,0.404-0.701,0.591c-0.238,0.188-0.492,0.375-0.763,0.563c-0.498,0.371-1.027,0.715-1.588,1.027
		c-0.604,0.373-1.195,0.674-1.776,0.902c-0.166,0.063-0.332,0.125-0.497,0.187c-0.168,0.063-0.334,0.114-0.5,0.156
		c-0.166,0.041-0.337,0.078-0.514,0.109c-0.177,0.03-0.358,0.066-0.545,0.108c-0.166,0.042-0.343,0.063-0.529,0.063
		c-0.188,0-0.374,0-0.562,0c-0.436,0-0.831-0.042-1.184-0.125c-0.415-0.062-0.81-0.186-1.184-0.373
		c-0.207-0.083-0.404-0.176-0.592-0.28c-0.187-0.104-0.374-0.218-0.561-0.344c-0.354-0.248-0.676-0.54-0.966-0.871
		c-0.145-0.167-0.28-0.337-0.405-0.515c-0.124-0.176-0.238-0.347-0.342-0.514c-0.104-0.166-0.198-0.343-0.28-0.529
		c-0.083-0.188-0.156-0.373-0.219-0.561c-0.124-0.374-0.218-0.748-0.28-1.121c-0.083-0.353-0.129-0.707-0.141-1.06
		c-0.011-0.353-0.004-0.706,0.017-1.06c0.021-0.353,0.058-0.695,0.109-1.027c0.051-0.332,0.119-0.654,0.202-0.966
		c0.332-1.245,0.82-2.429,1.464-3.551c0.145-0.291,0.301-0.564,0.468-0.826c0.165-0.259,0.342-0.514,0.528-0.762
		c0.188-0.25,0.374-0.494,0.562-0.733c0.187-0.238,0.394-0.472,0.623-0.701c0.104-0.125,0.217-0.244,0.343-0.358
		c0.124-0.114,0.238-0.223,0.342-0.327c0.124-0.104,0.25-0.203,0.375-0.296c0.123-0.093,0.248-0.192,0.374-0.296
		c0.269-0.208,0.543-0.399,0.824-0.576c0.28-0.176,0.576-0.337,0.888-0.483c0.271-0.125,0.592-0.26,0.966-0.405
		c0.166-0.042,0.338-0.083,0.514-0.125c0.176-0.041,0.358-0.083,0.546-0.125c0.187-0.041,0.378-0.067,0.575-0.078
		c0.197-0.01,0.4,0.005,0.607,0.047c0.208,0.021,0.42,0.052,0.64,0.094c0.218,0.042,0.44,0.114,0.67,0.218
		c0.476,0.208,0.881,0.479,1.215,0.811c0.352,0.311,0.643,0.706,0.871,1.183c0.208,0.437,0.354,0.852,0.437,1.247
		c0.062,0.436,0.093,0.853,0.093,1.246c0,0.396-0.031,0.779-0.093,1.152c-0.042,0.188-0.089,0.37-0.14,0.546
		c-0.054,0.177-0.1,0.348-0.141,0.514c-0.125,0.354-0.265,0.696-0.421,1.027c-0.155,0.333-0.348,0.654-0.577,0.966
		c-0.187,0.313-0.425,0.612-0.715,0.903c-0.271,0.333-0.582,0.604-0.936,0.81c-0.166,0.125-0.352,0.25-0.56,0.374
		c-0.021,0-0.072,0.021-0.157,0.063l-0.093,0.031c-0.021,0.021-0.042,0.031-0.062,0.031c-0.043,0.021-0.126,0.052-0.249,0.094
		c-0.312,0.124-0.646,0.218-0.997,0.279c-0.728,0.167-1.443,0.219-2.149,0.156l-0.561-0.093c-0.104-0.021-0.192-0.042-0.266-0.063
		c-0.073-0.02-0.161-0.051-0.264-0.094c-0.374-0.124-0.707-0.279-0.998-0.467c-0.083-0.041-0.16-0.088-0.233-0.141
		c-0.072-0.051-0.141-0.108-0.202-0.171c-0.042-0.02-0.104-0.072-0.187-0.155c-0.063-0.041-0.136-0.104-0.218-0.188
		c-0.105-0.123-0.209-0.249-0.312-0.373c-0.105-0.125-0.208-0.259-0.313-0.405c-0.021-0.021-0.03-0.041-0.03-0.062
		s-0.011-0.041-0.031-0.063v0.499c0,0.27,0.016,0.524,0.046,0.763c0.031,0.237,0.068,0.472,0.109,0.7
		c0.042,0.229,0.099,0.451,0.171,0.67c0.074,0.218,0.15,0.42,0.233,0.606c0.146,0.375,0.333,0.686,0.561,0.936
		c0.104,0.146,0.208,0.26,0.312,0.343c0.104,0.083,0.22,0.166,0.344,0.249c0.104,0.083,0.224,0.15,0.358,0.203
		c0.135,0.051,0.285,0.098,0.451,0.14c0.166,0.063,0.343,0.108,0.529,0.14c0.188,0.031,0.395,0.067,0.624,0.109
		c0.104,0,0.212,0.005,0.326,0.016c0.114,0.01,0.223,0.016,0.328,0.016c0.228,0.042,0.456,0.042,0.686,0
		c0.497-0.021,0.996-0.083,1.494-0.187c0.249-0.063,0.498-0.136,0.748-0.219c0.248-0.083,0.498-0.177,0.747-0.28
		s0.492-0.218,0.732-0.343c0.238-0.124,0.472-0.249,0.701-0.373c0.478-0.271,0.949-0.562,1.417-0.872
		c0.466-0.313,0.919-0.645,1.354-0.998c0.104-0.082,0.213-0.165,0.328-0.248c0.114-0.084,0.223-0.177,0.326-0.281
		c0.104-0.083,0.214-0.176,0.328-0.28c0.113-0.104,0.222-0.208,0.326-0.312s0.26-0.243,0.468-0.42
		c0.207-0.177,0.363-0.316,0.467-0.421c0.125-0.123,0.229-0.219,0.313-0.28l0.124-0.155l0.155-0.157
		c0.208-0.206,0.427-0.217,0.654-0.03c0.187,0.188,0.208,0.385,0.063,0.592l-0.063,0.093l-0.062,0.095l-0.155,0.188
		c-0.043,0.061-0.083,0.118-0.125,0.171c-0.043,0.052-0.083,0.109-0.126,0.171c-0.083,0.125-0.217,0.295-0.403,0.515
		C105.991,70.745,105.847,70.916,105.743,71.041z M92.287,65.153c-0.125,0.229-0.233,0.467-0.327,0.717
		c-0.094,0.249-0.183,0.497-0.266,0.748c-0.145,0.416-0.249,0.892-0.312,1.433l0.031,0.03c0.25,0.167,0.488,0.312,0.716,0.437
		c0.208,0.125,0.448,0.217,0.718,0.28c0.041,0.021,0.067,0.032,0.076,0.032c0.011,0,0.037,0.01,0.079,0.03
		c0.042,0,0.072,0.006,0.093,0.015c0.021,0.012,0.053,0.017,0.094,0.017c0.063,0.021,0.119,0.03,0.172,0.03
		c0.051,0,0.108,0.011,0.172,0.031c0.476,0.043,0.913,0,1.308-0.123c0.207-0.063,0.41-0.136,0.607-0.219s0.399-0.176,0.608-0.28
		c0.103-0.063,0.201-0.125,0.295-0.188s0.191-0.125,0.297-0.187c0.019-0.021,0.04-0.035,0.062-0.047
		c0.021-0.01,0.04-0.026,0.062-0.046l0.031-0.032l0.032-0.031c0.041-0.02,0.066-0.041,0.077-0.063
		c0.01-0.021,0.035-0.051,0.078-0.092c0.04-0.043,0.088-0.099,0.141-0.173c0.051-0.072,0.097-0.14,0.14-0.201
		c0.125-0.146,0.218-0.323,0.28-0.53c0.104-0.167,0.188-0.348,0.248-0.545c0.063-0.197,0.114-0.4,0.157-0.607
		c0.02-0.104,0.04-0.203,0.063-0.297c0.021-0.093,0.031-0.19,0.031-0.296c0.02-0.103,0.03-0.197,0.03-0.279c0-0.083,0-0.177,0-0.281
		c0.021-0.103,0.026-0.19,0.016-0.265c-0.011-0.072-0.016-0.149-0.016-0.232s-0.005-0.156-0.016-0.219
		c-0.011-0.062-0.015-0.114-0.015-0.156c-0.021-0.062-0.031-0.119-0.031-0.171c0-0.051-0.012-0.098-0.032-0.14
		c0-0.063-0.03-0.146-0.094-0.249c-0.04-0.042-0.083-0.088-0.124-0.141c-0.042-0.052-0.104-0.099-0.187-0.14
		c-0.146-0.104-0.322-0.187-0.529-0.249c-0.105-0.042-0.214-0.068-0.328-0.079c-0.114-0.01-0.223-0.025-0.326-0.047
		c-0.229-0.041-0.457-0.041-0.686,0c-0.478,0.063-0.936,0.229-1.37,0.499c-0.25,0.146-0.457,0.301-0.623,0.467
		c-0.187,0.166-0.364,0.343-0.53,0.53C92.815,64.282,92.515,64.718,92.287,65.153z"/>
	<path fill="#33ADFF" stroke="#33ADFF" stroke-miterlimit="10" d="M119.106,68.548c0.104,0.085,0.171,0.187,0.202,0.313
		c0.031,0.125,0.005,0.239-0.078,0.344l-4.734,5.917c-0.208,0.415-0.499,0.81-0.871,1.184c-0.209,0.208-0.422,0.384-0.64,0.529
		c-0.218,0.145-0.442,0.281-0.67,0.404c-0.229,0.104-0.462,0.192-0.701,0.266c-0.239,0.072-0.472,0.129-0.7,0.172
		c-0.52,0.062-0.986,0.082-1.401,0.062c-0.479-0.021-0.945-0.114-1.402-0.28c-0.271-0.083-0.499-0.176-0.686-0.28
		c-0.207-0.125-0.415-0.27-0.622-0.436c-0.105-0.084-0.198-0.162-0.28-0.233c-0.084-0.074-0.167-0.162-0.25-0.266
		c-0.146-0.166-0.291-0.362-0.436-0.592c-0.124-0.228-0.228-0.445-0.312-0.654c-0.084-0.207-0.156-0.425-0.219-0.653
		s-0.103-0.447-0.124-0.654c-0.021-0.208-0.041-0.416-0.062-0.623c0-0.229,0-0.447,0-0.655c0-0.206,0.021-0.414,0.062-0.622
		c0.042-0.207,0.083-0.409,0.124-0.607c0.042-0.197,0.083-0.399,0.126-0.607c0.04-0.104,0.072-0.202,0.093-0.296
		c0.021-0.093,0.052-0.192,0.094-0.296c0.041-0.104,0.077-0.197,0.108-0.28s0.068-0.176,0.109-0.281
		c0.042-0.104,0.088-0.196,0.14-0.28c0.053-0.082,0.099-0.165,0.141-0.248c0.021-0.042,0.041-0.089,0.063-0.14
		c0.021-0.052,0.041-0.1,0.062-0.141l0.031-0.063l0.063-0.062l0.063-0.126l0.56-0.996l1.122-1.962
		c0.187-0.332,0.368-0.659,0.545-0.98c0.177-0.323,0.349-0.649,0.515-0.982c0.187-0.352,0.362-0.69,0.529-1.012
		c0.166-0.322,0.332-0.659,0.498-1.013c0.041-0.104,0.083-0.166,0.124-0.187l0.094-0.28c0.043-0.063,0.068-0.124,0.078-0.187
		c0.011-0.063,0.036-0.125,0.078-0.187l0.093-0.187c0-0.021,0.006-0.036,0.017-0.047c0.01-0.01,0.015-0.036,0.015-0.078l0.032-0.062
		l0.03-0.032l0.031-0.03c0.331-0.582,0.814-0.955,1.448-1.122c0.633-0.166,1.242-0.073,1.822,0.281
		c0.562,0.332,0.925,0.815,1.091,1.448c0.166,0.634,0.083,1.241-0.25,1.823v-0.032h-0.03c0,0.042-0.011,0.063-0.031,0.063
		c-0.021,0.042-0.037,0.068-0.047,0.078c-0.011,0.011-0.025,0.037-0.047,0.078c-0.021,0.063-0.041,0.12-0.063,0.171
		c-0.021,0.052-0.053,0.109-0.093,0.171c-0.125,0.25-0.219,0.509-0.28,0.779c-0.104,0.292-0.168,0.561-0.188,0.81
		c-0.021,0.146-0.036,0.286-0.046,0.421c-0.011,0.136-0.017,0.275-0.017,0.421c-0.021,0.146-0.026,0.291-0.015,0.437
		c0.01,0.145,0.025,0.291,0.046,0.435c0.021,0.146,0.042,0.292,0.063,0.438c0.021,0.145,0.052,0.291,0.094,0.437
		c0,0.062,0.021,0.135,0.063,0.218l0.03,0.124v0.032v0.03l0.031,0.03l0.094,0.312c0.042,0.125,0.082,0.22,0.125,0.281
		c0.063,0.207,0.124,0.415,0.187,0.622c0.063,0.208,0.114,0.416,0.156,0.624c0.104,0.414,0.181,0.845,0.233,1.293
		c0.052,0.446,0.078,0.907,0.078,1.385c0,0.043-0.006,0.136-0.016,0.28c-0.011,0.146-0.016,0.239-0.016,0.281l3.27-4.111
		C118.618,68.445,118.836,68.404,119.106,68.548z M112.034,73.096c0.043-0.249,0.043-0.518,0-0.809
		c-0.02-0.166-0.04-0.316-0.062-0.452c-0.021-0.135-0.052-0.285-0.093-0.452c-0.063-0.312-0.156-0.602-0.28-0.872
		c-0.104-0.332-0.229-0.634-0.374-0.903c-0.021-0.062-0.053-0.135-0.094-0.219l-0.063-0.123l-0.063-0.126v-0.031l-0.03-0.03
		l-0.032-0.062l-0.061-0.156c-0.063-0.104-0.115-0.208-0.157-0.313c-0.104-0.206-0.191-0.415-0.265-0.622
		c-0.073-0.208-0.15-0.425-0.232-0.653c-0.063-0.229-0.121-0.457-0.172-0.687c-0.054-0.228-0.099-0.456-0.14-0.684
		c-0.043-0.229-0.068-0.463-0.079-0.702c-0.011-0.238-0.026-0.472-0.047-0.701v-0.311l-0.841,1.682
		c-0.166,0.353-0.332,0.691-0.497,1.012c-0.167,0.322-0.333,0.659-0.499,1.013l-0.467,1.027l-0.094,0.25
		c-0.021,0.042-0.037,0.083-0.047,0.124c-0.011,0.042-0.026,0.084-0.047,0.124c-0.104,0.166-0.167,0.334-0.187,0.499
		c-0.125,0.313-0.219,0.644-0.28,0.997c-0.063,0.354-0.094,0.695-0.094,1.027c-0.021,0.167-0.026,0.326-0.017,0.483
		c0.011,0.155,0.027,0.316,0.047,0.482c0.042,0.166,0.078,0.327,0.11,0.483c0.03,0.156,0.076,0.306,0.14,0.451
		c0.041,0.146,0.099,0.279,0.171,0.405c0.073,0.125,0.15,0.238,0.233,0.342c0.083,0.104,0.178,0.198,0.28,0.28
		c0.104,0.083,0.208,0.167,0.312,0.25c0.104,0.062,0.213,0.109,0.328,0.141c0.113,0.029,0.232,0.067,0.357,0.108
		c0.228,0.062,0.508,0.072,0.842,0.032c0.29,0,0.571-0.054,0.84-0.157c0.146-0.04,0.275-0.088,0.39-0.14
		c0.113-0.052,0.223-0.109,0.327-0.171c0.374-0.271,0.634-0.635,0.779-1.091c0.041-0.104,0.071-0.218,0.093-0.343
		C111.994,73.377,112.015,73.242,112.034,73.096z"/>
</g>
</svg>
