<?xml version="1.0" encoding="utf-8"?>
<!-- Generator: Adobe Illustrator 15.0.0, SVG Export Plug-In . SVG Version: 6.00 Build 0)  -->
<!DOCTYPE svg PUBLIC "-//W3C//DTD SVG 1.1//EN" "http://www.w3.org/Graphics/SVG/1.1/DTD/svg11.dtd">
<svg version="1.1" id="Capa_1" xmlns="http://www.w3.org/2000/svg" xmlns:xlink="http://www.w3.org/1999/xlink" x="0px" y="0px"
	 width="512px" height="512px" viewBox="0 0 512 512" enable-background="new 0 0 512 512" xml:space="preserve">
<g>
	<path fill="#FFAE42" d="M292.526,139.129c1.296,1.295,2.996,1.946,4.697,1.946c1.7,0,3.401-0.651,4.696-1.946
		c2.598-2.598,2.598-6.796,0-9.394l-32.884-32.884c-2.598-2.598-6.796-2.598-9.394,0s-2.598,6.796,0,9.394L292.526,139.129z"/>
	<path fill="#FFAE42" d="M337.083,127.789c3.667,0,6.643-2.97,6.643-6.644V74.643c0-3.674-2.976-6.643-6.643-6.643
		s-6.644,2.969-6.644,6.643v46.502C330.439,124.819,333.416,127.789,337.083,127.789z"/>
	<path fill="#FFAE42" d="M376.941,141.075c1.701,0,3.402-0.651,4.697-1.946l32.884-32.884c2.598-2.598,2.598-6.796,0-9.394
		s-6.796-2.598-9.394,0l-32.884,32.884c-2.598,2.598-2.598,6.796,0,9.394C373.54,140.424,375.241,141.075,376.941,141.075z"/>
	<path fill="#FFAE42" d="M237.434,180.935h46.502c3.668,0,6.644-2.97,6.644-6.644s-2.976-6.643-6.644-6.643h-46.502
		c-3.667,0-6.643,2.969-6.643,6.643S233.767,180.935,237.434,180.935z"/>
	
		<rect x="301.711" y="149.863" transform="matrix(-0.7071 -0.7071 0.7071 -0.7071 414.0302 553.4333)" fill="#FF5CA5" width="39.853" height="82.206"/>
	<path fill="#FFAE42" d="M381.639,209.454c-2.598-2.597-6.796-2.597-9.394,0c-2.598,2.598-2.598,6.796,0,9.394l32.884,32.884
		c1.296,1.295,2.997,1.946,4.697,1.946c1.701,0,3.401-0.651,4.696-1.946c2.598-2.598,2.598-6.796,0-9.394L381.639,209.454z"/>
	<path fill="#FFAE42" d="M436.731,167.648h-46.503c-3.667,0-6.644,2.969-6.644,6.643s2.977,6.644,6.644,6.644h46.503
		c3.666,0,6.643-2.97,6.643-6.644S440.397,167.648,436.731,167.648z"/>
	<path fill="#FFAE42" d="M337.083,220.794c-3.667,0-6.644,2.97-6.644,6.644v46.503c0,3.674,2.977,6.643,6.644,6.643
		s6.643-2.969,6.643-6.643v-46.503C343.726,223.764,340.75,220.794,337.083,220.794z"/>
	
		<rect x="163.015" y="187.914" transform="matrix(-0.7071 -0.7071 0.7071 -0.7071 79.1943 692.1436)" fill="#933EC5" width="39.863" height="283.511"/>
</g>
</svg>
