<?xml version="1.0" encoding="utf-8"?>
<!-- Generator: Adobe Illustrator 15.0.0, SVG Export Plug-In . SVG Version: 6.00 Build 0)  -->
<!DOCTYPE svg PUBLIC "-//W3C//DTD SVG 1.1//EN" "http://www.w3.org/Graphics/SVG/1.1/DTD/svg11.dtd">
<svg version="1.1" id="Layer_1" xmlns="http://www.w3.org/2000/svg" xmlns:xlink="http://www.w3.org/1999/xlink" x="0px" y="0px"
	 width="96px" height="96px" viewBox="0 0 96 96" enable-background="new 0 0 96 96" xml:space="preserve">
<g>
	<path fill="#FF5CA5" d="M69.577,35.117v5.368c-1.594,0.797-3.877,2.088-6.859,3.877c-2.982,1.789-6.366,4.077-10.141,6.859v2.685
		h20.28c1.985,0,5.168-0.098,9.544-0.299v5.965c-4.376-0.396-7.559-0.597-9.544-0.597h-20.28v15.21
		c-0.201,3.975-1.491,6.264-3.877,6.86c-2.386,0.596-5.867,1.089-10.438,1.491c-0.201-1.99-0.895-4.377-2.087-7.158
		c4.571,0.396,7.456,0.447,8.649,0.149s1.687-1.641,1.491-4.026V58.976H25.438c-3.183,0-6.263,0.104-9.245,0.299v-5.667
		c2.982,0.201,5.965,0.299,8.947,0.299h21.175c0-1.79-0.201-3.477-0.596-5.07c1.789-0.792,3.774-1.887,5.964-3.281
		c2.186-1.389,4.869-3.178,8.053-5.369H36.473c-3.579,0-6.561,0.103-8.947,0.298v-5.667c2.386,0.201,5.265,0.298,8.649,0.298H69.577
		z M52.577,21.397h27.141c-0.201,2.982-0.299,5.271-0.299,6.859c0,1.394,0.098,3.384,0.299,5.965h-5.965v-8.052H23.947v8.351h-5.965
		c0.195-2.782,0.298-4.967,0.298-6.561c0-1.589-0.103-3.775-0.298-6.562h27.736c-1.394-2.186-3.085-4.175-5.07-5.965
		c1.589-0.992,3.28-2.185,5.07-3.579C49.492,16.827,51.78,20.009,52.577,21.397z"/>
</g>
</svg>
