<?xml version="1.0" encoding="utf-8"?>
<!-- Generator: Adobe Illustrator 15.0.0, SVG Export Plug-In . SVG Version: 6.00 Build 0)  -->
<!DOCTYPE svg PUBLIC "-//W3C//DTD SVG 1.1//EN" "http://www.w3.org/Graphics/SVG/1.1/DTD/svg11.dtd">
<svg version="1.1" id="Layer_1" xmlns="http://www.w3.org/2000/svg" xmlns:xlink="http://www.w3.org/1999/xlink" x="0px" y="0px"
	 width="96px" height="96px" viewBox="0 0 96 96" enable-background="new 0 0 96 96" xml:space="preserve">
<g>
	<path fill="#FF725C" d="M67.739,36.212v4.881c-1.45,0.725-3.525,1.899-6.237,3.526c-2.712,1.627-5.79,3.708-9.222,6.237v2.442
		h18.442c1.804,0,4.699-0.089,8.678-0.271v5.424c-3.979-0.36-6.874-0.543-8.678-0.543H52.28v13.832
		c-0.184,3.614-1.356,5.696-3.526,6.238c-2.169,0.541-5.335,0.99-9.492,1.355c-0.183-1.81-0.814-3.979-1.898-6.509
		c4.157,0.359,6.781,0.406,7.866,0.136c1.085-0.272,1.534-1.492,1.355-3.662V57.909H27.6c-2.895,0-5.695,0.094-8.407,0.271v-5.154
		c2.712,0.183,5.425,0.272,8.136,0.272h19.256c0-1.628-0.183-3.162-0.542-4.61c1.627-0.721,3.433-1.716,5.424-2.984
		c1.988-1.263,4.428-2.89,7.323-4.882H37.635c-3.255,0-5.966,0.093-8.136,0.271v-5.153c2.17,0.183,4.788,0.271,7.865,0.271
		L67.739,36.212L67.739,36.212z M52.28,23.735h24.681c-0.182,2.712-0.271,4.793-0.271,6.237c0,1.268,0.09,3.078,0.271,5.425h-5.425
		v-7.323H26.244v7.594H20.82c0.177-2.53,0.271-4.517,0.271-5.966c0-1.445-0.094-3.433-0.271-5.967h25.222
		c-1.267-1.988-2.805-3.796-4.61-5.424c1.445-0.902,2.983-1.987,4.61-3.255C49.475,19.579,51.555,22.473,52.28,23.735z"/>
</g>
</svg>
