<?xml version="1.0" encoding="iso-8859-1"?>
<!-- Generator: Adobe Illustrator 19.0.0, SVG Export Plug-In . SVG Version: 6.00 Build 0)  -->
<svg version="1.1" id="Capa_1" xmlns="http://www.w3.org/2000/svg" xmlns:xlink="http://www.w3.org/1999/xlink" x="0px" y="0px"
	 viewBox="0 0 512 512" style="enable-background:new 0 0 512 512;" xml:space="preserve">
<path style="fill:#C745A3;" d="M128.811,238.768H15c-8.284,0-15-6.716-15-15v-103.81c0-8.284,6.716-15,15-15h113.811
	c8.284,0,15,6.716,15,15v103.811C143.811,232.052,137.096,238.768,128.811,238.768z"/>
<path style="fill:#FF5CA5;" d="M71.906,104.958H15c-8.284,0-15,6.716-15,15v103.811c0,8.284,6.716,15,15,15h56.906V104.958z"/>
<path style="fill:#FFAE42;" d="M497,238.768H204.095c-8.284,0-15-6.716-15-15v-103.81c0-8.284,6.716-15,15-15H497
	c8.284,0,15,6.716,15,15v103.811C512,232.052,505.284,238.768,497,238.768z"/>
<path style="fill:#FFDF63;" d="M350.547,104.958H204.095c-8.284,0-15,6.716-15,15v103.811c0,8.284,6.716,15,15,15h146.453V104.958
	H350.547z"/>
<path style="fill:#FFAE42;" d="M307.905,407.042H15c-8.284,0-15-6.716-15-15v-103.81c0-8.284,6.716-15,15-15h292.905
	c8.284,0,15,6.716,15,15v103.811C322.905,400.326,316.19,407.042,307.905,407.042z"/>
<path style="fill:#FFDF63;" d="M161.453,273.232H15c-8.284,0-15,6.716-15,15v103.811c0,8.284,6.716,15,15,15h146.453V273.232z"/>
<path style="fill:#C745A3;" d="M497,407.042H383.189c-8.284,0-15-6.716-15-15v-103.81c0-8.284,6.716-15,15-15H497
	c8.284,0,15,6.716,15,15v103.811C512,400.326,505.284,407.042,497,407.042z"/>
<path style="fill:#FF5CA5;" d="M440.094,273.23h-56.906c-8.284,0-15,6.716-15,15v103.811c0,8.284,6.716,15,15,15h56.906V273.23z"/>
<g>
</g>
<g>
</g>
<g>
</g>
<g>
</g>
<g>
</g>
<g>
</g>
<g>
</g>
<g>
</g>
<g>
</g>
<g>
</g>
<g>
</g>
<g>
</g>
<g>
</g>
<g>
</g>
<g>
</g>
</svg>
