<?xml version="1.0" encoding="utf-8"?>
<!-- Generator: Adobe Illustrator 15.0.0, SVG Export Plug-In . SVG Version: 6.00 Build 0)  -->
<!DOCTYPE svg PUBLIC "-//W3C//DTD SVG 1.1//EN" "http://www.w3.org/Graphics/SVG/1.1/DTD/svg11.dtd">
<svg version="1.1" id="Capa_1" xmlns="http://www.w3.org/2000/svg" xmlns:xlink="http://www.w3.org/1999/xlink" x="0px" y="0px"
	 width="595.279px" height="841.89px" viewBox="0 0 595.279 841.89" enable-background="new 0 0 595.279 841.89"
	 xml:space="preserve">
<path fill="#C745A3" d="M149.763,400.91H17.44C7.809,400.91,0,393.102,0,383.47V262.775c0-9.631,7.809-17.44,17.439-17.44h132.323
	c9.632,0,17.439,7.809,17.439,17.44v120.697C167.202,393.102,159.396,400.91,149.763,400.91z"/>
<path fill="#FF5CA5" d="M83.602,245.335H17.44C7.809,245.335,0,253.144,0,262.775v120.697c0,9.631,7.809,17.439,17.439,17.439
	h66.162V245.335z"/>
<path fill="#FFAE42" d="M577.84,400.91H237.292c-9.631,0-17.439-7.809-17.439-17.44V262.775c0-9.631,7.809-17.44,17.439-17.44
	H577.84c9.632,0,17.439,7.809,17.439,17.44v120.697C595.28,393.102,587.472,400.91,577.84,400.91z"/>
<path fill="#FFDF63" d="M407.566,245.335H237.292c-9.631,0-17.439,7.809-17.439,17.44v120.697c0,9.631,7.809,17.439,17.439,17.439
	h170.274L407.566,245.335L407.566,245.335z"/>
<path fill="#FFAE42" d="M357.988,596.554H17.44C7.809,596.554,0,588.748,0,579.115V458.419c0-9.631,7.809-17.439,17.439-17.439
	h340.548c9.632,0,17.439,7.809,17.439,17.439v120.697C375.427,588.748,367.62,596.554,357.988,596.554z"/>
<path fill="#FFDF63" d="M187.714,440.98H17.44C7.809,440.98,0,448.789,0,458.419v120.697c0,9.631,7.809,17.439,17.439,17.439
	h170.274V440.98z"/>
<path fill="#C745A3" d="M577.84,596.554H445.517c-9.631,0-17.439-7.807-17.439-17.439V458.419c0-9.631,7.809-17.439,17.439-17.439
	H577.84c9.632,0,17.439,7.809,17.439,17.439v120.697C595.28,588.748,587.472,596.554,577.84,596.554z"/>
<path fill="#FF5CA5" d="M511.678,440.978h-66.162c-9.632,0-17.439,7.809-17.439,17.439v120.697c0,9.631,7.808,17.439,17.439,17.439
	h66.162V440.978z"/>
</svg>
