<?xml version="1.0" encoding="utf-8"?>
<!-- Generator: Adobe Illustrator 15.0.0, SVG Export Plug-In . SVG Version: 6.00 Build 0)  -->
<!DOCTYPE svg PUBLIC "-//W3C//DTD SVG 1.1//EN" "http://www.w3.org/Graphics/SVG/1.1/DTD/svg11.dtd">
<svg version="1.1" id="图层_1" xmlns="http://www.w3.org/2000/svg" xmlns:xlink="http://www.w3.org/1999/xlink" x="0px" y="0px"
	 width="128px" height="128px" viewBox="0 0 128 128" enable-background="new 0 0 128 128" xml:space="preserve">
<path fill="#FF5CA5" d="M16.227,85.335V41.638c0-1.971,1.599-3.569,3.569-3.569h6.754c1.971,0,3.569,1.598,3.569,3.569v43.697
	c0,1.97-1.598,3.567-3.569,3.567h-6.754C17.826,88.902,16.227,87.305,16.227,85.335z"/>
<path fill="#FF5CA5" d="M37.251,85.335V41.638c0-1.971,1.599-3.569,3.569-3.569h6.754c1.97,0,3.569,1.598,3.569,3.569v43.697
	c0,1.97-1.599,3.567-3.569,3.567H40.82C38.85,88.902,37.251,87.305,37.251,85.335z"/>
<path fill="#FF5CA5" d="M58.275,85.335V41.638c0-1.971,1.598-3.569,3.569-3.569h6.753c1.973,0,3.569,1.598,3.569,3.569v43.697
	c0,1.97-1.599,3.567-3.569,3.567h-6.753C59.874,88.902,58.275,87.305,58.275,85.335z"/>
<path fill="#FFDF63" d="M79.3,85.335V41.638c0-1.971,1.599-3.569,3.569-3.569h6.753c1.972,0,3.569,1.598,3.569,3.569v43.697
	c0,1.97-1.599,3.567-3.569,3.567h-6.754C80.896,88.902,79.3,87.305,79.3,85.335z"/>
<path fill="#FF5CA5" d="M100.322,85.335V41.638c0-1.971,1.599-3.569,3.57-3.569h6.754c1.971,0,3.568,1.598,3.568,3.569v43.697
	c0,1.97-1.599,3.567-3.568,3.567h-6.754C101.921,88.902,100.322,87.305,100.322,85.335z"/>
</svg>
