<?xml version="1.0" encoding="utf-8"?>
<!-- Generator: Adobe Illustrator 15.0.0, SVG Export Plug-In . SVG Version: 6.00 Build 0)  -->
<!DOCTYPE svg PUBLIC "-//W3C//DTD SVG 1.1//EN" "http://www.w3.org/Graphics/SVG/1.1/DTD/svg11.dtd">
<svg version="1.1" id="图层_1" xmlns="http://www.w3.org/2000/svg" xmlns:xlink="http://www.w3.org/1999/xlink" x="0px" y="0px"
	 width="128px" height="128px" viewBox="0 0 128 128" enable-background="new 0 0 128 128" xml:space="preserve">
<path fill="#409BFF" d="M95.361,42.081H33.908c-6.613,0-12.023,5.411-12.023,12.023v15.363c0,6.613,5.411,12.023,12.023,12.023
	h61.453c6.613,0,12.021-5.41,12.021-12.023V54.104C107.385,47.492,101.975,42.081,95.361,42.081z M102.709,69.468
	c0,1.954-0.768,3.791-2.154,5.193c-1.402,1.401-3.238,2.153-5.193,2.153H33.908c-1.954,0-3.791-0.77-5.193-2.153
	c-1.386-1.402-2.154-3.239-2.154-5.193V54.104c0-1.954,0.768-3.791,2.154-5.193c1.402-1.386,3.239-2.154,5.193-2.154h61.453
	c1.953,0,3.791,0.768,5.193,2.154c1.399,1.402,2.151,3.239,2.151,5.193L102.709,69.468L102.709,69.468z"/>
<path fill="#409BFF" d="M45.264,66.212c0,1.337,1.084,2.421,2.421,2.421s2.421-1.084,2.421-2.421c0-1.338-1.084-2.422-2.421-2.422
	S45.264,64.874,45.264,66.212z"/>
<path fill="#409BFF" d="M54.782,66.212c0,1.337,1.084,2.421,2.421,2.421s2.421-1.084,2.421-2.421c0-1.338-1.084-2.422-2.421-2.422
	S54.782,64.874,54.782,66.212z"/>
<path fill="#409BFF" d="M64.301,66.212c0,1.337,1.084,2.421,2.422,2.421s2.422-1.084,2.422-2.421c0-1.338-1.084-2.422-2.422-2.422
	S64.301,64.874,64.301,66.212z"/>
<path fill="#409BFF" d="M34.743,54.939h4.676v13.693h-4.676V54.939z"/>
</svg>
