<?xml version="1.0" encoding="utf-8"?>
<!-- Generator: Adobe Illustrator 15.0.0, SVG Export Plug-In . SVG Version: 6.00 Build 0)  -->
<!DOCTYPE svg PUBLIC "-//W3C//DTD SVG 1.1//EN" "http://www.w3.org/Graphics/SVG/1.1/DTD/svg11.dtd">
<svg version="1.1" id="图层_1" xmlns="http://www.w3.org/2000/svg" xmlns:xlink="http://www.w3.org/1999/xlink" x="0px" y="0px"
	 width="128px" height="128px" viewBox="0 0 128 128" enable-background="new 0 0 128 128" xml:space="preserve">
<g>
	<path fill="none" d="M29.271,49.669h70.764c2.717,0,5.004-2.287,5.004-5.003s-2.287-5.003-5.004-5.003H29.271
		c-2.717,0-5.004,2.287-5.004,5.003S26.555,49.669,29.271,49.669z"/>
	<path fill="none" d="M99.999,76.831H29.235c-2.715,0-5.003,2.287-5.003,5.004c0,2.716,2.288,5.003,5.003,5.003h70.764
		c2.717,0,5.004-2.287,5.004-5.003C105.003,79.118,102.716,76.831,99.999,76.831z"/>
	<path fill="#A0D468" d="M99.999,66.824H29.235c-8.255,0-15.01,6.754-15.01,15.011c0,8.256,6.755,15.01,15.01,15.01h70.764
		c8.257,0,15.011-6.754,15.011-15.01C115.01,73.578,108.256,66.824,99.999,66.824z M99.999,86.838H29.235
		c-2.715,0-5.003-2.287-5.003-5.003c0-2.717,2.288-5.004,5.003-5.004h70.764c2.717,0,5.004,2.287,5.004,5.004
		C105.003,84.551,102.716,86.838,99.999,86.838z"/>
	<path fill="#933EC5" d="M107.18,103.993H90.461c-2.751,0-5.003,2.252-5.003,5.003c0,2.752,2.252,5.004,5.003,5.004h16.719
		c2.752,0,5.004-2.252,5.004-5.004C112.184,106.245,109.932,103.993,107.18,103.993z"/>
	<path fill="#A0D468" d="M21.193,22.507h31.629c2.646,0,4.79-2.144,4.79-4.789v-0.429c0-2.645-2.144-4.789-4.79-4.789H21.193
		c-2.644,0-4.788,2.145-4.788,4.789v0.429C16.405,20.363,18.549,22.507,21.193,22.507z"/>
	<path fill="#A0D468" d="M29.271,59.676h70.764c8.257,0,15.011-6.754,15.011-15.011c0-8.256-6.754-15.011-15.011-15.011H29.271
		c-8.256,0-15.011,6.755-15.011,15.011C14.261,52.922,21.015,59.676,29.271,59.676z M29.271,39.662h70.764
		c2.717,0,5.004,2.287,5.004,5.003s-2.287,5.003-5.004,5.003H29.271c-2.717,0-5.004-2.287-5.004-5.003S26.555,39.662,29.271,39.662z
		"/>
	<path fill="#A0D468" d="M71.877,103.993H55.158c-2.751,0-5.003,2.252-5.003,5.003c0,2.752,2.252,5.004,5.003,5.004h16.719
		c2.752,0,5.004-2.252,5.004-5.004C76.881,106.245,74.629,103.993,71.877,103.993z"/>
</g>
</svg>
