<?xml version="1.0" encoding="utf-8"?>
<!-- Generator: Adobe Illustrator 15.0.0, SVG Export Plug-In . SVG Version: 6.00 Build 0)  -->
<!DOCTYPE svg PUBLIC "-//W3C//DTD SVG 1.1//EN" "http://www.w3.org/Graphics/SVG/1.1/DTD/svg11.dtd">
<svg version="1.1" id="Layer_1" xmlns="http://www.w3.org/2000/svg" xmlns:xlink="http://www.w3.org/1999/xlink" x="0px" y="0px"
	 width="96px" height="96px" viewBox="0 0 96 96" enable-background="new 0 0 96 96" xml:space="preserve">
<path fill="#B87FD9" d="M87.894,25.805L77.616,15.528c-1.419-1.418-3.718-1.417-5.138,0L49,39.008L35.796,52.212L25.52,41.935
	c-0.681-0.68-1.605-1.063-2.569-1.063c-0.962,0-1.887,0.383-2.568,1.064L10.107,52.212c-1.419,1.419-1.419,3.719,0,5.139
	l23.12,23.12c0.681,0.683,1.604,1.064,2.569,1.064c0.963,0,1.888-0.384,2.568-1.064L49,69.835l38.895-38.893
	c0.681-0.682,1.064-1.606,1.064-2.569S88.574,26.485,87.894,25.805z"/>
<path fill="#933EC5" d="M33.227,80.473c0.681,0.681,1.604,1.063,2.569,1.063c0.963,0,1.888-0.382,2.568-1.063L49,69.835V39.008
	L35.796,52.212L25.52,41.935c-0.681-0.68-1.604-1.064-2.569-1.064c-0.962,0-1.887,0.384-2.568,1.064L10.107,52.212
	c-1.419,1.419-1.419,3.719,0,5.139L33.227,80.473z"/>
</svg>
