<?xml version="1.0" encoding="utf-8"?>
<!-- Generator: Adobe Illustrator 15.0.0, SVG Export Plug-In . SVG Version: 6.00 Build 0)  -->
<!DOCTYPE svg PUBLIC "-//W3C//DTD SVG 1.1//EN" "http://www.w3.org/Graphics/SVG/1.1/DTD/svg11.dtd">
<svg version="1.1" id="图层_1" xmlns="http://www.w3.org/2000/svg" xmlns:xlink="http://www.w3.org/1999/xlink" x="0px" y="0px"
	 width="128px" height="128px" viewBox="0 0 128 128" enable-background="new 0 0 128 128" xml:space="preserve">
<path fill="#047BF8" d="M87.104,49.399h13.715c2.438,0,4.267,1.828,4.267,4.266v27.123c0,2.437-1.828,4.267-4.267,4.267H87.104
	v7.313c0,2.133,1.523,3.657,3.656,3.657h7.314v7.313H84.057H69.123v-7.313h7.314c2.131,0,3.656-1.524,3.656-3.657V42.084
	c0-2.133-1.525-3.657-3.656-3.657h-7.314v-7.009h29.256v7.313h-7.313c-2.135,0-3.658,1.523-3.658,3.657v7.01 M87.104,78.044h10.668
	c0.304,0,0.304-0.303,0.304-0.303V56.713c0-0.306-0.304-0.306-0.304-0.306H87.104V78.044z M33.163,56.407h31.389v-7.008H29.505
	c-2.438,0-4.571,2.133-4.571,4.571v27.124c0,2.438,1.829,4.569,4.571,4.569h35.351V78.35H33.163c-0.61,0-0.915-0.307-0.915-0.914
	V57.627C32.248,57.018,32.857,56.407,33.163,56.407z"/>
</svg>
