<?xml version="1.0" encoding="utf-8"?>
<!-- Generator: Adobe Illustrator 15.0.0, SVG Export Plug-In . SVG Version: 6.00 Build 0)  -->
<!DOCTYPE svg PUBLIC "-//W3C//DTD SVG 1.1//EN" "http://www.w3.org/Graphics/SVG/1.1/DTD/svg11.dtd">
<svg version="1.1" id="Layer_1" xmlns="http://www.w3.org/2000/svg" xmlns:xlink="http://www.w3.org/1999/xlink" x="0px" y="0px"
	 width="96px" height="96px" viewBox="0 0 96 96" enable-background="new 0 0 96 96" xml:space="preserve">
<path fill="#AC92EB" d="M1.998,72C0.894,72,0,72.897,0,74v20.003C0,95.106,0.894,96,1.998,96h91.998C95.103,96,96,95.106,96,94.003
	V74c0-1.103-0.897-2-2.004-2H1.998z"/>
<path fill="#5D9CEC" d="M93.433,61.169l-7.657-18.478c-0.423-1.02-1.594-1.506-2.612-1.081L0,76.058v10.407L3.95,96h10.617
	L92.35,63.781C93.369,63.359,93.854,62.192,93.433,61.169z"/>
<path fill="#4FC2E9" d="M0,88.811L7.189,96h9.657l61.641-61.638c0.779-0.782,0.779-2.048,0-2.83L64.342,17.391
	c-0.778-0.782-2.045-0.782-2.826,0L0,78.908V88.811z"/>
<path fill="#48CFAD" d="M0,92.019L9.609,96h10.406l34.446-83.166c0.426-1.019-0.058-2.19-1.081-2.613L34.904,2.569
	c-1.019-0.424-2.19,0.062-2.612,1.083L0,81.616V92.019z"/>
<path fill="#A0D468" d="M0,94.003C0,95.106,0.894,96,1.998,96h19.998C23.105,96,24,95.104,24,94.003V2.001
	C24,0.896,23.105,0,21.996,0H1.998C0.894,0,0,0.896,0,2.001V94.003L0,94.003z"/>
<path fill="#E6E9ED" d="M0,72.003v22C0,95.106,0.894,96,1.998,96h19.998C23.105,96,24,95.104,24,94.003v-22H0z"/>
<path d="M12,82.003c-1.107,0-2.003,0.893-2.003,1.997s0.896,2,2.003,2c1.101,0,1.998-0.896,1.998-2S13.101,82.003,12,82.003z"/>
<path d="M12.762,85.926c-1.021,0.42-2.188-0.063-2.614-1.085c-0.422-1.021,0.065-2.188,1.084-2.613
	c1.02-0.422,2.191,0.064,2.614,1.084C14.267,84.331,13.782,85.503,12.762,85.926z"/>
<path d="M13.429,85.275c-0.778,0.779-2.044,0.779-2.826,0c-0.783-0.783-0.783-2.05,0-2.831c0.782-0.779,2.048-0.779,2.826,0
	C14.212,83.226,14.212,84.492,13.429,85.275z"/>
<path d="M13.846,84.768c-0.422,1.021-1.594,1.503-2.614,1.081c-1.019-0.422-1.506-1.594-1.084-2.614
	c0.425-1.019,1.593-1.505,2.614-1.08C13.784,82.576,14.268,83.745,13.846,84.768z"/>
<path d="M9.997,84c0,1.104,0.896,2,2.003,2c1.101,0,1.998-0.896,1.998-2S13.101,82.003,12,82.003
	C10.893,82.003,9.997,82.896,9.997,84z"/>
<path fill="#434A54" d="M9.997,84c0,1.104,0.896,2,2.003,2c1.101,0,1.998-0.896,1.998-2S13.101,82.003,12,82.003
	C10.893,82.003,9.997,82.896,9.997,84z"/>
</svg>
