<?xml version="1.0" encoding="utf-8"?>
<!-- Generator: Adobe Illustrator 15.0.0, SVG Export Plug-In . SVG Version: 6.00 Build 0)  -->
<!DOCTYPE svg PUBLIC "-//W3C//DTD SVG 1.1//EN" "http://www.w3.org/Graphics/SVG/1.1/DTD/svg11.dtd">
<svg version="1.1" id="Layer_1" xmlns="http://www.w3.org/2000/svg" xmlns:xlink="http://www.w3.org/1999/xlink" x="0px" y="0px"
	 width="96px" height="96px" viewBox="0 0 96 96" enable-background="new 0 0 96 96" xml:space="preserve">
<g>
	<path fill="#FFAE42" d="M36.415,78.5v-2.771c1.176-0.195,2.106-0.455,2.792-0.777c0.687-0.321,1.197-0.776,1.533-1.364
		s0.546-1.337,0.63-2.247c0.084-0.909,0.126-2.036,0.126-3.38V26.094h-3.401c-1.68,0-2.968,0.196-3.863,0.588
		c-0.896,0.393-1.673,1.008-2.331,1.848c-0.657,0.84-1.225,1.967-1.7,3.38c-0.477,1.414-0.868,2.75-1.176,4.01h-5.753V21.181h49.425
		V35.92h-5.753c-0.532-1.903-0.952-3.303-1.26-4.199c-0.309-0.896-0.65-1.659-1.029-2.289c-0.377-0.63-0.776-1.155-1.196-1.575
		s-0.868-0.756-1.344-1.008c-0.477-0.252-1.071-0.441-1.784-0.567c-0.715-0.126-1.646-0.189-2.793-0.189h-3.023V67.96
		c0,1.484,0.042,2.61,0.126,3.38c0.084,0.771,0.237,1.394,0.462,1.869c0.224,0.477,0.497,0.861,0.818,1.154
		c0.322,0.295,0.771,0.561,1.344,0.799c0.574,0.237,1.351,0.427,2.331,0.566V78.5H36.415z"/>
</g>
</svg>
