<?xml version="1.0" encoding="utf-8"?>
<!-- Generator: Adobe Illustrator 15.0.0, SVG Export Plug-In . SVG Version: 6.00 Build 0)  -->
<!DOCTYPE svg PUBLIC "-//W3C//DTD SVG 1.1//EN" "http://www.w3.org/Graphics/SVG/1.1/DTD/svg11.dtd">
<svg version="1.1" id="图层_1" xmlns="http://www.w3.org/2000/svg" xmlns:xlink="http://www.w3.org/1999/xlink" x="0px" y="0px"
	 width="96px" height="96px" viewBox="0 0 96 96" enable-background="new 0 0 96 96" xml:space="preserve">
<g>
	<path fill="#AC92EB" d="M27.854,60.629H13.756c-1.297,0-2.35,0.768-2.35,1.715v10.287c0,0.948,1.053,1.715,2.35,1.715h14.098
		c1.297,0,2.35-0.767,2.35-1.715V62.344C30.203,61.396,29.151,60.629,27.854,60.629z"/>
	<path fill="#A0D468" d="M27.854,41.427H13.756c-1.297,0-2.35,0.766-2.35,1.715V53.43c0,0.947,1.053,1.715,2.35,1.715h14.098
		c1.297,0,2.35-0.768,2.35-1.715V43.141C30.203,42.192,29.151,41.427,27.854,41.427z"/>
	<path fill="#5DCFAD" d="M27.854,21.406H13.756c-1.297,0-2.35,0.768-2.35,1.714v10.287c0,0.947,1.053,1.714,2.35,1.714h14.098
		c1.297,0,2.35-0.766,2.35-1.714V23.121C30.203,22.174,29.151,21.406,27.854,21.406z"/>
	<path fill="#5DCFAD" d="M84.244,21.406H41.951c-1.3,0-2.35,0.768-2.35,1.714v10.287c0,0.947,1.05,1.714,2.35,1.714h42.293
		c1.299,0,2.35-0.766,2.35-1.714V23.121C86.594,22.174,85.544,21.406,84.244,21.406z"/>
	<path fill="#A0D468" d="M84.244,41.427H41.951c-1.3,0-2.35,0.766-2.35,1.715V53.43c0,0.947,1.05,1.715,2.35,1.715h42.293
		c1.299,0,2.35-0.768,2.35-1.715V43.141C86.594,42.192,85.544,41.427,84.244,41.427z"/>
	<path fill="#AC92EB" d="M84.244,60.629H41.951c-1.3,0-2.35,0.768-2.35,1.715v10.287c0,0.947,1.05,1.715,2.35,1.715h42.293
		c1.299,0,2.35-0.768,2.35-1.715V62.344C86.594,61.396,85.544,60.629,84.244,60.629z"/>
</g>
</svg>
