<?xml version="1.0" encoding="utf-8"?>
<!-- Generator: Adobe Illustrator 15.0.0, SVG Export Plug-In . SVG Version: 6.00 Build 0)  -->
<!DOCTYPE svg PUBLIC "-//W3C//DTD SVG 1.1//EN" "http://www.w3.org/Graphics/SVG/1.1/DTD/svg11.dtd">
<svg version="1.1" id="Layer_1" xmlns="http://www.w3.org/2000/svg" xmlns:xlink="http://www.w3.org/1999/xlink" x="0px" y="0px"
	 width="96px" height="96px" viewBox="0 0 96 96" enable-background="new 0 0 96 96" xml:space="preserve">
<path fill="#A0D468" d="M79.808,54.021H59.988V40.882h19.819c0.547,0,1.095-0.547,1.095-1.095c0-0.548-0.439-1.096-1.095-1.096
	H59.988V23.801c0-0.547-0.547-1.095-1.095-1.095c-0.547,0-1.095,0.438-1.095,1.095v14.892H38.089V23.801
	c0-0.547-0.547-1.095-1.095-1.095s-1.095,0.438-1.095,1.095v14.892H16.08c-0.547,0-1.095,0.547-1.095,1.096
	c0,0.547,0.438,1.094,1.095,1.094h19.819v13.139H16.08c-0.547,0-1.095,0.549-1.095,1.096c0,0.548,0.438,1.095,1.095,1.095h19.819
	v14.893c0,0.548,0.547,1.094,1.095,1.094s1.095-0.438,1.095-1.094V56.212h19.709v14.893c0,0.548,0.548,1.094,1.095,1.094
	c0.548,0,1.095-0.438,1.095-1.094V56.212h19.819c0.547,0,1.095-0.547,1.095-1.095C80.794,54.57,80.354,54.021,79.808,54.021z
	 M38.089,54.021V40.882h19.709v13.139H38.089L38.089,54.021z"/>
<path fill="#A0D468" d="M81.889,66.615c0,3.941-3.176,7.116-7.118,7.116H21.117c-3.941,0-7.117-3.175-7.117-7.116v-37.23
	c0-3.941,3.176-7.118,7.118-7.118h53.764c3.942,0,7.118,3.176,7.118,7.118v37.23H81.889z M78.603,29.385
	c0-2.08-1.751-3.832-3.832-3.832H21.117c-2.081,0-3.833,1.751-3.833,3.832v37.23c0,2.08,1.752,3.832,3.833,3.832h53.654
	c2.081,0,3.832-1.752,3.832-3.832V29.385z"/>
<path fill="#5DCFAD" d="M74.771,22.269H21.117c-1.534,0-2.738,0.328-3.833,1.094l2.41,2.409c0.438-0.109,0.875-0.219,1.423-0.219
	H74.88c2.081,0,3.614,1.751,3.833,3.394v37.011c0,2.081-1.205,4.489-3.833,4.489h-10.73l3.723,3.284h7.008
	c3.942,0,7.228-3.175,7.118-7.773V28.947C81.889,25.006,78.713,22.269,74.771,22.269z"/>
</svg>
