<?xml version="1.0" encoding="utf-8"?>
<!-- Generator: Adobe Illustrator 15.0.0, SVG Export Plug-In . SVG Version: 6.00 Build 0)  -->
<!DOCTYPE svg PUBLIC "-//W3C//DTD SVG 1.1//EN" "http://www.w3.org/Graphics/SVG/1.1/DTD/svg11.dtd">
<svg version="1.1" id="Capa_1" xmlns="http://www.w3.org/2000/svg" xmlns:xlink="http://www.w3.org/1999/xlink" x="0px" y="0px"
	 width="512px" height="512px" viewBox="0 0 512 512" enable-background="new 0 0 512 512" xml:space="preserve">
<g>
	<g>
		<path fill="#A0D468" d="M316.695,179.911H199.239c-5.09,0-9.222,4.131-9.222,9.222s4.131,9.222,9.222,9.222h117.456
			c5.091,0,9.222-4.131,9.222-9.222C325.915,184.042,321.784,179.911,316.695,179.911z"/>
		<path fill="#A0D468" d="M316.695,249.079H199.239c-5.09,0-9.222,4.131-9.222,9.222s4.131,9.222,9.222,9.222h117.456
			c5.091,0,9.222-4.131,9.222-9.222C325.915,253.21,321.784,249.079,316.695,249.079z"/>
		<path fill="#A0D468" d="M316.695,318.247H199.239c-5.09,0-9.222,4.132-9.222,9.222s4.131,9.223,9.222,9.223h117.456
			c5.091,0,9.222-4.132,9.222-9.223S321.784,318.247,316.695,318.247z"/>
		<path fill="#5DCFAD" d="M377.093,147.632c0-25.468-20.648-46.111-46.112-46.111H185.098c-13.577,0-67.19-0.034-67.19-0.034
			s21.078,44.043,21.078,80.496v182.376c0,25.463,20.644,46.113,46.112,46.113h145.883c25.464,0,46.112-20.65,46.112-46.113V147.632
			L377.093,147.632z M358.648,364.358c0,15.276-12.39,27.667-27.667,27.667H185.098c-15.276,0-27.667-12.391-27.667-27.667V181.981
			c0-25.522-10.996-62.019-10.996-62.019s30.57,0.002,38.663,0.002h145.883c15.277,0,27.667,12.39,27.667,27.667V364.358
			L358.648,364.358z"/>
	</g>
</g>
</svg>
