<?xml version="1.0" encoding="utf-8"?>
<!-- Generator: Adobe Illustrator 15.0.0, SVG Export Plug-In . SVG Version: 6.00 Build 0)  -->
<!DOCTYPE svg PUBLIC "-//W3C//DTD SVG 1.1//EN" "http://www.w3.org/Graphics/SVG/1.1/DTD/svg11.dtd">
<svg version="1.1" id="Capa_1" xmlns="http://www.w3.org/2000/svg" xmlns:xlink="http://www.w3.org/1999/xlink" x="0px" y="0px"
	 width="512px" height="512px" viewBox="0 0 512 512" enable-background="new 0 0 512 512" xml:space="preserve">
<g>
	<g>
		<path fill="#5DCFAD" d="M385.593,152.632c0-25.468-20.648-46.111-46.112-46.111H193.598c-13.577,0-70.129,0-70.129,0
			s24.017,44.009,24.017,80.462v182.376c0,25.463,20.645,46.113,46.112,46.113h145.883c25.464,0,46.112-20.65,46.112-46.113V152.632
			L385.593,152.632z"/>
		<g>
			<path fill="#FFFFFF" d="M326.695,182.61H209.239c-5.09,0-9.222,4.131-9.222,9.222c0,5.092,4.131,9.223,9.222,9.223h117.456
				c5.091,0,9.222-4.131,9.222-9.223C335.914,186.741,331.783,182.61,326.695,182.61z"/>
			<path fill="#FFFFFF" d="M326.695,251.778H209.239c-5.09,0-9.222,4.131-9.222,9.222c0,5.092,4.131,9.223,9.222,9.223h117.456
				c5.091,0,9.222-4.131,9.222-9.223C335.914,255.909,331.783,251.778,326.695,251.778z"/>
			<path fill="#FFFFFF" d="M326.695,320.945H209.239c-5.09,0-9.222,4.133-9.222,9.223s4.131,9.223,9.222,9.223h117.456
				c5.091,0,9.222-4.131,9.222-9.223S331.783,320.945,326.695,320.945z"/>
		</g>
	</g>
</g>
</svg>
