<?xml version="1.0" encoding="utf-8"?>
<!-- Generator: Adobe Illustrator 15.0.0, SVG Export Plug-In . SVG Version: 6.00 Build 0)  -->
<!DOCTYPE svg PUBLIC "-//W3C//DTD SVG 1.1//EN" "http://www.w3.org/Graphics/SVG/1.1/DTD/svg11.dtd">
<svg version="1.1" id="图层_1" xmlns="http://www.w3.org/2000/svg" xmlns:xlink="http://www.w3.org/1999/xlink" x="0px" y="0px"
	 width="128px" height="128px" viewBox="0 0 128 128" enable-background="new 0 0 128 128" xml:space="preserve">
<path fill="#5DA4FF" d="M89.059,50.904h10.279c1.827,0,3.197,1.37,3.197,3.197v20.327c0,1.826-1.37,3.198-3.197,3.198H89.059v5.479
	c0,1.599,1.143,2.741,2.74,2.741h5.481v5.479H86.776H75.583v-5.479h5.482c1.596,0,2.738-1.143,2.738-2.741V45.422
	c0-1.599-1.143-2.741-2.738-2.741h-5.482v-5.252h21.925v5.481h-5.48c-1.599,0-2.741,1.142-2.741,2.741v5.253 M89.059,72.371h7.994
	c0.23,0,0.23-0.227,0.23-0.227v-15.76c0-0.229-0.23-0.229-0.23-0.229h-7.994V72.371z M30.652,56.156h41.506v-5.252H27.911
	c-1.828,0-3.425,1.598-3.425,3.426v20.328c0,1.828,1.371,3.424,3.425,3.424h44.474v-5.48H30.652c-0.458,0-0.686-0.231-0.686-0.687
	V57.07C29.966,56.614,30.423,56.156,30.652,56.156z"/>
</svg>
