<?xml version="1.0" encoding="utf-8"?>
<!-- Generator: Adobe Illustrator 15.0.0, SVG Export Plug-In . SVG Version: 6.00 Build 0)  -->
<!DOCTYPE svg PUBLIC "-//W3C//DTD SVG 1.1//EN" "http://www.w3.org/Graphics/SVG/1.1/DTD/svg11.dtd">
<svg version="1.1" id="图层_1" xmlns="http://www.w3.org/2000/svg" xmlns:xlink="http://www.w3.org/1999/xlink" x="0px" y="0px"
	 width="128px" height="128px" viewBox="0 0 128 128" enable-background="new 0 0 128 128" xml:space="preserve">
<path fill="#4E8CEE" d="M108.8,100c1.601,1.6,1.601,4.8,0,5.6c-1.6,1.601-4.8,1.601-5.6,0l-8-8C76.8,112,51.2,112,34.4,96
	c-0.8-0.8-0.8-0.8-0.8-2.4c0-1.6,0.8-3.199,3.2-3.199c0.8,0,1.6,0.8,2.4,0.8C46.4,97.6,56,101.6,65.6,101.6c21.601,0,40-17.6,40-40
	c0-21.6-17.6-40-40-40c-21.6,0-40,17.6-40,40c0,4.8,2.4,12.8,2.4,12.8v0.8c0,1.6-0.8,3.2-3.2,3.2c-0.8,0-2.4-0.801-3.2-2.4
	C16,60,19.2,42.4,32,29.6c17.6-17.6,47.2-18.4,64.8,0c16.8,16.8,17.601,44,3.2,62.4L108.8,100z"/>
<path fill="#4E8CEE" d="M88.8,80.8C88.8,80.8,88.8,81.6,88.8,80.8c0,1.601-0.8,3.2-3.2,3.2c-0.8,0-2.399-0.8-3.199-2.4
	C81.6,72,74.4,64.8,64.8,64.8c-9.6,0.8-16.8,8-19.2,16.8c0,0-0.8,2.4-3.2,2.4c-1.6-0.8-2.4-1.6-2.4-3.2c0.8-8.8,7.2-16,15.2-19.2
	c-3.2-4-5.6-8-5.6-12.8c0-8,6.4-15.2,15.2-15.2S80,40,80,48.8c0,4.8-2.4,8.8-5.6,12C81.6,64.8,88,72,88.8,80.8z"/>
<path fill="#BAD4FF" d="M55.2,48.8c0,5.302,4.298,9.6,9.6,9.6s9.601-4.298,9.601-9.6c0-5.302-4.299-9.6-9.601-9.6
	S55.2,43.498,55.2,48.8z"/>
</svg>
