<?xml version="1.0" standalone="no"?><!DOCTYPE svg PUBLIC "-//W3C//DTD SVG 1.1//EN" "http://www.w3.org/Graphics/SVG/1.1/DTD/svg11.dtd"><svg t="1508378723543" class="icon" style="" viewBox="0 0 1024 1024" version="1.1" xmlns="http://www.w3.org/2000/svg" p-id="1581" xmlns:xlink="http://www.w3.org/1999/xlink" width="128" height="128"><defs><style type="text/css"></style></defs><path d="M870.4 800c12.8 12.8 12.8 38.4 0 44.8-12.8 12.8-38.4 12.8-44.8 0l-64-64C614.4 896 409.6 896 275.2 768c-6.4-6.4-6.4-6.4-6.4-19.2 0-12.8 6.4-25.6 25.6-25.6 6.4 0 12.8 6.4 19.2 6.4 57.6 51.2 134.4 83.2 211.2 83.2 172.8 0 320-140.8 320-320 0-172.8-140.8-320-320-320-172.8 0-320 140.8-320 320 0 38.4 19.2 102.4 19.2 102.4v6.4c0 12.8-6.4 25.6-25.6 25.6-6.4 0-19.2-6.4-25.6-19.2-44.8-128-19.2-268.8 83.2-371.2 140.8-140.8 377.6-147.2 518.4 0 134.4 134.4 140.8 352 25.6 499.2l70.4 64z" fill="#4E8CEE" p-id="1582"></path><path d="M710.4 646.4s0 6.4 0 0c0 12.8-6.4 25.6-25.6 25.6-6.4 0-19.2-6.4-25.6-19.2-6.4-76.8-64-134.4-140.8-134.4-76.8 6.4-134.4 64-153.6 134.4 0 0-6.4 19.2-25.6 19.2-12.8-6.4-19.2-12.8-19.2-25.6 6.4-70.4 57.6-128 121.6-153.6-25.6-32-44.8-64-44.8-102.4 0-64 51.2-121.6 121.6-121.6S640 320 640 390.4c0 38.4-19.2 70.4-44.8 96 57.6 32 108.8 89.6 115.2 160z" fill="#4E8CEE" p-id="1583"></path><path d="M518.4 390.4m-76.8 0a76.8 76.8 0 1 0 153.6 0 76.8 76.8 0 1 0-153.6 0Z" fill="#BAD4FF" p-id="1584"></path></svg>