<?xml version="1.0" encoding="utf-8"?>
<!-- Generator: Adobe Illustrator 15.0.0, SVG Export Plug-In . SVG Version: 6.00 Build 0)  -->
<!DOCTYPE svg PUBLIC "-//W3C//DTD SVG 1.1//EN" "http://www.w3.org/Graphics/SVG/1.1/DTD/svg11.dtd">
<svg version="1.1" id="图层_1" xmlns="http://www.w3.org/2000/svg" xmlns:xlink="http://www.w3.org/1999/xlink" x="0px" y="0px"
	 width="128px" height="128px" viewBox="0 0 128 128" enable-background="new 0 0 128 128" xml:space="preserve">
<g>
	<path fill="#96DEFF" d="M93.609,71.166L48.133,25.833l-5.294,5.259l6.552,11.865L24.333,67.926L56.988,99.5l26.989-26.314
		L93.609,71.166z M39.014,67.926L57.218,49.81l18.204,18.116L57.218,85.125L39.014,67.926z"/>
	<path fill="#4DB5FF" d="M93.609,78.391c0,0-7.625,8.27-7.625,12.385c0,4.127,3.416,7.461,7.625,7.461s7.623-3.35,7.623-7.461
		C101.232,86.659,93.609,78.391,93.609,78.391z"/>
</g>
<path fill="#4DB5FF" d="M57.189,86.102L39.014,67.926c0,0,8.752-3.023,18.611-0.384c9.646,2.583,17.746,0.374,17.746,0.374
	L57.189,86.102z"/>
</svg>
