<?xml version="1.0" encoding="utf-8"?>
<!-- Generator: Adobe Illustrator 15.0.0, SVG Export Plug-In . SVG Version: 6.00 Build 0)  -->
<!DOCTYPE svg PUBLIC "-//W3C//DTD SVG 1.1//EN" "http://www.w3.org/Graphics/SVG/1.1/DTD/svg11.dtd">
<svg version="1.1" id="图层_1" xmlns="http://www.w3.org/2000/svg" xmlns:xlink="http://www.w3.org/1999/xlink" x="0px" y="0px"
	 width="128px" height="128px" viewBox="0 0 128 128" enable-background="new 0 0 128 128" xml:space="preserve">
<g>
	<polygon fill="#4DB5FF" points="78.05,49.95 64,35.9 49.95,49.95 59.316,49.95 59.316,59.316 49.95,59.316 64,73.366 78.05,59.316 
		68.684,59.316 68.684,49.95 	"/>
	<g>
		<path fill="none" d="M64,26.533c-15.787,0-28.1,12.312-28.1,28.1v18.733c0,15.788,12.312,28.1,28.1,28.1
			c15.787,0,28.1-12.312,28.1-28.1V54.633C92.1,38.845,79.787,26.533,64,26.533z"/>
		<path fill="#96DEFF" d="M64,17.167c-20.747,0-37.467,16.72-37.467,37.467v18.733c0,20.747,16.72,37.468,37.467,37.468
			s37.466-16.721,37.466-37.468V54.633C101.466,33.886,84.747,17.167,64,17.167z M92.1,73.366c0,15.788-12.313,28.1-28.1,28.1
			c-15.788,0-28.1-12.312-28.1-28.1V54.633c0-15.788,12.313-28.1,28.1-28.1s28.1,12.312,28.1,28.1V73.366z"/>
	</g>
</g>
</svg>
